Fira Sans-Light Italic.ufo
<glyph name="parenleft" format="1">
  <advance width="329"/>
  <unicode hex="0028"/>
  <outline>
    <contour>
      <point x="170" y="635"/>
      <point x="84" y="485"/>
      <point x="84" y="233" type="curve" smooth="yes"/>
      <point x="84" y="79"/>
      <point x="136" y="-18"/>
      <point x="194" y="-125" type="curve"/>
      <point x="196" y="-124" type="line"/>
      <point x="138" y="-17"/>
      <point x="86" y="79"/>
      <point x="86" y="233" type="curve" smooth="yes"/>
      <point x="86" y="484"/>
      <point x="171" y="632"/>
      <point x="328" y="824" type="curve"/>
      <point x="327" y="825" type="line"/>
    </contour>
  </outline>
</glyph>
<glyph name="parenright" format="1">
  <advance width="327"/>
  <unicode hex="0029"/>
  <outline>
    <contour>
      <point x="158" y="824" type="line"/>
      <point x="216" y="717"/>
      <point x="266" y="621"/>
      <point x="266" y="466" type="curve" smooth="yes"/>
      <point x="266" y="215"/>
      <point x="183" y="69"/>
      <point x="25" y="-124" type="curve"/>
      <point x="27" y="-125" type="line"/>
      <point x="184" y="66"/>
      <point x="268" y="213"/>
      <point x="268" y="466" type="curve" smooth="yes"/>
      <point x="268" y="621"/>
      <point x="218" y="717"/>
      <point x="160" y="825" type="curve"/>
    </contour>
  </outline>
</glyph>
<glyph name="plus" format="1">
  <advance width="479"/>
  <unicode hex="002B"/>
  <outline>
    <contour>
      <point x="270" y="488" type="line"/>
      <point x="249" y="332" type="line"/>
      <point x="96" y="332" type="line"/>
      <point x="95" y="330" type="line"/>
      <point x="248" y="330" type="line"/>
      <point x="226" y="174" type="line"/>
      <point x="228" y="174" type="line"/>
      <point x="250" y="330" type="line"/>
      <point x="403" y="330" type="line"/>
      <point x="404" y="332" type="line"/>
      <point x="251" y="332" type="line"/>
      <point x="272" y="488" type="line"/>
    </contour>
  </outline>
</glyph>
<glyph name="zero" format="1">
  <advance width="536"/>
  <unicode hex="0030"/>
  <outline>
    <contour>
      <point x="427" y="670"/>
      <point x="476" y="597"/>
      <point x="476" y="453" type="curve" smooth="yes"/>
      <point x="476" y="239"/>
      <point x="402" y="-9"/>
      <point x="227" y="-9" type="curve" smooth="yes"/>
      <point x="130" y="-9"/>
      <point x="81" y="63"/>
      <point x="81" y="205" type="curve" smooth="yes"/>
      <point x="81" y="422"/>
      <point x="153" y="670"/>
      <point x="329" y="670" type="curve" smooth="yes"/>
    </contour>
    <contour>
      <point x="155" y="668"/>
      <point x="83" y="421"/>
      <point x="83" y="205" type="curve" smooth="yes"/>
      <point x="83" y="65"/>
      <point x="131" y="-7"/>
      <point x="227" y="-7" type="curve"/>
      <point x="401" y="-6"/>
      <point x="474" y="240"/>
      <point x="474" y="453" type="curve" smooth="yes"/>
      <point x="474" y="597"/>
      <point x="425" y="668"/>
      <point x="329" y="668" type="curve"/>
    </contour>
  </outline>
</glyph>
<glyph name="one" format="1">
  <advance width="385"/>
  <unicode hex="0031"/>
  <outline>
    <contour>
      <point x="299" y="660" type="line"/>
      <point x="100" y="543" type="line"/>
      <point x="101" y="541" type="line"/>
      <point x="299" y="658" type="line"/>
      <point x="207" y="0" type="line"/>
      <point x="209" y="0" type="line"/>
      <point x="301" y="660" type="line"/>
    </contour>
  </outline>
</glyph>
<glyph name="asciicircum" format="1">
  <advance width="528"/>
  <unicode hex="005E"/>
  <outline>
    <contour>
      <point x="336" y="817" type="line"/>
      <point x="127" y="527" type="line"/>
      <point x="129" y="527" type="line"/>
      <point x="337" y="816" type="line"/>
      <point x="463" y="527" type="line"/>
      <point x="465" y="527" type="line"/>
      <point x="338" y="817" type="line"/>
    </contour>
  </outline>
</glyph>
<glyph name="underscore" format="1">
  <advance width="520"/>
  <unicode hex="005F"/>
  <outline>
    <contour>
      <point x="419" y="-87" type="line"/>
      <point x="419" y="-85" type="line"/>
      <point x="5" y="-85" type="line"/>
      <point x="5" y="-87" type="line"/>
    </contour>
  </outline>
</glyph>
<glyph name="a" format="1">
  <advance width="539"/>
  <unicode hex="0061"/>
  <outline>
    <contour>
      <point x="141" y="527"/>
      <point x="74" y="326"/>
      <point x="74" y="183" type="curve" smooth="yes"/>
      <point x="74" y="72"/>
      <point x="129" y="-9"/>
      <point x="229" y="-9" type="curve" smooth="yes"/>
      <point x="294" y="-9"/>
      <point x="362" y="31"/>
      <point x="408" y="116" type="curve"/>
      <point x="403" y="71"/>
      <point x="394" y="12"/>
      <point x="447" y="-9" type="curve"/>
      <point x="448" y="-7" type="line"/>
      <point x="401" y="12"/>
      <point x="402" y="57"/>
      <point x="411" y="121" type="curve" smooth="yes"/>
      <point x="462" y="487" type="line"/>
      <point x="428" y="511"/>
      <point x="387" y="527"/>
      <point x="337" y="527" type="curve" smooth="yes"/>
    </contour>
    <contour>
      <point x="386" y="525"/>
      <point x="426" y="510"/>
      <point x="460" y="486" type="curve"/>
      <point x="409" y="121" type="line"/>
      <point x="362" y="34"/>
      <point x="294" y="-7"/>
      <point x="229" y="-7" type="curve" smooth="yes"/>
      <point x="130" y="-7"/>
      <point x="76" y="73"/>
      <point x="76" y="183" type="curve" smooth="yes"/>
      <point x="76" y="325"/>
      <point x="142" y="525"/>
      <point x="337" y="525" type="curve" smooth="yes"/>
    </contour>
    <contour>
      <point x="457" y="-9" type="move" name="ogonek"/>
    </contour>
    <contour>
      <point x="257" y="0" type="move" name="bottom"/>
    </contour>
    <contour>
      <point x="336" y="517" type="move" name="top"/>
    </contour>
  </outline>
</glyph>
<glyph name="d" format="1">
  <advance width="566"/>
  <unicode hex="0064"/>
  <outline>
    <contour>
      <point x="462" y="424" type="line"/>
      <point x="444" y="473"/>
      <point x="398" y="527"/>
      <point x="312" y="527" type="curve" smooth="yes"/>
      <point x="137" y="527"/>
      <point x="74" y="315"/>
      <point x="74" y="182" type="curve" smooth="yes"/>
      <point x="74" y="61"/>
      <point x="133" y="-9"/>
      <point x="225" y="-9" type="curve" smooth="yes"/>
      <point x="320" y="-9"/>
      <point x="377" y="65"/>
      <point x="424" y="149" type="curve"/>
      <point x="403" y="0" type="line"/>
      <point x="405" y="0" type="line"/>
      <point x="507" y="730" type="line"/>
      <point x="505" y="730" type="line"/>
    </contour>
    <contour>
      <point x="397" y="525"/>
      <point x="443" y="472"/>
      <point x="462" y="420" type="curve"/>
      <point x="424" y="152" type="line"/>
      <point x="377" y="68"/>
      <point x="320" y="-7"/>
      <point x="225" y="-7" type="curve" smooth="yes"/>
      <point x="134" y="-7"/>
      <point x="76" y="62"/>
      <point x="76" y="182" type="curve" smooth="yes"/>
      <point x="76" y="314"/>
      <point x="138" y="525"/>
      <point x="312" y="525" type="curve" smooth="yes"/>
    </contour>
    <contour>
      <point x="247" y="0" type="move" name="bottom"/>
    </contour>
    <contour>
      <point x="339" y="727" type="move" name="top"/>
    </contour>
    <contour>
      <point x="556" y="727" type="move" name="topright"/>
    </contour>
    <contour>
      <point x="283" y="259" type="move" name="center"/>
    </contour>
  </outline>
</glyph>
<glyph name="g" format="1">
  <advance width="549"/>
  <unicode hex="0067"/>
  <outline>
    <contour>
      <point x="139" y="527"/>
      <point x="76" y="338"/>
      <point x="76" y="195" type="curve" smooth="yes"/>
      <point x="76" y="84"/>
      <point x="130" y="0"/>
      <point x="228" y="0" type="curve" smooth="yes"/>
      <point x="292" y="0"/>
      <point x="360" y="42"/>
      <point x="407" y="132" type="curve"/>
      <point x="386" y="-11" type="line" smooth="yes"/>
      <point x="365" y="-151"/>
      <point x="296" y="-189"/>
      <point x="211" y="-189" type="curve" smooth="yes"/>
      <point x="141" y="-189"/>
      <point x="85" y="-165"/>
      <point x="53" y="-143" type="curve"/>
      <point x="52" y="-145" type="line"/>
      <point x="84" y="-167"/>
      <point x="141" y="-191"/>
      <point x="211" y="-191" type="curve" smooth="yes"/>
      <point x="297" y="-191"/>
      <point x="367" y="-152"/>
      <point x="388" y="-11" type="curve" smooth="yes"/>
      <point x="462" y="487" type="line"/>
      <point x="428" y="511"/>
      <point x="387" y="527"/>
      <point x="337" y="527" type="curve" smooth="yes"/>
    </contour>
    <contour>
      <point x="386" y="525"/>
      <point x="426" y="510"/>
      <point x="460" y="486" type="curve"/>
      <point x="408" y="138" type="line"/>
      <point x="362" y="49"/>
      <point x="297" y="2"/>
      <point x="228" y="2" type="curve" smooth="yes"/>
      <point x="131" y="2"/>
      <point x="78" y="85"/>
      <point x="78" y="195" type="curve" smooth="yes"/>
      <point x="78" y="337"/>
      <point x="140" y="525"/>
      <point x="337" y="525" type="curve" smooth="yes"/>
    </contour>
    <contour>
      <point x="316" y="517" type="move" name="top"/>
    </contour>
    <contour>
      <point x="211" y="-188" type="move" name="bottom"/>
    </contour>
  </outline>
</glyph>
<glyph name="degree" format="1">
  <advance width="521"/>
  <unicode hex="00B0"/>
  <outline>
    <contour>
      <point x="334" y="421"/>
      <point x="389" y="493"/>
      <point x="389" y="580" type="curve" smooth="yes"/>
      <point x="389" y="645"/>
      <point x="350" y="690"/>
      <point x="280" y="690" type="curve"/>
      <point x="199" y="690"/>
      <point x="135" y="619"/>
      <point x="135" y="534" type="curve" smooth="yes"/>
      <point x="135" y="465"/>
      <point x="178" y="421"/>
      <point x="243" y="421" type="curve"/>
    </contour>
    <contour>
      <point x="179" y="423"/>
      <point x="137" y="466"/>
      <point x="137" y="534" type="curve" smooth="yes"/>
      <point x="137" y="618"/>
      <point x="200" y="688"/>
      <point x="280" y="688" type="curve"/>
      <point x="349" y="688"/>
      <point x="387" y="644"/>
      <point x="387" y="580" type="curve" smooth="yes"/>
      <point x="387" y="494"/>
      <point x="333" y="423"/>
      <point x="243" y="423" type="curve"/>
    </contour>
  </outline>
</glyph>
<glyph name="paragraph" format="1">
  <advance width="683"/>
  <unicode hex="00B6"/>
  <outline>
    <contour>
      <point x="401" y="680" type="line"/>
      <point x="400" y="678" type="line"/>
      <point x="278" y="-190" type="line"/>
      <point x="280" y="-190" type="line"/>
      <point x="402" y="678" type="line"/>
      <point x="550" y="678" type="line"/>
      <point x="428" y="-190" type="line"/>
      <point x="430" y="-190" type="line"/>
      <point x="552" y="680" type="line"/>
    </contour>
    <contour>
      <point x="260" y="680"/>
      <point x="161" y="598"/>
      <point x="161" y="468" type="curve" smooth="yes"/>
      <point x="161" y="381"/>
      <point x="214" y="312"/>
      <point x="350" y="312" type="curve"/>
      <point x="401" y="680" type="line"/>
    </contour>
  </outline>
</glyph>
<glyph name="Eth" format="1">
  <advance width="615"/>
  <unicode hex="00D0"/>
  <outline>
    <contour>
      <point x="147" y="354" type="line"/>
      <point x="53" y="354" type="line"/>
      <point x="53" y="352" type="line"/>
      <point x="345" y="352" type="line"/>
      <point x="345" y="354" type="line"/>
    </contour>
    <component base="D" xOffset="2"/>
  </outline>
</glyph>
<glyph name="multiply" format="1">
  <advance width="479"/>
  <unicode hex="00D7"/>
  <outline>
    <contour>
      <point x="247" y="309" type="line"/>
      <point x="133" y="444" type="line"/>
      <point x="131" y="443" type="line"/>
      <point x="245" y="308" type="line"/>
      <point x="94" y="172" type="line"/>
      <point x="96" y="171" type="line"/>
      <point x="247" y="307" type="line"/>
      <point x="360" y="171" type="line"/>
      <point x="362" y="172" type="line"/>
      <point x="249" y="308" type="line"/>
      <point x="399" y="443" type="line"/>
      <point x="397" y="444" type="line"/>
    </contour>
  </outline>
</glyph>
<glyph name="ae" format="1">
  <advance width="815"/>
  <unicode hex="00E6"/>
  <outline>
    <contour>
      <point x="239" y="527"/>
      <point x="191" y="516"/>
      <point x="133" y="493" type="curve"/>
      <point x="133" y="491" type="line"/>
      <point x="192" y="514"/>
      <point x="239" y="525"/>
      <point x="285" y="525" type="curve" smooth="yes"/>
      <point x="354" y="525"/>
      <point x="420" y="482"/>
      <point x="422" y="378" type="curve"/>
      <point x="408" y="348"/>
      <point x="402" y="328"/>
      <point x="394" y="295" type="curve"/>
      <point x="270" y="295" type="line" smooth="yes"/>
      <point x="109" y="295"/>
      <point x="46" y="214"/>
      <point x="46" y="119" type="curve" smooth="yes"/>
      <point x="46" y="45"/>
      <point x="90" y="-9"/>
      <point x="177" y="-9" type="curve" smooth="yes"/>
      <point x="263" y="-9"/>
      <point x="321" y="32"/>
      <point x="389" y="123" type="curve"/>
      <point x="408" y="39"/>
      <point x="461" y="-9"/>
      <point x="545" y="-9" type="curve" smooth="yes"/>
      <point x="610" y="-9"/>
      <point x="655" y="12"/>
      <point x="707" y="50" type="curve"/>
      <point x="706" y="52" type="line"/>
      <point x="654" y="14"/>
      <point x="610" y="-7"/>
      <point x="545" y="-7" type="curve" smooth="yes"/>
      <point x="403" y="-7"/>
      <point x="378" y="132"/>
      <point x="384" y="218" type="curve"/>
      <point x="654" y="231"/>
      <point x="771" y="306"/>
      <point x="771" y="414" type="curve" smooth="yes"/>
      <point x="771" y="488"/>
      <point x="712" y="527"/>
      <point x="634" y="527" type="curve" smooth="yes"/>
      <point x="490" y="527"/>
      <point x="437" y="408"/>
      <point x="424" y="382" type="curve"/>
      <point x="421" y="484"/>
      <point x="353" y="527"/>
      <point x="285" y="527" type="curve" smooth="yes"/>
    </contour>
    <contour>
      <point x="377" y="219"/>
      <point x="378" y="170"/>
      <point x="388" y="125" type="curve"/>
      <point x="321" y="37"/>
      <point x="265" y="-7"/>
      <point x="177" y="-7" type="curve" smooth="yes"/>
      <point x="91" y="-7"/>
      <point x="48" y="46"/>
      <point x="48" y="119" type="curve" smooth="yes"/>
      <point x="48" y="213"/>
      <point x="110" y="293"/>
      <point x="270" y="293" type="curve" smooth="yes"/>
      <point x="393" y="293" type="line"/>
    </contour>
    <contour>
      <point x="711" y="525"/>
      <point x="769" y="487"/>
      <point x="769" y="414" type="curve" smooth="yes"/>
      <point x="769" y="308"/>
      <point x="654" y="233"/>
      <point x="384" y="220" type="curve"/>
      <point x="391" y="301"/>
      <point x="435" y="525"/>
      <point x="634" y="525" type="curve" smooth="yes"/>
    </contour>
    <contour>
      <point x="446" y="517" type="move" name="top"/>
    </contour>
    <contour>
      <point x="369" y="0" type="move" name="bottom"/>
    </contour>
  </outline>
</glyph>
<glyph name="eth" format="1">
  <advance width="551"/>
  <unicode hex="00F0"/>
  <outline>
    <contour>
      <point x="218" y="732" type="line"/>
      <point x="265" y="720"/>
      <point x="313" y="699"/>
      <point x="352" y="669" type="curve"/>
      <point x="464" y="581"/>
      <point x="474" y="458"/>
      <point x="464" y="335" type="curve"/>
      <point x="464" y="334" type="line"/>
      <point x="451" y="196"/>
      <point x="390" y="-9"/>
      <point x="226" y="-9" type="curve" smooth="yes"/>
      <point x="128" y="-9"/>
      <point x="73" y="64"/>
      <point x="73" y="174" type="curve" smooth="yes"/>
      <point x="73" y="278"/>
      <point x="130" y="455"/>
      <point x="287" y="455" type="curve" smooth="yes"/>
      <point x="371" y="455"/>
      <point x="425" y="405"/>
      <point x="465" y="332" type="curve"/>
      <point x="465" y="335" type="line"/>
      <point x="427" y="407"/>
      <point x="371" y="457"/>
      <point x="287" y="457" type="curve" smooth="yes"/>
      <point x="129" y="457"/>
      <point x="71" y="279"/>
      <point x="71" y="174" type="curve" smooth="yes"/>
      <point x="71" y="63"/>
      <point x="127" y="-11"/>
      <point x="226" y="-11" type="curve" smooth="yes"/>
      <point x="391" y="-11"/>
      <point x="469" y="200"/>
      <point x="469" y="409" type="curve" smooth="yes"/>
      <point x="469" y="527"/>
      <point x="430" y="612"/>
      <point x="354" y="670" type="curve"/>
      <point x="315" y="701"/>
      <point x="266" y="722"/>
      <point x="218" y="734" type="curve"/>
    </contour>
    <contour>
      <point x="352" y="670" type="line"/>
      <point x="352" y="670" type="line"/>
      <point x="250" y="577" type="line"/>
      <point x="252" y="576" type="line"/>
      <point x="354" y="669" type="line"/>
      <point x="354" y="669" type="line"/>
      <point x="427" y="736" type="line"/>
      <point x="425" y="737" type="line"/>
    </contour>
    <contour>
      <point x="354" y="727" type="move" name="top"/>
    </contour>
    <contour>
      <point x="226" y="0" type="move" name="bottom"/>
    </contour>
  </outline>
</glyph>
<glyph name="oslash" format="1">
  <advance width="559"/>
  <unicode hex="00F8"/>
  <outline>
    <contour>
      <point x="426" y="-9"/>
      <point x="484" y="198"/>
      <point x="484" y="328" type="curve" smooth="yes"/>
      <point x="484" y="455"/>
      <point x="423" y="527"/>
      <point x="318" y="527" type="curve" smooth="yes"/>
      <point x="136" y="527"/>
      <point x="75" y="325"/>
      <point x="75" y="192" type="curve" smooth="yes"/>
      <point x="75" y="65"/>
      <point x="136" y="-9"/>
      <point x="242" y="-9" type="curve" smooth="yes"/>
    </contour>
    <contour>
      <point x="137" y="-7"/>
      <point x="77" y="66"/>
      <point x="77" y="192" type="curve" smooth="yes"/>
      <point x="77" y="324"/>
      <point x="137" y="525"/>
      <point x="318" y="525" type="curve" smooth="yes"/>
      <point x="422" y="525"/>
      <point x="482" y="454"/>
      <point x="482" y="328" type="curve" smooth="yes"/>
      <point x="482" y="199"/>
      <point x="425" y="-7"/>
      <point x="242" y="-7" type="curve" smooth="yes"/>
    </contour>
    <contour>
      <point x="104" y="-112" type="line"/>
      <point x="106" y="-112" type="line"/>
      <point x="163" y="8" type="line"/>
      <point x="164" y="10" type="line"/>
      <point x="397" y="508" type="line"/>
      <point x="398" y="510" type="line"/>
      <point x="454" y="630" type="line"/>
      <point x="452" y="630" type="line"/>
      <point x="396" y="511" type="line"/>
      <point x="395" y="509" type="line"/>
      <point x="162" y="11" type="line"/>
      <point x="161" y="9" type="line"/>
    </contour>
    <contour>
      <point x="316" y="517" type="move" name="top"/>
    </contour>
    <contour>
      <point x="241" y="0" type="move" name="bottom"/>
    </contour>
  </outline>
</glyph>
<glyph name="dcroat" format="1">
  <advance width="567"/>
  <unicode hex="0111"/>
  <outline>
    <contour>
      <point x="312" y="640" type="line"/>
      <point x="312" y="638" type="line"/>
      <point x="494" y="638" type="line"/>
      <point x="569" y="638" type="line"/>
      <point x="569" y="640" type="line"/>
    </contour>
    <component base="d"/>
  </outline>
</glyph>
<glyph name="Lslash" format="1">
  <advance width="455"/>
  <unicode hex="0141"/>
  <outline>
    <contour>
      <point x="379" y="454" type="line"/>
      <point x="378" y="456" type="line"/>
      <point x="64" y="278" type="line"/>
      <point x="65" y="276" type="line"/>
      <point x="149" y="324" type="line"/>
    </contour>
    <component base="L" xOffset="10"/>
  </outline>
</glyph>
<glyph name="uni018B" format="1">
  <advance width="566"/>
  <unicode hex="018B"/>
  <outline>
    <contour>
      <point x="197" y="678" type="line"/>
      <point x="494" y="678" type="line"/>
      <point x="495" y="680" type="line"/>
      <point x="197" y="680" type="line"/>
    </contour>
    <component base="uni0500" xOffset="14"/>
    <contour>
      <point x="343" y="680" type="move" name="top"/>
    </contour>
    <contour>
      <point x="248" y="0" type="move" name="bottom"/>
    </contour>
  </outline>
</glyph>
<glyph name="uni0194" format="1">
  <advance width="523"/>
  <unicode hex="0194"/>
  <outline>
    <contour>
      <point x="250" y="-193"/>
      <point x="271" y="-155"/>
      <point x="271" y="-111" type="curve" smooth="yes"/>
      <point x="271" y="-65"/>
      <point x="258" y="-16"/>
      <point x="237" y="58" type="curve"/>
      <point x="236" y="60" type="line"/>
      <point x="96" y="680" type="line"/>
      <point x="94" y="680" type="line"/>
      <point x="235" y="58" type="line"/>
      <point x="236" y="56" type="line"/>
      <point x="256" y="-18"/>
      <point x="269" y="-66"/>
      <point x="269" y="-111" type="curve" smooth="yes"/>
      <point x="269" y="-154"/>
      <point x="249" y="-191"/>
      <point x="202" y="-191" type="curve"/>
      <point x="166" y="-191"/>
      <point x="152" y="-168"/>
      <point x="152" y="-140" type="curve" smooth="yes"/>
      <point x="152" y="-96"/>
      <point x="184" y="-35"/>
      <point x="236" y="56" type="curve"/>
      <point x="237" y="58" type="line"/>
      <point x="547" y="680" type="line"/>
      <point x="545" y="680" type="line"/>
      <point x="236" y="60" type="line"/>
      <point x="235" y="58" type="line"/>
      <point x="182" y="-34"/>
      <point x="150" y="-96"/>
      <point x="150" y="-140" type="curve" smooth="yes"/>
      <point x="150" y="-169"/>
      <point x="165" y="-193"/>
      <point x="202" y="-193" type="curve"/>
    </contour>
    <contour>
      <point x="320" y="680" type="move" name="top"/>
    </contour>
  </outline>
</glyph>
<glyph name="uni019B" format="1">
  <advance width="443"/>
  <unicode hex="019B"/>
  <outline>
    <contour>
      <point x="239" y="669" type="line"/>
      <point x="240" y="670" type="line"/>
      <point x="312" y="736" type="line"/>
      <point x="310" y="737" type="line"/>
      <point x="238" y="671" type="line"/>
      <point x="237" y="670" type="line"/>
      <point x="135" y="577" type="line"/>
      <point x="137" y="576" type="line"/>
    </contour>
    <contour>
      <point x="154" y="730" type="line"/>
      <point x="249" y="701"/>
      <point x="261" y="636"/>
      <point x="270" y="517" type="curve"/>
      <point x="269" y="517" type="line"/>
      <point x="13" y="-2" type="line"/>
      <point x="15" y="-3" type="line"/>
      <point x="270" y="515" type="line"/>
      <point x="292" y="155"/>
      <point x="351" y="82"/>
      <point x="405" y="-1" type="curve"/>
      <point x="407" y="0" type="line"/>
      <point x="353" y="83"/>
      <point x="294" y="157"/>
      <point x="272" y="515" type="curve" smooth="yes"/>
      <point x="264" y="637"/>
      <point x="251" y="703"/>
      <point x="155" y="732" type="curve"/>
    </contour>
    <contour>
      <point x="287" y="727" type="move" name="top"/>
    </contour>
    <contour>
      <point x="185" y="0" type="move" name="bottom"/>
    </contour>
  </outline>
</glyph>
<glyph name="uni019C" format="1">
  <advance width="919"/>
  <unicode hex="019C"/>
  <outline>
    <contour>
      <point x="315" y="-10"/>
      <point x="377" y="43"/>
      <point x="440" y="131" type="curve"/>
      <point x="439" y="133" type="line"/>
      <point x="375" y="44"/>
      <point x="314" y="-8"/>
      <point x="229" y="-8" type="curve" smooth="yes"/>
      <point x="143" y="-8"/>
      <point x="94" y="51"/>
      <point x="110" y="169" type="curve" smooth="yes"/>
      <point x="181" y="680" type="line"/>
      <point x="179" y="680" type="line"/>
      <point x="108" y="169" type="line" smooth="yes"/>
      <point x="92" y="50"/>
      <point x="142" y="-10"/>
      <point x="229" y="-10" type="curve" smooth="yes"/>
    </contour>
    <contour>
      <point x="648" y="-10"/>
      <point x="710" y="43"/>
      <point x="770" y="127" type="curve"/>
      <point x="770" y="130" type="line"/>
      <point x="708" y="44"/>
      <point x="647" y="-8"/>
      <point x="562" y="-8" type="curve" smooth="yes"/>
      <point x="476" y="-8"/>
      <point x="427" y="51"/>
      <point x="443" y="169" type="curve" smooth="yes"/>
      <point x="514" y="680" type="line"/>
      <point x="512" y="680" type="line"/>
      <point x="441" y="169" type="line" smooth="yes"/>
      <point x="425" y="50"/>
      <point x="475" y="-10"/>
      <point x="562" y="-10" type="curve" smooth="yes"/>
    </contour>
    <contour>
      <point x="753" y="0" type="line"/>
      <point x="847" y="680" type="line"/>
      <point x="845" y="680" type="line"/>
      <point x="769" y="128" type="line"/>
      <point x="751" y="0" type="line"/>
    </contour>
    <contour>
      <point x="519" y="680" type="move" name="top"/>
    </contour>
    <contour>
      <point x="424" y="0" type="move" name="bottom"/>
    </contour>
  </outline>
</glyph>
<glyph name="uni01AA" format="1">
  <advance width="253"/>
  <unicode hex="01AA"/>
  <outline>
    <contour>
      <point x="60" y="733"/>
      <point x="15" y="678"/>
      <point x="15" y="604" type="curve" smooth="yes"/>
      <point x="15" y="554"/>
      <point x="44" y="526"/>
      <point x="87" y="526" type="curve" smooth="yes"/>
      <point x="121" y="526"/>
      <point x="149" y="539"/>
      <point x="169" y="554" type="curve"/>
      <point x="169" y="556" type="line"/>
      <point x="147" y="540"/>
      <point x="120" y="528"/>
      <point x="87" y="528" type="curve" smooth="yes"/>
      <point x="45" y="528"/>
      <point x="17" y="555"/>
      <point x="17" y="604" type="curve" smooth="yes"/>
      <point x="17" y="677"/>
      <point x="61" y="731"/>
      <point x="121" y="731" type="curve" smooth="yes"/>
      <point x="169" y="731"/>
      <point x="187" y="693"/>
      <point x="180" y="644" type="curve" smooth="yes"/>
      <point x="90" y="0" type="line"/>
      <point x="92" y="0" type="line"/>
      <point x="182" y="644" type="line" smooth="yes"/>
      <point x="189" y="694"/>
      <point x="170" y="733"/>
      <point x="121" y="733" type="curve" smooth="yes"/>
    </contour>
    <component base="hookHELPERright" xOffset="83"/>
    <contour>
      <point x="192" y="727" type="move" name="top"/>
    </contour>
  </outline>
</glyph>
<glyph name="uni01B7" format="1">
  <advance width="464"/>
  <unicode hex="01B7"/>
  <outline>
    <contour>
      <point x="315" y="-9"/>
      <point x="405" y="81"/>
      <point x="405" y="214" type="curve" smooth="yes"/>
      <point x="405" y="311"/>
      <point x="342" y="363"/>
      <point x="217" y="363" type="curve"/>
      <point x="148" y="363" type="line"/>
      <point x="146" y="361" type="line"/>
      <point x="217" y="361" type="line" smooth="yes"/>
      <point x="340" y="361"/>
      <point x="403" y="310"/>
      <point x="403" y="214" type="curve" smooth="yes"/>
      <point x="403" y="85"/>
      <point x="316" y="-7"/>
      <point x="180" y="-7" type="curve" smooth="yes"/>
      <point x="92" y="-7"/>
      <point x="44" y="22"/>
      <point x="5" y="70" type="curve"/>
      <point x="3" y="69" type="line"/>
      <point x="42" y="21"/>
      <point x="91" y="-9"/>
      <point x="180" y="-9" type="curve" smooth="yes"/>
    </contour>
    <contour>
      <point x="146" y="361" type="line"/>
      <point x="149" y="363" type="line"/>
      <point x="440" y="678" type="line"/>
      <point x="440" y="680" type="line"/>
      <point x="96" y="680" type="line"/>
      <point x="96" y="678" type="line"/>
      <point x="437" y="678" type="line"/>
      <point x="146" y="363" type="line"/>
    </contour>
    <contour>
      <point x="268" y="680" type="move" name="top"/>
    </contour>
    <contour>
      <point x="196" y="0" type="move" name="bottom"/>
    </contour>
  </outline>
</glyph>
<glyph name="uni01BB" format="1">
  <advance width="463"/>
  <unicode hex="01BB"/>
  <outline>
    <contour>
      <point x="435" y="276" type="line"/>
      <point x="435" y="278" type="line"/>
      <point x="136" y="278" type="line"/>
      <point x="136" y="276" type="line"/>
    </contour>
    <component base="two"/>
  </outline>
</glyph>
<glyph name="uni01C3" format="1">
  <advance width="274"/>
  <unicode hex="01C3"/>
  <outline>
    <contour>
      <point x="202" y="730" type="line"/>
      <point x="126" y="188" type="line"/>
      <point x="128" y="188" type="line"/>
      <point x="204" y="730" type="line"/>
    </contour>
    <component base="period" xOffset="77"/>
  </outline>
</glyph>
<glyph name="uni0221" format="1">
  <advance width="645"/>
  <unicode hex="0221"/>
  <outline>
    <contour>
      <point x="425" y="154" type="line"/>
      <point x="378" y="69"/>
      <point x="320" y="-7"/>
      <point x="223" y="-7" type="curve" smooth="yes"/>
      <point x="134" y="-7"/>
      <point x="76" y="62"/>
      <point x="76" y="182" type="curve" smooth="yes"/>
      <point x="76" y="314"/>
      <point x="134" y="525"/>
      <point x="312" y="525" type="curve" smooth="yes"/>
      <point x="397" y="525"/>
      <point x="442" y="474"/>
      <point x="462" y="420" type="curve"/>
      <point x="417" y="102" type="line" smooth="yes"/>
      <point x="406" y="22"/>
      <point x="453" y="-9"/>
      <point x="519" y="-9" type="curve"/>
      <point x="519" y="-7" type="line"/>
      <point x="454" y="-7"/>
      <point x="408" y="22"/>
      <point x="419" y="102" type="curve" smooth="yes"/>
      <point x="507" y="730" type="line"/>
      <point x="505" y="730" type="line"/>
      <point x="462" y="424" type="line"/>
      <point x="444" y="473"/>
      <point x="398" y="527"/>
      <point x="312" y="527" type="curve" smooth="yes"/>
      <point x="133" y="527"/>
      <point x="74" y="315"/>
      <point x="74" y="182" type="curve" smooth="yes"/>
      <point x="74" y="61"/>
      <point x="133" y="-9"/>
      <point x="223" y="-9" type="curve" smooth="yes"/>
      <point x="320" y="-9"/>
      <point x="378" y="65"/>
      <point x="425" y="150" type="curve"/>
    </contour>
    <contour>
      <point x="421" y="45" type="line"/>
      <point x="422" y="47" type="line"/>
      <point x="470" y="121"/>
      <point x="515" y="174"/>
      <point x="587" y="174" type="curve" smooth="yes"/>
      <point x="635" y="174"/>
      <point x="661" y="146"/>
      <point x="661" y="106" type="curve" smooth="yes"/>
      <point x="661" y="41"/>
      <point x="602" y="-7"/>
      <point x="519" y="-7" type="curve"/>
      <point x="519" y="-9" type="line"/>
      <point x="603" y="-9"/>
      <point x="663" y="40"/>
      <point x="663" y="106" type="curve" smooth="yes"/>
      <point x="663" y="147"/>
      <point x="636" y="176"/>
      <point x="587" y="176" type="curve" smooth="yes"/>
      <point x="514" y="176"/>
      <point x="469" y="123"/>
      <point x="421" y="49" type="curve"/>
      <point x="420" y="47" type="line"/>
      <point x="359" y="-49" type="line"/>
      <point x="361" y="-49" type="line"/>
    </contour>
    <contour>
      <point x="386" y="727" type="move" name="top"/>
    </contour>
  </outline>
</glyph>
<glyph name="uni0238" format="1">
  <advance width="839"/>
  <unicode hex="0238"/>
  <outline>
    <contour>
      <point x="302" y="-9"/>
      <point x="357" y="50"/>
      <point x="402" y="123" type="curve"/>
      <point x="402" y="126" type="line"/>
      <point x="356" y="52"/>
      <point x="302" y="-7"/>
      <point x="221" y="-7" type="curve" smooth="yes"/>
      <point x="134" y="-7"/>
      <point x="78" y="63"/>
      <point x="77" y="187" type="curve" smooth="yes"/>
      <point x="78" y="353"/>
      <point x="159" y="525"/>
      <point x="304" y="525" type="curve" smooth="yes"/>
      <point x="377" y="525"/>
      <point x="421" y="471"/>
      <point x="444" y="417" type="curve"/>
      <point x="444" y="420" type="line"/>
      <point x="423" y="472"/>
      <point x="378" y="527"/>
      <point x="304" y="527" type="curve" smooth="yes"/>
      <point x="158" y="527"/>
      <point x="76" y="354"/>
      <point x="75" y="187" type="curve" smooth="yes"/>
      <point x="76" y="62"/>
      <point x="133" y="-9"/>
      <point x="221" y="-9" type="curve" smooth="yes"/>
    </contour>
    <contour>
      <point x="387" y="0" type="line"/>
      <point x="402" y="123" type="line"/>
      <point x="489" y="730" type="line"/>
      <point x="487" y="730" type="line"/>
      <point x="400" y="123" type="line"/>
      <point x="385" y="0" type="line"/>
    </contour>
    <contour>
      <point x="693" y="-9"/>
      <point x="765" y="175"/>
      <point x="765" y="340" type="curve" smooth="yes"/>
      <point x="765" y="459"/>
      <point x="716" y="527"/>
      <point x="628" y="527" type="curve" smooth="yes"/>
      <point x="548" y="527"/>
      <point x="481" y="473"/>
      <point x="445" y="421" type="curve"/>
      <point x="444" y="417" type="line"/>
      <point x="482" y="472"/>
      <point x="550" y="525"/>
      <point x="628" y="525" type="curve" smooth="yes"/>
      <point x="715" y="525"/>
      <point x="763" y="458"/>
      <point x="763" y="340" type="curve" smooth="yes"/>
      <point x="763" y="176"/>
      <point x="692" y="-7"/>
      <point x="548" y="-7" type="curve" smooth="yes"/>
      <point x="480" y="-7"/>
      <point x="422" y="47"/>
      <point x="403" y="126" type="curve"/>
      <point x="402" y="123" type="line"/>
      <point x="421" y="46"/>
      <point x="478" y="-9"/>
      <point x="548" y="-9" type="curve" smooth="yes"/>
    </contour>
    <contour>
      <point x="483" y="727" type="move" name="top"/>
    </contour>
    <contour>
      <point x="381" y="0" type="move" name="bottom"/>
    </contour>
  </outline>
</glyph>
<glyph name="uni0243" format="1">
  <advance width="583"/>
  <unicode hex="0243"/>
  <outline>
    <contour>
      <point x="125" y="194" type="line"/>
      <point x="31" y="194" type="line"/>
      <point x="31" y="192" type="line"/>
      <point x="323" y="192" type="line"/>
      <point x="323" y="194" type="line"/>
    </contour>
    <component base="B" xOffset="2"/>
  </outline>
</glyph>
<glyph name="uni0250" format="1">
  <advance width="498"/>
  <unicode hex="0250"/>
  <outline>
    <contour>
      <point x="262" y="-10"/>
      <point x="310" y="1"/>
      <point x="365" y="24" type="curve"/>
      <point x="365" y="26" type="line"/>
      <point x="309" y="3"/>
      <point x="262" y="-8"/>
      <point x="213" y="-8" type="curve" smooth="yes"/>
      <point x="116" y="-8"/>
      <point x="81" y="45"/>
      <point x="95" y="144" type="curve" smooth="yes"/>
      <point x="132" y="409" type="line"/>
      <point x="132" y="410" type="line"/>
      <point x="137" y="445"/>
      <point x="146" y="505"/>
      <point x="92" y="526" type="curve"/>
      <point x="91" y="524" type="line"/>
      <point x="138" y="505"/>
      <point x="138" y="461"/>
      <point x="130" y="407" type="curve" smooth="yes"/>
      <point x="93" y="144" type="line" smooth="yes"/>
      <point x="79" y="44"/>
      <point x="114" y="-10"/>
      <point x="213" y="-10" type="curve" smooth="yes"/>
    </contour>
    <contour>
      <point x="228" y="213" type="line" smooth="yes"/>
      <point x="356" y="213"/>
      <point x="452" y="278"/>
      <point x="452" y="399" type="curve" smooth="yes"/>
      <point x="452" y="473"/>
      <point x="408" y="526"/>
      <point x="320" y="526" type="curve" smooth="yes"/>
      <point x="235" y="526"/>
      <point x="177" y="485"/>
      <point x="131" y="409" type="curve"/>
      <point x="131" y="406" type="line"/>
      <point x="177" y="482"/>
      <point x="234" y="524"/>
      <point x="320" y="524" type="curve" smooth="yes"/>
      <point x="407" y="524"/>
      <point x="450" y="472"/>
      <point x="450" y="399" type="curve" smooth="yes"/>
      <point x="450" y="280"/>
      <point x="357" y="215"/>
      <point x="228" y="215" type="curve" smooth="yes"/>
      <point x="103" y="215" type="line"/>
      <point x="103" y="213" type="line"/>
    </contour>
    <contour>
      <point x="290" y="517" type="move" name="top"/>
    </contour>
    <contour>
      <point x="218" y="0" type="move" name="bottom"/>
    </contour>
  </outline>
</glyph>
<glyph name="uni0257" format="1">
  <advance width="566"/>
  <unicode hex="0257"/>
  <outline>
    <contour>
      <point x="462" y="424" type="line"/>
      <point x="444" y="473"/>
      <point x="398" y="527"/>
      <point x="312" y="527" type="curve" smooth="yes"/>
      <point x="133" y="527"/>
      <point x="74" y="315"/>
      <point x="74" y="182" type="curve" smooth="yes"/>
      <point x="74" y="61"/>
      <point x="133" y="-9"/>
      <point x="223" y="-9" type="curve" smooth="yes"/>
      <point x="320" y="-9"/>
      <point x="377" y="65"/>
      <point x="424" y="149" type="curve"/>
      <point x="403" y="0" type="line"/>
      <point x="405" y="0" type="line"/>
      <point x="477" y="517" type="line"/>
      <point x="475" y="517" type="line"/>
    </contour>
    <contour>
      <point x="397" y="525"/>
      <point x="442" y="474"/>
      <point x="462" y="420" type="curve"/>
      <point x="424" y="152" type="line"/>
      <point x="377" y="68"/>
      <point x="320" y="-7"/>
      <point x="223" y="-7" type="curve" smooth="yes"/>
      <point x="134" y="-7"/>
      <point x="76" y="62"/>
      <point x="76" y="182" type="curve" smooth="yes"/>
      <point x="76" y="314"/>
      <point x="134" y="525"/>
      <point x="312" y="525" type="curve" smooth="yes"/>
    </contour>
    <component base="hookaboveHELPER2" xOffset="396"/>
    <contour>
      <point x="360" y="727" type="move" name="top"/>
    </contour>
    <contour>
      <point x="254" y="0" type="move" name="bottom"/>
    </contour>
  </outline>
</glyph>
<glyph name="uni0258" format="1">
  <advance width="509"/>
  <unicode hex="0258"/>
  <outline>
    <contour>
      <point x="149" y="527"/>
      <point x="82" y="462"/>
      <point x="82" y="375" type="curve" smooth="yes"/>
      <point x="82" y="273"/>
      <point x="175" y="221"/>
      <point x="420" y="218" type="curve"/>
      <point x="422" y="220" type="line"/>
      <point x="176" y="223"/>
      <point x="84" y="274"/>
      <point x="84" y="375" type="curve" smooth="yes"/>
      <point x="84" y="461"/>
      <point x="150" y="525"/>
      <point x="250" y="525" type="curve" smooth="yes"/>
      <point x="386" y="525"/>
      <point x="430" y="425"/>
      <point x="430" y="316" type="curve" smooth="yes"/>
      <point x="430" y="149"/>
      <point x="348" y="-7"/>
      <point x="195" y="-7" type="curve"/>
      <point x="131" y="-7"/>
      <point x="92" y="13"/>
      <point x="51" y="52" type="curve"/>
      <point x="50" y="50" type="line"/>
      <point x="90" y="12"/>
      <point x="130" y="-9"/>
      <point x="195" y="-9" type="curve"/>
      <point x="349" y="-9"/>
      <point x="432" y="148"/>
      <point x="432" y="316" type="curve" smooth="yes"/>
      <point x="432" y="426"/>
      <point x="387" y="527"/>
      <point x="250" y="527" type="curve" smooth="yes"/>
    </contour>
    <contour>
      <point x="248" y="517" type="move" name="top"/>
    </contour>
    <contour>
      <point x="195" y="0" type="move" name="bottom"/>
    </contour>
  </outline>
</glyph>
<glyph name="uni0264" format="1">
  <advance width="506"/>
  <unicode hex="0264"/>
  <outline>
    <contour>
      <point x="261" y="-9"/>
      <point x="284" y="26"/>
      <point x="284" y="65" type="curve" smooth="yes"/>
      <point x="284" y="102"/>
      <point x="267" y="146"/>
      <point x="244" y="204" type="curve"/>
      <point x="243" y="206" type="line"/>
      <point x="167" y="459" type="line" smooth="yes"/>
      <point x="153" y="506"/>
      <point x="136" y="527"/>
      <point x="101" y="527" type="curve" smooth="yes"/>
      <point x="76" y="527"/>
      <point x="59" y="515"/>
      <point x="44" y="503" type="curve"/>
      <point x="45" y="501" type="line"/>
      <point x="61" y="514"/>
      <point x="77" y="525"/>
      <point x="101" y="525" type="curve" smooth="yes"/>
      <point x="135" y="525"/>
      <point x="151" y="505"/>
      <point x="165" y="459" type="curve" smooth="yes"/>
      <point x="242" y="204" type="line"/>
      <point x="243" y="202" type="line"/>
      <point x="265" y="146"/>
      <point x="282" y="102"/>
      <point x="282" y="65" type="curve" smooth="yes"/>
      <point x="282" y="26"/>
      <point x="260" y="-7"/>
      <point x="215" y="-7" type="curve"/>
      <point x="179" y="-7"/>
      <point x="165" y="16"/>
      <point x="165" y="42" type="curve" smooth="yes"/>
      <point x="165" y="86"/>
      <point x="206" y="147"/>
      <point x="243" y="202" type="curve"/>
      <point x="244" y="204" type="line"/>
      <point x="395" y="458" type="line" smooth="yes"/>
      <point x="422" y="504"/>
      <point x="443" y="525"/>
      <point x="477" y="525" type="curve" smooth="yes"/>
      <point x="501" y="525"/>
      <point x="514" y="515"/>
      <point x="529" y="501" type="curve"/>
      <point x="530" y="503" type="line"/>
      <point x="516" y="516"/>
      <point x="502" y="527"/>
      <point x="477" y="527" type="curve" smooth="yes"/>
      <point x="442" y="527"/>
      <point x="421" y="506"/>
      <point x="393" y="459" type="curve" smooth="yes"/>
      <point x="243" y="206" type="line"/>
      <point x="242" y="204" type="line"/>
      <point x="205" y="148"/>
      <point x="163" y="87"/>
      <point x="163" y="42" type="curve" smooth="yes"/>
      <point x="163" y="15"/>
      <point x="178" y="-9"/>
      <point x="215" y="-9" type="curve"/>
    </contour>
    <contour>
      <point x="285" y="517" type="move" name="top"/>
    </contour>
    <contour>
      <point x="216" y="0" type="move" name="bottom"/>
    </contour>
  </outline>
</glyph>
<glyph name="uni0265" format="1">
  <advance width="574"/>
  <unicode hex="0265"/>
  <outline>
    <contour>
      <point x="392" y="-191" type="line"/>
      <point x="491" y="517" type="line"/>
      <point x="489" y="517" type="line"/>
      <point x="443" y="188" type="line"/>
      <point x="372" y="47"/>
      <point x="304" y="-7"/>
      <point x="217" y="-7" type="curve" smooth="yes"/>
      <point x="126" y="-7"/>
      <point x="92" y="52"/>
      <point x="106" y="149" type="curve" smooth="yes"/>
      <point x="158" y="517" type="line"/>
      <point x="156" y="517" type="line"/>
      <point x="104" y="149" type="line" smooth="yes"/>
      <point x="90" y="51"/>
      <point x="125" y="-9"/>
      <point x="217" y="-9" type="curve" smooth="yes"/>
      <point x="304" y="-9"/>
      <point x="373" y="45"/>
      <point x="442" y="182" type="curve"/>
      <point x="390" y="-191" type="line"/>
    </contour>
    <contour>
      <point x="320" y="517" type="move" name="top"/>
    </contour>
    <contour>
      <point x="217" y="-188" type="move" name="bottom"/>
    </contour>
  </outline>
</glyph>
<glyph name="uni0267" format="1">
  <advance width="580"/>
  <unicode hex="0267"/>
  <outline>
    <component base="hookHELPER" xOffset="254"/>
    <component base="uni0266"/>
    <contour>
      <point x="228" y="-188" type="move" name="bottom"/>
    </contour>
  </outline>
</glyph>
<glyph name="uni026C" format="1">
  <advance width="293"/>
  <unicode hex="026C"/>
  <outline>
    <contour>
      <point x="144" y="290" type="line"/>
      <point x="178" y="291"/>
      <point x="197" y="293"/>
      <point x="225" y="298" type="curve"/>
      <point x="225" y="300" type="line"/>
      <point x="198" y="295"/>
      <point x="178" y="293"/>
      <point x="144" y="292" type="curve"/>
      <point x="142" y="292" type="line"/>
      <point x="79" y="292"/>
      <point x="47" y="314"/>
      <point x="47" y="357" type="curve" smooth="yes"/>
      <point x="47" y="406"/>
      <point x="86" y="433"/>
      <point x="135" y="433" type="curve" smooth="yes"/>
      <point x="146" y="433"/>
      <point x="155" y="432"/>
      <point x="163" y="431" type="curve"/>
      <point x="163" y="433" type="line"/>
      <point x="155" y="434"/>
      <point x="146" y="435"/>
      <point x="135" y="435" type="curve" smooth="yes"/>
      <point x="85" y="435"/>
      <point x="45" y="407"/>
      <point x="45" y="357" type="curve" smooth="yes"/>
      <point x="45" y="313"/>
      <point x="78" y="290"/>
      <point x="142" y="290" type="curve"/>
    </contour>
    <component base="l" xOffset="18"/>
  </outline>
</glyph>
<glyph name="uni0271" format="1">
  <advance width="843"/>
  <unicode hex="0271"/>
  <outline>
    <component base="m"/>
    <component base="hookHELPER" xOffset="517"/>
    <contour>
      <point x="373" y="-188" type="move" name="bottom"/>
    </contour>
  </outline>
</glyph>
<glyph name="uni0289" format="1">
  <advance width="593"/>
  <unicode hex="0289"/>
  <outline>
    <contour>
      <point x="140" y="380" type="line"/>
      <point x="554" y="380" type="line"/>
      <point x="554" y="382" type="line"/>
      <point x="470" y="382" type="line"/>
      <point x="56" y="382" type="line"/>
      <point x="56" y="380" type="line"/>
    </contour>
    <component base="u" xOffset="4"/>
    <contour>
      <point x="333" y="517" type="move" name="top"/>
    </contour>
    <contour>
      <point x="261" y="0" type="move" name="bottom"/>
    </contour>
  </outline>
</glyph>
<glyph name="uni028F" format="1">
  <advance width="412"/>
  <unicode hex="028F"/>
  <outline>
    <contour>
      <point x="416" y="517" type="line"/>
      <point x="200" y="214" type="line"/>
      <point x="68" y="517" type="line"/>
      <point x="66" y="517" type="line"/>
      <point x="199" y="212" type="line"/>
      <point x="170" y="0" type="line"/>
      <point x="172" y="0" type="line"/>
      <point x="201" y="212" type="line"/>
      <point x="418" y="517" type="line"/>
    </contour>
    <contour>
      <point x="242" y="517" type="move" name="top"/>
    </contour>
    <contour>
      <point x="170" y="0" type="move" name="bottom"/>
    </contour>
  </outline>
</glyph>
<glyph name="uni02A5" format="1">
  <advance width="827"/>
  <unicode hex="02A5"/>
  <outline>
    <contour>
      <point x="476" y="517" type="line"/>
      <point x="476" y="515" type="line"/>
      <point x="809" y="515" type="line"/>
      <point x="405" y="2" type="line"/>
      <point x="405" y="0" type="line"/>
      <point x="615" y="0" type="line"/>
      <point x="615" y="2" type="line"/>
      <point x="408" y="2" type="line"/>
      <point x="812" y="515" type="line"/>
      <point x="812" y="517" type="line"/>
    </contour>
    <contour>
      <point x="601" y="-102" type="line"/>
      <point x="605" y="-69"/>
      <point x="610" y="-34"/>
      <point x="616" y="0" type="curve"/>
      <point x="616" y="1" type="line"/>
      <point x="638" y="132"/>
      <point x="684" y="180"/>
      <point x="751" y="180" type="curve" smooth="yes"/>
      <point x="794" y="180"/>
      <point x="823" y="157"/>
      <point x="823" y="110" type="curve" smooth="yes"/>
      <point x="823" y="19"/>
      <point x="734" y="2"/>
      <point x="615" y="2" type="curve"/>
      <point x="615" y="0" type="line"/>
      <point x="735" y="0"/>
      <point x="825" y="18"/>
      <point x="825" y="110" type="curve" smooth="yes"/>
      <point x="825" y="158"/>
      <point x="795" y="182"/>
      <point x="751" y="182" type="curve" smooth="yes"/>
      <point x="682" y="182"/>
      <point x="636" y="133"/>
      <point x="614" y="2" type="curve"/>
      <point x="614" y="0" type="line"/>
      <point x="608" y="-34"/>
      <point x="603" y="-69"/>
      <point x="599" y="-102" type="curve"/>
    </contour>
    <component base="d"/>
    <contour>
      <point x="505" y="727" type="move" name="top"/>
    </contour>
  </outline>
</glyph>
<glyph name="uni02A9" format="1">
  <advance width="860"/>
  <unicode hex="02A9"/>
  <outline>
    <contour>
      <point x="240" y="734"/>
      <point x="189" y="694"/>
      <point x="178" y="618" type="curve" smooth="yes"/>
      <point x="91" y="1" type="line" smooth="yes"/>
      <point x="75" y="-117"/>
      <point x="41" y="-153"/>
      <point x="-33" y="-190" type="curve"/>
      <point x="-32" y="-191" type="line"/>
      <point x="43" y="-154"/>
      <point x="76" y="-118"/>
      <point x="93" y="1" type="curve" smooth="yes"/>
      <point x="180" y="618" type="line" smooth="yes"/>
      <point x="191" y="693"/>
      <point x="241" y="732"/>
      <point x="305" y="732" type="curve" smooth="yes"/>
      <point x="349" y="732"/>
      <point x="382" y="719"/>
      <point x="413" y="695" type="curve"/>
      <point x="415" y="696" type="line"/>
      <point x="383" y="721"/>
      <point x="349" y="734"/>
      <point x="305" y="734" type="curve" smooth="yes"/>
    </contour>
    <contour>
      <point x="71" y="517" type="line"/>
      <point x="71" y="515" type="line"/>
      <point x="442" y="515" type="line"/>
      <point x="442" y="517" type="line"/>
    </contour>
    <component base="eng" xOffset="280"/>
    <contour>
      <point x="490" y="727" type="move" name="top"/>
    </contour>
    <contour>
      <point x="346" y="-188" type="move" name="bottom"/>
    </contour>
  </outline>
</glyph>
<glyph name="uni02AE" format="1">
  <advance width="649"/>
  <unicode hex="02AE"/>
  <outline>
    <contour>
      <point x="467" y="-191" type="line"/>
      <point x="566" y="517" type="line"/>
      <point x="564" y="517" type="line"/>
      <point x="518" y="188" type="line"/>
      <point x="447" y="47"/>
      <point x="379" y="-7"/>
      <point x="292" y="-7" type="curve" smooth="yes"/>
      <point x="201" y="-7"/>
      <point x="167" y="52"/>
      <point x="181" y="149" type="curve" smooth="yes"/>
      <point x="207" y="335" type="line"/>
      <point x="205" y="335" type="line"/>
      <point x="179" y="149" type="line" smooth="yes"/>
      <point x="165" y="51"/>
      <point x="200" y="-9"/>
      <point x="292" y="-9" type="curve" smooth="yes"/>
      <point x="379" y="-9"/>
      <point x="448" y="45"/>
      <point x="517" y="182" type="curve"/>
      <point x="465" y="-191" type="line"/>
    </contour>
    <component base="hookHELPERright" xOffset="214" yOffset="335" xScale="-1" yScale="-1"/>
    <contour>
      <point x="397" y="517" type="move" name="top"/>
    </contour>
    <contour>
      <point x="271" y="-188" type="move" name="bottom"/>
    </contour>
  </outline>
</glyph>
<glyph name="uni02AF" format="1">
  <advance width="650"/>
  <unicode hex="02AF"/>
  <outline>
    <contour>
      <point x="494" y="0" type="line"/>
      <point x="566" y="517" type="line"/>
      <point x="564" y="517" type="line"/>
      <point x="518" y="188" type="line"/>
      <point x="447" y="47"/>
      <point x="379" y="-7"/>
      <point x="292" y="-7" type="curve" smooth="yes"/>
      <point x="201" y="-7"/>
      <point x="167" y="52"/>
      <point x="181" y="149" type="curve" smooth="yes"/>
      <point x="207" y="335" type="line"/>
      <point x="205" y="335" type="line"/>
      <point x="179" y="149" type="line" smooth="yes"/>
      <point x="165" y="51"/>
      <point x="200" y="-9"/>
      <point x="292" y="-9" type="curve" smooth="yes"/>
      <point x="379" y="-9"/>
      <point x="448" y="45"/>
      <point x="517" y="182" type="curve"/>
      <point x="492" y="0" type="line"/>
    </contour>
    <component base="hookHELPERright" xOffset="214" yOffset="335" xScale="-1" yScale="-1"/>
    <component base="hookHELPERright" xOffset="485"/>
    <contour>
      <point x="397" y="517" type="move" name="top"/>
    </contour>
    <contour>
      <point x="271" y="-188" type="move" name="bottom"/>
    </contour>
  </outline>
</glyph>
<glyph name="uni02B2" format="1">
  <advance width="179"/>
  <unicode hex="02B2"/>
  <outline>
    <contour>
      <point x="170" y="659" type="line"/>
      <point x="133" y="391" type="line" smooth="yes"/>
      <point x="126" y="342"/>
      <point x="107" y="324"/>
      <point x="67" y="306" type="curve"/>
      <point x="68" y="304" type="line"/>
      <point x="109" y="323"/>
      <point x="128" y="341"/>
      <point x="135" y="391" type="curve" smooth="yes"/>
      <point x="172" y="659" type="line"/>
    </contour>
    <contour>
      <point x="181" y="754"/>
      <point x="180" y="752"/>
      <point x="180" y="750" type="curve" smooth="yes"/>
      <point x="180" y="748"/>
      <point x="181" y="746"/>
      <point x="184" y="746" type="curve" smooth="yes"/>
      <point x="187" y="746"/>
      <point x="188" y="748"/>
      <point x="188" y="750" type="curve" smooth="yes"/>
      <point x="188" y="752"/>
      <point x="187" y="754"/>
      <point x="184" y="754" type="curve" smooth="yes"/>
    </contour>
  </outline>
</glyph>
<glyph name="uni02B4" format="1">
  <advance width="239"/>
  <unicode hex="02B4"/>
  <outline>
    <contour>
      <point x="151" y="395"/>
      <point x="180" y="414"/>
      <point x="207" y="469" type="curve"/>
      <point x="209" y="477" type="line"/>
      <point x="182" y="419"/>
      <point x="152" y="397"/>
      <point x="106" y="397" type="curve" smooth="yes"/>
      <point x="95" y="397"/>
      <point x="87" y="398"/>
      <point x="80" y="400" type="curve"/>
      <point x="80" y="398" type="line"/>
      <point x="86" y="396"/>
      <point x="94" y="395"/>
      <point x="105" y="395" type="curve" smooth="yes"/>
    </contour>
    <contour>
      <point x="199" y="400" type="line"/>
      <point x="235" y="659" type="line"/>
      <point x="233" y="659" type="line"/>
      <point x="208" y="474" type="line"/>
      <point x="207" y="469" type="line"/>
      <point x="197" y="400" type="line"/>
    </contour>
  </outline>
</glyph>
<glyph name="uni02BF" format="1">
  <advance width="124"/>
  <unicode hex="02BF"/>
  <outline>
    <contour>
      <point x="167" y="780" type="line"/>
      <point x="123" y="780"/>
      <point x="96" y="750"/>
      <point x="96" y="708" type="curve" smooth="yes"/>
      <point x="96" y="676"/>
      <point x="115" y="657"/>
      <point x="149" y="657" type="curve"/>
      <point x="149" y="655" type="line"/>
      <point x="114" y="655"/>
      <point x="94" y="675"/>
      <point x="94" y="708" type="curve" smooth="yes"/>
      <point x="94" y="751"/>
      <point x="122" y="782"/>
      <point x="167" y="782" type="curve"/>
    </contour>
  </outline>
</glyph>
<glyph name="uni02D1" format="1">
  <advance width="118"/>
  <unicode hex="02D1"/>
  <outline>
    <contour>
      <point x="84" y="423" type="line"/>
      <point x="90" y="437" type="line"/>
      <point x="78" y="437" type="line"/>
      <point x="80" y="423" type="line"/>
    </contour>
  </outline>
</glyph>
<glyph name="uni02E0" format="1">
  <advance width="330"/>
  <unicode hex="02E0"/>
  <outline>
    <contour>
      <point x="199" y="303"/>
      <point x="211" y="323"/>
      <point x="211" y="345" type="curve" smooth="yes"/>
      <point x="211" y="366"/>
      <point x="203" y="387"/>
      <point x="189" y="421" type="curve"/>
      <point x="188" y="423" type="line"/>
      <point x="118" y="659" type="line"/>
      <point x="116" y="659" type="line"/>
      <point x="187" y="421" type="line"/>
      <point x="188" y="419" type="line"/>
      <point x="201" y="387"/>
      <point x="209" y="365"/>
      <point x="209" y="345" type="curve" smooth="yes"/>
      <point x="209" y="324"/>
      <point x="198" y="305"/>
      <point x="173" y="305" type="curve" smooth="yes"/>
      <point x="155" y="305"/>
      <point x="144" y="315"/>
      <point x="144" y="333" type="curve" smooth="yes"/>
      <point x="144" y="360"/>
      <point x="162" y="384"/>
      <point x="188" y="419" type="curve"/>
      <point x="189" y="421" type="line"/>
      <point x="326" y="659" type="line"/>
      <point x="324" y="659" type="line"/>
      <point x="188" y="423" type="line"/>
      <point x="187" y="421" type="line"/>
      <point x="160" y="384"/>
      <point x="142" y="360"/>
      <point x="142" y="333" type="curve" smooth="yes"/>
      <point x="142" y="314"/>
      <point x="154" y="303"/>
      <point x="173" y="303" type="curve"/>
    </contour>
  </outline>
</glyph>
<glyph name="uni02E2" format="1">
  <advance width="304"/>
  <unicode hex="02E2"/>
  <outline>
    <contour>
      <point x="160" y="664"/>
      <point x="118" y="636"/>
      <point x="118" y="594" type="curve" smooth="yes"/>
      <point x="118" y="565"/>
      <point x="140" y="550"/>
      <point x="196" y="536" type="curve" smooth="yes"/>
      <point x="250" y="523"/>
      <point x="272" y="510"/>
      <point x="272" y="478" type="curve" smooth="yes"/>
      <point x="272" y="429"/>
      <point x="229" y="397"/>
      <point x="174" y="397" type="curve" smooth="yes"/>
      <point x="130" y="397"/>
      <point x="105" y="411"/>
      <point x="85" y="430" type="curve"/>
      <point x="84" y="429" type="line"/>
      <point x="104" y="409"/>
      <point x="129" y="395"/>
      <point x="173" y="395" type="curve" smooth="yes"/>
      <point x="230" y="395"/>
      <point x="274" y="428"/>
      <point x="274" y="478" type="curve" smooth="yes"/>
      <point x="274" y="511"/>
      <point x="252" y="524"/>
      <point x="196" y="538" type="curve" smooth="yes"/>
      <point x="141" y="552"/>
      <point x="120" y="566"/>
      <point x="120" y="594" type="curve" smooth="yes"/>
      <point x="120" y="635"/>
      <point x="161" y="662"/>
      <point x="209" y="662" type="curve" smooth="yes"/>
      <point x="244" y="662"/>
      <point x="266" y="653"/>
      <point x="286" y="637" type="curve"/>
      <point x="288" y="638" type="line"/>
      <point x="267" y="655"/>
      <point x="245" y="664"/>
      <point x="209" y="664" type="curve" smooth="yes"/>
    </contour>
  </outline>
</glyph>
<glyph name="uni02E4" format="1">
  <advance width="319"/>
  <unicode hex="02E4"/>
  <outline>
    <contour>
      <point x="234" y="562" type="line"/>
      <point x="199" y="568" type="line" smooth="yes"/>
      <point x="156" y="575"/>
      <point x="119" y="599"/>
      <point x="119" y="652" type="curve" smooth="yes"/>
      <point x="119" y="718"/>
      <point x="165" y="765"/>
      <point x="234" y="765" type="curve" smooth="yes"/>
      <point x="277" y="765"/>
      <point x="303" y="747"/>
      <point x="323" y="726" type="curve"/>
      <point x="325" y="727" type="line"/>
      <point x="306" y="749"/>
      <point x="277" y="767"/>
      <point x="234" y="767" type="curve" smooth="yes"/>
      <point x="164" y="767"/>
      <point x="117" y="719"/>
      <point x="117" y="652" type="curve" smooth="yes"/>
      <point x="117" y="598"/>
      <point x="154" y="574"/>
      <point x="197" y="566" type="curve" smooth="yes"/>
      <point x="232" y="560" type="line"/>
      <point x="209" y="400" type="line"/>
      <point x="211" y="400" type="line"/>
    </contour>
  </outline>
</glyph>
<glyph name="gravecomb" format="1">
  <advance width="227"/>
  <unicode hex="0300"/>
  <outline>
    <contour>
      <point x="98" y="744" type="line"/>
      <point x="253" y="662" type="line"/>
      <point x="254" y="663" type="line"/>
      <point x="99" y="746" type="line"/>
    </contour>
    <contour>
      <point x="178" y="746" type="move" name="top"/>
    </contour>
    <contour>
      <point x="140" y="517" type="move" name="_top"/>
    </contour>
  </outline>
</glyph>
<glyph name="uni0302" format="1">
  <advance width="278"/>
  <unicode hex="0302"/>
  <outline>
    <contour>
      <point x="209" y="743" type="line"/>
      <point x="303" y="660" type="line"/>
      <point x="305" y="661" type="line"/>
      <point x="210" y="745" type="line"/>
      <point x="208" y="745" type="line"/>
      <point x="87" y="661" type="line"/>
      <point x="89" y="660" type="line"/>
    </contour>
    <contour>
      <point x="209" y="745" type="move" name="top"/>
    </contour>
    <contour>
      <point x="176" y="517" type="move" name="_top"/>
    </contour>
  </outline>
</glyph>
<glyph name="uni0304" format="1">
  <advance width="250"/>
  <unicode hex="0304"/>
  <outline>
    <contour>
      <point x="281" y="691" type="line"/>
      <point x="91" y="691" type="line"/>
      <point x="91" y="689" type="line"/>
      <point x="281" y="689" type="line"/>
    </contour>
    <contour>
      <point x="188" y="691" type="move" name="top"/>
    </contour>
    <contour>
      <point x="162" y="517" type="move" name="_top"/>
    </contour>
  </outline>
</glyph>
<glyph name="uni0307" format="1">
  <advance width="72"/>
  <unicode hex="0307"/>
  <outline>
    <contour>
      <point x="102" y="694"/>
      <point x="104" y="697"/>
      <point x="104" y="700" type="curve" smooth="yes"/>
      <point x="104" y="703"/>
      <point x="102" y="706"/>
      <point x="98" y="706" type="curve" smooth="yes"/>
      <point x="94" y="706"/>
      <point x="92" y="703"/>
      <point x="92" y="700" type="curve" smooth="yes"/>
      <point x="92" y="697"/>
      <point x="94" y="694"/>
      <point x="98" y="694" type="curve" smooth="yes"/>
    </contour>
    <contour>
      <point x="98" y="700" type="move" name="_center"/>
    </contour>
    <contour>
      <point x="99" y="706" type="move" name="top"/>
    </contour>
    <contour>
      <point x="72" y="517" type="move" name="_top"/>
    </contour>
  </outline>
</glyph>
<glyph name="uni030A" format="1">
  <advance width="186"/>
  <unicode hex="030A"/>
  <outline>
    <contour>
      <point x="128" y="782"/>
      <point x="100" y="756"/>
      <point x="95" y="718" type="curve" smooth="yes"/>
      <point x="90" y="681"/>
      <point x="109" y="655"/>
      <point x="150" y="655" type="curve"/>
      <point x="189" y="655"/>
      <point x="216" y="681"/>
      <point x="221" y="719" type="curve" smooth="yes"/>
      <point x="226" y="756"/>
      <point x="208" y="782"/>
      <point x="167" y="782" type="curve"/>
    </contour>
    <contour>
      <point x="207" y="780"/>
      <point x="224" y="756"/>
      <point x="219" y="719" type="curve" smooth="yes"/>
      <point x="215" y="683"/>
      <point x="188" y="657"/>
      <point x="150" y="657" type="curve"/>
      <point x="111" y="657"/>
      <point x="92" y="681"/>
      <point x="97" y="718" type="curve" smooth="yes"/>
      <point x="102" y="755"/>
      <point x="129" y="780"/>
      <point x="167" y="780" type="curve"/>
    </contour>
    <contour>
      <point x="170" y="782" type="move" name="top"/>
    </contour>
    <contour>
      <point x="130" y="517" type="move" name="_top"/>
    </contour>
  </outline>
</glyph>
<glyph name="uni030B" format="1">
  <advance width="228"/>
  <unicode hex="030B"/>
  <outline>
    <contour>
      <point x="187" y="662" type="line"/>
      <point x="189" y="661" type="line"/>
      <point x="272" y="784" type="line"/>
      <point x="270" y="785" type="line"/>
    </contour>
    <contour>
      <point x="87" y="664" type="line"/>
      <point x="89" y="663" type="line"/>
      <point x="166" y="781" type="line"/>
      <point x="164" y="782" type="line"/>
    </contour>
    <contour>
      <point x="124" y="517" type="move" name="_top"/>
    </contour>
  </outline>
</glyph>
<glyph name="uni0311" format="1">
  <advance width="252"/>
  <unicode hex="0311"/>
  <outline>
    <contour>
      <point x="106" y="690"/>
      <point x="143" y="715"/>
      <point x="191" y="715" type="curve"/>
      <point x="239" y="715"/>
      <point x="268" y="690"/>
      <point x="275" y="646" type="curve"/>
      <point x="277" y="647" type="line"/>
      <point x="271" y="685"/>
      <point x="246" y="717"/>
      <point x="191" y="717" type="curve"/>
      <point x="136" y="717"/>
      <point x="102" y="685"/>
      <point x="85" y="647" type="curve"/>
      <point x="87" y="646" type="line"/>
    </contour>
    <contour>
      <point x="193" y="717" type="move" name="top"/>
    </contour>
    <contour>
      <point x="165" y="517" type="move" name="_top"/>
    </contour>
  </outline>
</glyph>
<glyph name="uni0312" format="1">
  <advance width="86"/>
  <unicode hex="0312"/>
  <outline>
    <component base="uni0326" xOffset="82" yOffset="490" xScale="-1" yScale="-1"/>
    <contour>
      <point x="76" y="517" type="move" name="_top"/>
    </contour>
  </outline>
</glyph>
<glyph name="dotbelowcomb" format="1">
  <advance width="72"/>
  <unicode hex="0323"/>
  <outline>
    <component base="uni0307" xOffset="82" yOffset="587" xScale="-1" yScale="-1"/>
    <contour>
      <point x="-2" y="0" type="move" name="_bottom"/>
    </contour>
    <contour>
      <point x="-15" y="-119" type="move" name="bottom"/>
    </contour>
  </outline>
</glyph>
<glyph name="uni0324" format="1">
  <advance width="221"/>
  <unicode hex="0324"/>
  <outline>
    <component base="uni0308" xOffset="-112" yOffset="-798"/>
    <contour>
      <point x="74" y="0" type="move" name="_bottom"/>
    </contour>
    <contour>
      <point x="59" y="-119" type="move" name="bottom"/>
    </contour>
  </outline>
</glyph>
<glyph name="uni0325" format="1">
  <advance width="186"/>
  <unicode hex="0325"/>
  <outline>
    <component base="uni030A" xOffset="-121" yOffset="-860"/>
    <contour>
      <point x="56" y="0" type="move" name="_bottom"/>
    </contour>
    <contour>
      <point x="27" y="-205" type="move" name="bottom"/>
    </contour>
  </outline>
</glyph>
<glyph name="uni0326" format="1">
  <advance width="86"/>
  <unicode hex="0326"/>
  <outline>
    <contour>
      <point x="-4" y="-107"/>
      <point x="-6" y="-109"/>
      <point x="-6" y="-112" type="curve" smooth="yes"/>
      <point x="-6" y="-115"/>
      <point x="-4" y="-117"/>
      <point x="0" y="-117" type="curve"/>
      <point x="-40" y="-239" type="line"/>
      <point x="-39" y="-239" type="line"/>
      <point x="1" y="-123" type="line" smooth="yes"/>
      <point x="3" y="-117"/>
      <point x="4" y="-114"/>
      <point x="4" y="-112" type="curve"/>
      <point x="4" y="-109"/>
      <point x="2" y="-107"/>
      <point x="-1" y="-107" type="curve" smooth="yes"/>
    </contour>
    <contour>
      <point x="6" y="0" type="move" name="_bottom"/>
    </contour>
  </outline>
</glyph>
<glyph name="uni0327" format="1">
  <advance width="192"/>
  <unicode hex="0327"/>
  <outline>
    <contour>
      <point x="35" y="-7" type="line"/>
      <point x="19" y="-85" type="line"/>
      <point x="75" y="-86"/>
      <point x="103" y="-100"/>
      <point x="103" y="-139" type="curve" smooth="yes"/>
      <point x="103" y="-171"/>
      <point x="81" y="-200"/>
      <point x="28" y="-200" type="curve" smooth="yes"/>
      <point x="1" y="-200"/>
      <point x="-16" y="-195"/>
      <point x="-31" y="-184" type="curve"/>
      <point x="-32" y="-186" type="line"/>
      <point x="-17" y="-196"/>
      <point x="-1" y="-202"/>
      <point x="28" y="-202" type="curve" smooth="yes"/>
      <point x="82" y="-202"/>
      <point x="105" y="-172"/>
      <point x="105" y="-139" type="curve" smooth="yes"/>
      <point x="105" y="-98"/>
      <point x="75" y="-84"/>
      <point x="21" y="-83" type="curve"/>
      <point x="37" y="-7" type="line"/>
    </contour>
    <contour>
      <point x="45" y="0" type="move" name="_bottom"/>
    </contour>
    <contour>
      <point x="39" y="-202" type="move" name="bottom"/>
    </contour>
  </outline>
</glyph>
<glyph name="uni0328" format="1">
  <advance width="197"/>
  <unicode hex="0328"/>
  <outline>
    <contour>
      <point x="60" y="-23"/>
      <point x="-24" y="-63"/>
      <point x="-24" y="-134" type="curve" smooth="yes"/>
      <point x="-24" y="-175"/>
      <point x="3" y="-194"/>
      <point x="43" y="-194" type="curve" smooth="yes"/>
      <point x="62" y="-194"/>
      <point x="75" y="-192"/>
      <point x="97" y="-186" type="curve"/>
      <point x="97" y="-184" type="line"/>
      <point x="75" y="-190"/>
      <point x="62" y="-192"/>
      <point x="43" y="-192" type="curve" smooth="yes"/>
      <point x="4" y="-192"/>
      <point x="-22" y="-174"/>
      <point x="-22" y="-134" type="curve" smooth="yes"/>
      <point x="-22" y="-76"/>
      <point x="34" y="-34"/>
      <point x="131" y="0" type="curve"/>
      <point x="130" y="1" type="line"/>
    </contour>
    <contour>
      <point x="141" y="0" type="move" name="_ogonek"/>
    </contour>
  </outline>
</glyph>
<glyph name="uni032B" format="1">
  <advance width="315"/>
  <unicode hex="032B"/>
  <outline>
    <contour>
      <point x="196" y="-142"/>
      <point x="221" y="-117"/>
      <point x="236" y="-73" type="curve"/>
      <point x="238" y="-73" type="line"/>
      <point x="225" y="-112"/>
      <point x="201" y="-144"/>
      <point x="164" y="-144" type="curve"/>
      <point x="127" y="-144"/>
      <point x="110" y="-112"/>
      <point x="109" y="-73" type="curve"/>
      <point x="111" y="-73" type="line"/>
      <point x="114" y="-117"/>
      <point x="132" y="-142"/>
      <point x="164" y="-142" type="curve"/>
    </contour>
    <contour>
      <point x="69" y="-142"/>
      <point x="94" y="-117"/>
      <point x="109" y="-73" type="curve"/>
      <point x="111" y="-73" type="line"/>
      <point x="98" y="-112"/>
      <point x="74" y="-144"/>
      <point x="37" y="-144" type="curve"/>
      <point x="0" y="-144"/>
      <point x="-16" y="-112"/>
      <point x="-17" y="-73" type="curve"/>
      <point x="-15" y="-73" type="line"/>
      <point x="-13" y="-117"/>
      <point x="5" y="-142"/>
      <point x="37" y="-142" type="curve"/>
    </contour>
    <contour>
      <point x="126" y="0" type="move" name="_bottom"/>
    </contour>
    <contour>
      <point x="113" y="-144" type="move" name="bottom"/>
    </contour>
  </outline>
</glyph>
<glyph name="uni0331" format="1">
  <advance width="250"/>
  <unicode hex="0331"/>
  <outline>
    <component base="uni0304" xOffset="258" yOffset="572" xScale="-1" yScale="-1"/>
    <contour>
      <point x="88" y="0" type="move" name="_bottom"/>
    </contour>
    <contour>
      <point x="75" y="-119" type="move" name="bottom"/>
    </contour>
  </outline>
</glyph>
<glyph name="uni0339" format="1">
  <advance width="124"/>
  <unicode hex="0339"/>
  <outline>
    <contour>
      <point x="-35" y="-203" type="line"/>
      <point x="9" y="-203"/>
      <point x="36" y="-173"/>
      <point x="36" y="-131" type="curve" smooth="yes"/>
      <point x="36" y="-99"/>
      <point x="17" y="-80"/>
      <point x="-17" y="-80" type="curve"/>
      <point x="-17" y="-78" type="line"/>
      <point x="18" y="-78"/>
      <point x="38" y="-98"/>
      <point x="38" y="-131" type="curve" smooth="yes"/>
      <point x="38" y="-174"/>
      <point x="10" y="-205"/>
      <point x="-35" y="-205" type="curve"/>
    </contour>
    <contour>
      <point x="21" y="0" type="move" name="_bottom"/>
    </contour>
    <contour>
      <point x="4" y="-205" type="move" name="bottom"/>
    </contour>
  </outline>
</glyph>
<glyph name="uni033B" format="1">
  <advance width="279"/>
  <unicode hex="033B"/>
  <outline>
    <contour>
      <point x="184" y="-202" type="line"/>
      <point x="200" y="-88" type="line"/>
      <point x="-19" y="-88" type="line"/>
      <point x="-35" y="-202" type="line"/>
    </contour>
    <contour>
      <point x="-17" y="-90" type="line"/>
      <point x="198" y="-90" type="line"/>
      <point x="182" y="-200" type="line"/>
      <point x="-33" y="-200" type="line"/>
    </contour>
    <contour>
      <point x="103" y="0" type="move" name="_bottom"/>
    </contour>
    <contour>
      <point x="85" y="-202" type="move" name="bottom"/>
    </contour>
  </outline>
</glyph>
<glyph name="uni033C" format="1">
  <advance width="315"/>
  <unicode hex="033C"/>
  <outline>
    <contour>
      <point x="14" y="-75"/>
      <point x="-12" y="-100"/>
      <point x="-25" y="-144" type="curve"/>
      <point x="-27" y="-144" type="line"/>
      <point x="-14" y="-99"/>
      <point x="13" y="-73"/>
      <point x="45" y="-73" type="curve"/>
      <point x="79" y="-73"/>
      <point x="97" y="-99"/>
      <point x="101" y="-144" type="curve"/>
      <point x="99" y="-144" type="line"/>
      <point x="95" y="-100"/>
      <point x="78" y="-75"/>
      <point x="45" y="-75" type="curve"/>
    </contour>
    <contour>
      <point x="141" y="-75"/>
      <point x="115" y="-100"/>
      <point x="101" y="-144" type="curve"/>
      <point x="99" y="-144" type="line"/>
      <point x="114" y="-98"/>
      <point x="140" y="-73"/>
      <point x="172" y="-73" type="curve"/>
      <point x="206" y="-73"/>
      <point x="224" y="-98"/>
      <point x="228" y="-144" type="curve"/>
      <point x="226" y="-144" type="line"/>
      <point x="222" y="-100"/>
      <point x="205" y="-75"/>
      <point x="172" y="-75" type="curve"/>
    </contour>
    <contour>
      <point x="116" y="0" type="move" name="_bottom"/>
    </contour>
    <contour>
      <point x="103" y="-144" type="move" name="bottom"/>
    </contour>
  </outline>
</glyph>
<glyph name="uni0361" format="1">
  <advance width="360"/>
  <unicode hex="0361"/>
  <outline>
    <contour>
      <point x="86" y="646" type="line"/>
      <point x="150" y="696"/>
      <point x="259" y="774"/>
      <point x="423" y="774" type="curve"/>
      <point x="587" y="774"/>
      <point x="674" y="696"/>
      <point x="725" y="646" type="curve"/>
      <point x="725" y="648" type="line"/>
      <point x="674" y="699"/>
      <point x="588" y="776"/>
      <point x="423" y="776" type="curve"/>
      <point x="260" y="776"/>
      <point x="150" y="699"/>
      <point x="85" y="648" type="curve"/>
    </contour>
  </outline>
</glyph>
<glyph name="uni0370" format="1">
  <advance width="528"/>
  <unicode hex="0370"/>
  <outline>
    <contour>
      <point x="147" y="367" type="line"/>
      <point x="191" y="680" type="line"/>
      <point x="189" y="680" type="line"/>
      <point x="94" y="0" type="line"/>
      <point x="96" y="0" type="line"/>
      <point x="147" y="365" type="line"/>
      <point x="503" y="365" type="line"/>
      <point x="503" y="367" type="line"/>
    </contour>
    <contour>
      <point x="322" y="680" type="move" name="top"/>
    </contour>
    <contour>
      <point x="227" y="0" type="move" name="bottom"/>
    </contour>
  </outline>
</glyph>
<glyph name="uni0373" format="1">
  <advance width="432"/>
  <unicode hex="0373"/>
  <outline>
    <contour>
      <point x="244" y="516" type="line"/>
      <point x="242" y="516" type="line"/>
      <point x="143" y="-191" type="line"/>
      <point x="145" y="-191" type="line"/>
    </contour>
    <contour>
      <point x="54" y="513"/>
      <point x="84" y="515"/>
      <point x="122" y="515" type="curve" smooth="yes"/>
      <point x="453" y="515" type="line"/>
      <point x="453" y="517" type="line"/>
      <point x="122" y="517" type="line" smooth="yes"/>
      <point x="83" y="517"/>
      <point x="54" y="515"/>
      <point x="35" y="509" type="curve"/>
      <point x="35" y="507" type="line"/>
    </contour>
    <contour>
      <point x="254" y="517" type="move" name="top"/>
    </contour>
  </outline>
</glyph>
<glyph name="tonos" format="1">
  <advance width="67"/>
  <unicode hex="0384"/>
  <outline>
    <contour>
      <point x="79" y="606" type="line"/>
      <point x="81" y="606" type="line"/>
      <point x="101" y="717" type="line"/>
      <point x="99" y="717" type="line"/>
    </contour>
    <contour>
      <point x="68" y="517" type="move" name="_top"/>
    </contour>
  </outline>
</glyph>
<glyph name="dieresistonos" format="1">
  <advance width="221"/>
  <unicode hex="0385"/>
  <outline>
    <contour>
      <point x="88" y="661"/>
      <point x="86" y="658"/>
      <point x="86" y="655" type="curve" smooth="yes"/>
      <point x="86" y="652"/>
      <point x="88" y="649"/>
      <point x="92" y="649" type="curve" smooth="yes"/>
      <point x="96" y="649"/>
      <point x="98" y="652"/>
      <point x="98" y="655" type="curve" smooth="yes"/>
      <point x="98" y="658"/>
      <point x="96" y="661"/>
      <point x="92" y="661" type="curve" smooth="yes"/>
    </contour>
    <contour>
      <point x="237" y="661"/>
      <point x="235" y="658"/>
      <point x="235" y="655" type="curve" smooth="yes"/>
      <point x="235" y="652"/>
      <point x="237" y="649"/>
      <point x="241" y="649" type="curve" smooth="yes"/>
      <point x="245" y="649"/>
      <point x="247" y="652"/>
      <point x="247" y="655" type="curve" smooth="yes"/>
      <point x="247" y="658"/>
      <point x="245" y="661"/>
      <point x="241" y="661" type="curve" smooth="yes"/>
    </contour>
    <contour>
      <point x="169" y="683" type="line"/>
      <point x="171" y="683" type="line"/>
      <point x="189" y="784" type="line"/>
      <point x="187" y="784" type="line"/>
    </contour>
    <contour>
      <point x="147" y="517" type="move" name="_top"/>
    </contour>
  </outline>
</glyph>
<glyph name="Theta" format="1">
  <advance width="687"/>
  <unicode hex="0398"/>
  <outline>
    <contour>
      <point x="217" y="351" type="line"/>
      <point x="217" y="349" type="line"/>
      <point x="496" y="349" type="line"/>
      <point x="496" y="351" type="line"/>
    </contour>
    <contour>
      <point x="169" y="690"/>
      <point x="90" y="418"/>
      <point x="90" y="251" type="curve" smooth="yes"/>
      <point x="90" y="86"/>
      <point x="169" y="-9"/>
      <point x="306" y="-9" type="curve" smooth="yes"/>
      <point x="551" y="-9"/>
      <point x="621" y="261"/>
      <point x="621" y="429" type="curve" smooth="yes"/>
      <point x="621" y="596"/>
      <point x="541" y="690"/>
      <point x="403" y="690" type="curve" smooth="yes"/>
    </contour>
    <contour>
      <point x="540" y="688"/>
      <point x="619" y="595"/>
      <point x="619" y="429" type="curve" smooth="yes"/>
      <point x="619" y="262"/>
      <point x="550" y="-7"/>
      <point x="306" y="-7" type="curve" smooth="yes"/>
      <point x="170" y="-7"/>
      <point x="92" y="87"/>
      <point x="92" y="251" type="curve" smooth="yes"/>
      <point x="92" y="417"/>
      <point x="170" y="688"/>
      <point x="403" y="688" type="curve" smooth="yes"/>
    </contour>
    <contour>
      <point x="403" y="680" type="move" name="top"/>
    </contour>
    <contour>
      <point x="307" y="0" type="move" name="bottom"/>
    </contour>
  </outline>
</glyph>
<glyph name="Phi" format="1">
  <advance width="749"/>
  <unicode hex="03A6"/>
  <outline>
    <contour>
      <point x="425" y="609" type="line"/>
      <point x="626" y="606"/>
      <point x="707" y="522"/>
      <point x="707" y="391" type="curve" smooth="yes"/>
      <point x="707" y="192"/>
      <point x="570" y="82"/>
      <point x="351" y="77" type="curve"/>
      <point x="350" y="75" type="line"/>
      <point x="570" y="80"/>
      <point x="709" y="191"/>
      <point x="709" y="391" type="curve" smooth="yes"/>
      <point x="709" y="523"/>
      <point x="628" y="608"/>
      <point x="424" y="611" type="curve"/>
    </contour>
    <contour>
      <point x="202" y="606"/>
      <point x="64" y="495"/>
      <point x="64" y="292" type="curve" smooth="yes"/>
      <point x="64" y="162"/>
      <point x="147" y="78"/>
      <point x="350" y="75" type="curve"/>
      <point x="349" y="77" type="line"/>
      <point x="149" y="80"/>
      <point x="66" y="163"/>
      <point x="66" y="292" type="curve" smooth="yes"/>
      <point x="66" y="494"/>
      <point x="202" y="604"/>
      <point x="423" y="609" type="curve"/>
      <point x="424" y="611" type="line"/>
    </contour>
    <contour>
      <point x="433" y="680" type="line"/>
      <point x="423" y="611" type="line"/>
      <point x="423" y="610" type="line"/>
      <point x="349" y="77" type="line"/>
      <point x="349" y="76" type="line"/>
      <point x="338" y="0" type="line"/>
      <point x="340" y="0" type="line"/>
      <point x="351" y="76" type="line"/>
      <point x="351" y="77" type="line"/>
      <point x="425" y="610" type="line"/>
      <point x="425" y="611" type="line"/>
      <point x="435" y="680" type="line"/>
    </contour>
    <contour>
      <point x="434" y="680" type="move" name="top"/>
    </contour>
    <contour>
      <point x="339" y="0" type="move" name="bottom"/>
    </contour>
  </outline>
</glyph>
<glyph name="beta" format="1">
  <advance width="569"/>
  <unicode hex="03B2"/>
  <outline>
    <contour>
      <point x="64" y="-189" type="line"/>
      <point x="104" y="89" type="line"/>
      <point x="138" y="20"/>
      <point x="199" y="-9"/>
      <point x="275" y="-9" type="curve" smooth="yes"/>
      <point x="435" y="-9"/>
      <point x="498" y="125"/>
      <point x="498" y="226" type="curve" smooth="yes"/>
      <point x="498" y="331"/>
      <point x="430" y="394"/>
      <point x="322" y="399" type="curve"/>
      <point x="445" y="406"/>
      <point x="506" y="495"/>
      <point x="506" y="592" type="curve" smooth="yes"/>
      <point x="506" y="686"/>
      <point x="443" y="733"/>
      <point x="364" y="733" type="curve" smooth="yes"/>
      <point x="262" y="733"/>
      <point x="183" y="669"/>
      <point x="165" y="541" type="curve" smooth="yes"/>
      <point x="62" y="-189" type="line"/>
    </contour>
    <contour>
      <point x="200" y="-7"/>
      <point x="139" y="21"/>
      <point x="104" y="93" type="curve"/>
      <point x="167" y="541" type="line" smooth="yes"/>
      <point x="184" y="668"/>
      <point x="263" y="731"/>
      <point x="364" y="731" type="curve" smooth="yes"/>
      <point x="442" y="731"/>
      <point x="504" y="685"/>
      <point x="504" y="592" type="curve" smooth="yes"/>
      <point x="504" y="496"/>
      <point x="441" y="400"/>
      <point x="305" y="400" type="curve" smooth="yes"/>
      <point x="238" y="400" type="line"/>
      <point x="237" y="398" type="line"/>
      <point x="304" y="398" type="line" smooth="yes"/>
      <point x="428" y="398"/>
      <point x="496" y="330"/>
      <point x="496" y="226" type="curve" smooth="yes"/>
      <point x="496" y="126"/>
      <point x="434" y="-7"/>
      <point x="275" y="-7" type="curve" smooth="yes"/>
    </contour>
    <contour>
      <point x="350" y="727" type="move" name="top"/>
    </contour>
  </outline>
</glyph>
<glyph name="lambda" format="1">
  <advance width="443"/>
  <unicode hex="03BB"/>
  <outline>
    <contour>
      <point x="154" y="730" type="line"/>
      <point x="249" y="701"/>
      <point x="261" y="636"/>
      <point x="270" y="517" type="curve"/>
      <point x="269" y="517" type="line"/>
      <point x="13" y="-2" type="line"/>
      <point x="15" y="-3" type="line"/>
      <point x="270" y="515" type="line"/>
      <point x="292" y="155"/>
      <point x="351" y="82"/>
      <point x="405" y="-1" type="curve"/>
      <point x="407" y="0" type="line"/>
      <point x="353" y="83"/>
      <point x="294" y="157"/>
      <point x="272" y="515" type="curve" smooth="yes"/>
      <point x="264" y="637"/>
      <point x="251" y="703"/>
      <point x="155" y="732" type="curve"/>
    </contour>
    <contour>
      <point x="287" y="727" type="move" name="top"/>
    </contour>
    <contour>
      <point x="185" y="0" type="move" name="bottom"/>
    </contour>
  </outline>
</glyph>
<glyph name="xi" format="1">
  <advance width="409"/>
  <unicode hex="03BE"/>
  <outline>
    <contour>
      <point x="291" y="-153"/>
      <point x="337" y="-114"/>
      <point x="337" y="-56" type="curve" smooth="yes"/>
      <point x="337" y="-7"/>
      <point x="308" y="13"/>
      <point x="203" y="54" type="curve" smooth="yes"/>
      <point x="114" y="89"/>
      <point x="69" y="125"/>
      <point x="69" y="229" type="curve"/>
      <point x="69" y="322"/>
      <point x="126" y="444"/>
      <point x="278" y="444" type="curve" smooth="yes"/>
      <point x="338" y="444" type="line"/>
      <point x="338" y="446" type="line"/>
      <point x="278" y="446" type="line" smooth="yes"/>
      <point x="197" y="446"/>
      <point x="154" y="493"/>
      <point x="154" y="565" type="curve" smooth="yes"/>
      <point x="154" y="643"/>
      <point x="204" y="732"/>
      <point x="330" y="732" type="curve"/>
      <point x="386" y="732"/>
      <point x="427" y="718"/>
      <point x="463" y="693" type="curve"/>
      <point x="464" y="695" type="line"/>
      <point x="428" y="720"/>
      <point x="386" y="734"/>
      <point x="330" y="734" type="curve"/>
      <point x="203" y="734"/>
      <point x="152" y="644"/>
      <point x="152" y="565" type="curve" smooth="yes"/>
      <point x="152" y="492"/>
      <point x="195" y="449"/>
      <point x="265" y="445" type="curve"/>
      <point x="124" y="440"/>
      <point x="67" y="323"/>
      <point x="67" y="229" type="curve"/>
      <point x="67" y="124"/>
      <point x="112" y="88"/>
      <point x="203" y="52" type="curve" smooth="yes"/>
      <point x="307" y="11"/>
      <point x="335" y="-7"/>
      <point x="335" y="-56" type="curve" smooth="yes"/>
      <point x="335" y="-113"/>
      <point x="290" y="-152"/>
      <point x="215" y="-188" type="curve"/>
      <point x="216" y="-190" type="line"/>
    </contour>
    <contour>
      <point x="270" y="727" type="move" name="top"/>
    </contour>
  </outline>
</glyph>
<glyph name="pi" format="1">
  <advance width="566"/>
  <unicode hex="03C0"/>
  <outline>
    <contour>
      <point x="114" y="0" type="line"/>
      <point x="186" y="515" type="line"/>
      <point x="184" y="515" type="line"/>
      <point x="112" y="0" type="line"/>
    </contour>
    <contour>
      <point x="444" y="-2" type="line"/>
      <point x="404" y="17"/>
      <point x="395" y="41"/>
      <point x="403" y="97" type="curve" smooth="yes"/>
      <point x="462" y="515" type="line"/>
      <point x="460" y="515" type="line"/>
      <point x="401" y="97" type="line" smooth="yes"/>
      <point x="393" y="39"/>
      <point x="402" y="16"/>
      <point x="443" y="-4" type="curve"/>
    </contour>
    <contour>
      <point x="109" y="513"/>
      <point x="138" y="515"/>
      <point x="185" y="515" type="curve"/>
      <point x="547" y="515" type="line"/>
      <point x="547" y="517" type="line"/>
      <point x="177" y="517" type="line" smooth="yes"/>
      <point x="138" y="517"/>
      <point x="109" y="515"/>
      <point x="90" y="509" type="curve"/>
      <point x="90" y="507" type="line"/>
    </contour>
    <contour>
      <point x="318" y="517" type="move" name="top"/>
    </contour>
    <contour>
      <point x="246" y="0" type="move" name="bottom"/>
    </contour>
  </outline>
</glyph>
<glyph name="tau" format="1">
  <advance width="411"/>
  <unicode hex="03C4"/>
  <outline>
    <contour>
      <point x="213" y="-2" type="line"/>
      <point x="173" y="17"/>
      <point x="164" y="41"/>
      <point x="172" y="97" type="curve" smooth="yes"/>
      <point x="231" y="516" type="line"/>
      <point x="229" y="516" type="line"/>
      <point x="170" y="97" type="line" smooth="yes"/>
      <point x="162" y="39"/>
      <point x="171" y="16"/>
      <point x="212" y="-4" type="curve"/>
    </contour>
    <contour>
      <point x="54" y="513"/>
      <point x="84" y="515"/>
      <point x="122" y="515" type="curve" smooth="yes"/>
      <point x="432" y="515" type="line"/>
      <point x="432" y="517" type="line"/>
      <point x="122" y="517" type="line" smooth="yes"/>
      <point x="83" y="517"/>
      <point x="54" y="515"/>
      <point x="35" y="509" type="curve"/>
      <point x="35" y="507" type="line"/>
    </contour>
    <contour>
      <point x="244" y="517" type="move" name="top"/>
    </contour>
    <contour>
      <point x="171" y="0" type="move" name="bottom"/>
    </contour>
  </outline>
</glyph>
<glyph name="chi" format="1">
  <advance width="386"/>
  <unicode hex="03C7"/>
  <outline>
    <contour>
      <point x="36" y="517" type="line"/>
      <point x="80" y="457"/>
      <point x="119" y="378"/>
      <point x="176" y="183" type="curve"/>
      <point x="177" y="181" type="line"/>
      <point x="306" y="-188" type="line"/>
      <point x="308" y="-188" type="line"/>
      <point x="179" y="182" type="line"/>
      <point x="178" y="184" type="line"/>
      <point x="122" y="378"/>
      <point x="82" y="458"/>
      <point x="38" y="518" type="curve"/>
    </contour>
    <contour>
      <point x="178" y="184" type="line"/>
      <point x="176" y="183" type="line"/>
      <point x="-56" y="-188" type="line"/>
      <point x="-54" y="-188" type="line"/>
      <point x="177" y="181" type="line"/>
      <point x="179" y="182" type="line"/>
      <point x="386" y="517" type="line"/>
      <point x="384" y="517" type="line"/>
    </contour>
    <contour>
      <point x="228" y="517" type="move" name="top"/>
    </contour>
  </outline>
</glyph>
<glyph name="psi" format="1">
  <advance width="734"/>
  <unicode hex="03C8"/>
  <outline>
    <contour>
      <point x="645" y="452"/>
      <point x="643" y="491"/>
      <point x="641" y="517" type="curve"/>
      <point x="639" y="517" type="line"/>
      <point x="641" y="491"/>
      <point x="643" y="452"/>
      <point x="643" y="422" type="curve" smooth="yes"/>
      <point x="643" y="191"/>
      <point x="599" y="-4"/>
      <point x="335" y="-7" type="curve"/>
      <point x="408" y="517" type="line"/>
      <point x="406" y="517" type="line"/>
      <point x="333" y="-7" type="line"/>
      <point x="166" y="-7"/>
      <point x="93" y="60"/>
      <point x="113" y="200" type="curve" smooth="yes"/>
      <point x="158" y="517" type="line"/>
      <point x="156" y="517" type="line"/>
      <point x="111" y="200" type="line" smooth="yes"/>
      <point x="91" y="58"/>
      <point x="166" y="-9"/>
      <point x="332" y="-9" type="curve"/>
      <point x="307" y="-191" type="line"/>
      <point x="309" y="-190" type="line"/>
      <point x="334" y="-9" type="line"/>
      <point x="600" y="-6"/>
      <point x="645" y="189"/>
      <point x="645" y="422" type="curve" smooth="yes"/>
    </contour>
    <contour>
      <point x="408" y="517" type="move" name="top"/>
    </contour>
  </outline>
</glyph>
<glyph name="uni03D1" format="1">
  <advance width="537"/>
  <unicode hex="03D1"/>
  <outline>
    <contour>
      <point x="404" y="-9"/>
      <point x="484" y="271"/>
      <point x="484" y="507" type="curve" smooth="yes"/>
      <point x="484" y="653"/>
      <point x="429" y="733"/>
      <point x="310" y="733" type="curve" smooth="yes"/>
      <point x="194" y="733"/>
      <point x="124" y="658"/>
      <point x="124" y="558" type="curve" smooth="yes"/>
      <point x="124" y="482"/>
      <point x="177" y="430"/>
      <point x="290" y="430" type="curve" smooth="yes"/>
      <point x="516" y="430" type="line"/>
      <point x="516" y="432" type="line"/>
      <point x="290" y="432" type="line" smooth="yes"/>
      <point x="178" y="432"/>
      <point x="126" y="483"/>
      <point x="126" y="558" type="curve" smooth="yes"/>
      <point x="126" y="657"/>
      <point x="195" y="731"/>
      <point x="310" y="731" type="curve" smooth="yes"/>
      <point x="428" y="731"/>
      <point x="482" y="652"/>
      <point x="482" y="507" type="curve" smooth="yes"/>
      <point x="482" y="274"/>
      <point x="403" y="-7"/>
      <point x="205" y="-7" type="curve"/>
      <point x="101" y="-7"/>
      <point x="73" y="76"/>
      <point x="84" y="154" type="curve" smooth="yes"/>
      <point x="110" y="332" type="line"/>
      <point x="108" y="332" type="line"/>
      <point x="82" y="154" type="line" smooth="yes"/>
      <point x="70" y="75"/>
      <point x="100" y="-9"/>
      <point x="205" y="-9" type="curve"/>
    </contour>
    <contour>
      <point x="335" y="727" type="move" name="top"/>
    </contour>
    <contour>
      <point x="233" y="0" type="move" name="bottom"/>
    </contour>
  </outline>
</glyph>
<glyph name="uni03D7" format="1">
  <advance width="578"/>
  <unicode hex="03D7"/>
  <outline>
    <contour>
      <point x="487" y="515" type="line"/>
      <point x="489" y="517" type="line"/>
      <point x="486" y="517" type="line"/>
      <point x="90" y="2" type="line"/>
      <point x="88" y="0" type="line"/>
      <point x="91" y="0" type="line"/>
    </contour>
    <contour>
      <point x="471" y="-2" type="line"/>
      <point x="431" y="17"/>
      <point x="422" y="41"/>
      <point x="430" y="97" type="curve" smooth="yes"/>
      <point x="489" y="517" type="line"/>
      <point x="487" y="515" type="line"/>
      <point x="467" y="376"/>
      <point x="447" y="236"/>
      <point x="428" y="97" type="curve" smooth="yes"/>
      <point x="420" y="39"/>
      <point x="429" y="16"/>
      <point x="470" y="-4" type="curve"/>
    </contour>
    <contour>
      <point x="410" y="-192"/>
      <point x="449" y="-161"/>
      <point x="458" y="-97" type="curve" smooth="yes"/>
      <point x="471" y="-2" type="line"/>
      <point x="469" y="-2" type="line"/>
      <point x="456" y="-97" type="line" smooth="yes"/>
      <point x="448" y="-159"/>
      <point x="409" y="-190"/>
      <point x="360" y="-190" type="curve" smooth="yes"/>
      <point x="323" y="-190"/>
      <point x="303" y="-178"/>
      <point x="286" y="-162" type="curve"/>
      <point x="285" y="-164" type="line"/>
      <point x="301" y="-179"/>
      <point x="322" y="-192"/>
      <point x="360" y="-192" type="curve" smooth="yes"/>
    </contour>
    <contour>
      <point x="106" y="517" type="line"/>
      <point x="146" y="498"/>
      <point x="155" y="476"/>
      <point x="147" y="420" type="curve" smooth="yes"/>
      <point x="88" y="0" type="line"/>
      <point x="90" y="2" type="line"/>
      <point x="110" y="141"/>
      <point x="129" y="281"/>
      <point x="149" y="420" type="curve" smooth="yes"/>
      <point x="157" y="478"/>
      <point x="148" y="499"/>
      <point x="107" y="519" type="curve"/>
    </contour>
    <contour>
      <point x="326" y="517" type="move" name="top"/>
    </contour>
  </outline>
</glyph>
<glyph name="uni03F9" format="1">
  <advance width="550"/>
  <unicode hex="03F9"/>
  <outline>
    <contour>
      <point x="166" y="690"/>
      <point x="91" y="429"/>
      <point x="91" y="253" type="curve" smooth="yes"/>
      <point x="91" y="83"/>
      <point x="173" y="-9"/>
      <point x="315" y="-9" type="curve" smooth="yes"/>
      <point x="407" y="-9"/>
      <point x="459" y="23"/>
      <point x="495" y="50" type="curve"/>
      <point x="494" y="52" type="line"/>
      <point x="458" y="25"/>
      <point x="406" y="-7"/>
      <point x="315" y="-7" type="curve" smooth="yes"/>
      <point x="175" y="-7"/>
      <point x="93" y="84"/>
      <point x="93" y="253" type="curve" smooth="yes"/>
      <point x="93" y="424"/>
      <point x="166" y="688"/>
      <point x="413" y="688" type="curve" smooth="yes"/>
      <point x="498" y="688"/>
      <point x="534" y="663"/>
      <point x="566" y="631" type="curve"/>
      <point x="567" y="633" type="line"/>
      <point x="537" y="664"/>
      <point x="497" y="690"/>
      <point x="413" y="690" type="curve" smooth="yes"/>
    </contour>
    <contour>
      <point x="357" y="341" type="move" name="center"/>
    </contour>
    <contour>
      <point x="244" y="0" type="move" name="bottom"/>
    </contour>
    <contour>
      <point x="339" y="680" type="move" name="top"/>
    </contour>
  </outline>
</glyph>
<glyph name="uni03FB" format="1">
  <advance width="643"/>
  <unicode hex="03FB"/>
  <outline>
    <contour>
      <point x="547" y="517" type="line"/>
      <point x="297" y="83" type="line"/>
      <point x="168" y="517" type="line"/>
      <point x="166" y="517" type="line"/>
      <point x="5" y="-191" type="line"/>
      <point x="7" y="-191" type="line"/>
      <point x="160" y="482" type="line"/>
      <point x="164" y="500"/>
      <point x="165" y="503"/>
      <point x="167" y="515" type="curve"/>
      <point x="295" y="81" type="line"/>
      <point x="298" y="81" type="line"/>
      <point x="548" y="515" type="line"/>
      <point x="546" y="499"/>
      <point x="546" y="493"/>
      <point x="545" y="478" type="curve"/>
      <point x="520" y="0" type="line"/>
      <point x="522" y="0" type="line"/>
      <point x="549" y="517" type="line"/>
    </contour>
    <contour>
      <point x="358" y="517" type="move" name="top"/>
    </contour>
  </outline>
</glyph>
<glyph name="uni0404" format="1">
  <advance width="549"/>
  <unicode hex="0404"/>
  <outline>
    <contour>
      <point x="387" y="-9"/>
      <point x="439" y="23"/>
      <point x="475" y="50" type="curve"/>
      <point x="474" y="52" type="line"/>
      <point x="438" y="25"/>
      <point x="386" y="-7"/>
      <point x="305" y="-7" type="curve" smooth="yes"/>
      <point x="175" y="-7"/>
      <point x="93" y="84"/>
      <point x="93" y="253" type="curve" smooth="yes"/>
      <point x="93" y="424"/>
      <point x="166" y="688"/>
      <point x="403" y="688" type="curve" smooth="yes"/>
      <point x="478" y="688"/>
      <point x="514" y="663"/>
      <point x="546" y="631" type="curve"/>
      <point x="547" y="633" type="line"/>
      <point x="517" y="664"/>
      <point x="477" y="690"/>
      <point x="403" y="690" type="curve" smooth="yes"/>
      <point x="166" y="690"/>
      <point x="91" y="429"/>
      <point x="91" y="253" type="curve" smooth="yes"/>
      <point x="91" y="83"/>
      <point x="173" y="-9"/>
      <point x="305" y="-9" type="curve" smooth="yes"/>
    </contour>
    <contour>
      <point x="386" y="356" type="line"/>
      <point x="386" y="358" type="line"/>
      <point x="100" y="358" type="line"/>
      <point x="100" y="356" type="line"/>
    </contour>
    <contour>
      <point x="334" y="680" type="move" name="top"/>
    </contour>
    <contour>
      <point x="238" y="0" type="move" name="bottom"/>
    </contour>
  </outline>
</glyph>
<glyph name="uni042A" format="1">
  <advance width="655"/>
  <unicode hex="042A"/>
  <outline>
    <contour>
      <point x="296" y="680" type="line"/>
      <point x="79" y="680" type="line"/>
      <point x="79" y="678" type="line"/>
      <point x="294" y="678" type="line"/>
    </contour>
    <component base="uni042C" xOffset="105"/>
  </outline>
</glyph>
<glyph name="uni042F" format="1">
  <advance width="580"/>
  <unicode hex="042F"/>
  <outline>
    <contour>
      <point x="248" y="312" type="line"/>
      <point x="29" y="0" type="line"/>
      <point x="32" y="0" type="line"/>
      <point x="250" y="312" type="line"/>
    </contour>
    <contour>
      <point x="249" y="311" type="line"/>
      <point x="457" y="311" type="line"/>
      <point x="457" y="313" type="line"/>
      <point x="253" y="313" type="line"/>
      <point x="172" y="313"/>
      <point x="102" y="364"/>
      <point x="102" y="459" type="curve" smooth="yes"/>
      <point x="102" y="562"/>
      <point x="162" y="678"/>
      <point x="370" y="678" type="curve" smooth="yes"/>
      <point x="507" y="678" type="line"/>
      <point x="412" y="0" type="line"/>
      <point x="414" y="0" type="line"/>
      <point x="509" y="680" type="line"/>
      <point x="370" y="680" type="line" smooth="yes"/>
      <point x="161" y="680"/>
      <point x="100" y="563"/>
      <point x="100" y="459" type="curve" smooth="yes"/>
      <point x="100" y="365"/>
      <point x="168" y="314"/>
      <point x="248" y="311" type="curve"/>
    </contour>
    <contour>
      <point x="349" y="680" type="move" name="top"/>
    </contour>
    <contour>
      <point x="254" y="0" type="move" name="bottom"/>
    </contour>
  </outline>
</glyph>
<glyph name="uni0432" format="1">
  <advance width="509"/>
  <unicode hex="0432"/>
  <outline>
    <contour>
      <point x="178" y="527"/>
      <point x="78" y="369"/>
      <point x="78" y="223" type="curve" smooth="yes"/>
      <point x="78" y="77"/>
      <point x="149" y="-9"/>
      <point x="264" y="-9" type="curve" smooth="yes"/>
      <point x="358" y="-9"/>
      <point x="445" y="46"/>
      <point x="445" y="160" type="curve" smooth="yes"/>
      <point x="445" y="240"/>
      <point x="384" y="277"/>
      <point x="320" y="291" type="curve"/>
      <point x="405" y="317"/>
      <point x="453" y="365"/>
      <point x="453" y="425" type="curve" smooth="yes"/>
      <point x="453" y="487"/>
      <point x="404" y="527"/>
      <point x="331" y="527" type="curve" smooth="yes"/>
    </contour>
    <contour>
      <point x="384" y="276"/>
      <point x="443" y="238"/>
      <point x="443" y="160" type="curve" smooth="yes"/>
      <point x="443" y="47"/>
      <point x="357" y="-7"/>
      <point x="264" y="-7" type="curve" smooth="yes"/>
      <point x="150" y="-7"/>
      <point x="80" y="78"/>
      <point x="80" y="223" type="curve" smooth="yes"/>
      <point x="80" y="236"/>
      <point x="80" y="239"/>
      <point x="82" y="260" type="curve"/>
      <point x="182" y="261"/>
      <point x="258" y="271"/>
      <point x="317" y="290" type="curve"/>
    </contour>
    <contour>
      <point x="403" y="525"/>
      <point x="451" y="486"/>
      <point x="451" y="425" type="curve" smooth="yes"/>
      <point x="451" y="330"/>
      <point x="333" y="263"/>
      <point x="82" y="262" type="curve"/>
      <point x="99" y="394"/>
      <point x="191" y="525"/>
      <point x="331" y="525" type="curve" smooth="yes"/>
    </contour>
  </outline>
</glyph>
<glyph name="uni0434" format="1">
  <advance width="547"/>
  <unicode hex="0434"/>
  <outline>
    <contour>
      <point x="399" y="-9"/>
      <point x="477" y="222"/>
      <point x="477" y="464" type="curve" smooth="yes"/>
      <point x="477" y="589"/>
      <point x="429" y="709"/>
      <point x="220" y="734" type="curve"/>
      <point x="219" y="732" type="line"/>
      <point x="427" y="708"/>
      <point x="475" y="588"/>
      <point x="475" y="464" type="curve" smooth="yes"/>
      <point x="475" y="432"/>
      <point x="473" y="394"/>
      <point x="470" y="357" type="curve"/>
      <point x="428" y="428"/>
      <point x="373" y="487"/>
      <point x="289" y="487" type="curve" smooth="yes"/>
      <point x="141" y="487"/>
      <point x="73" y="319"/>
      <point x="73" y="180" type="curve" smooth="yes"/>
      <point x="73" y="63"/>
      <point x="128" y="-9"/>
      <point x="228" y="-9" type="curve" smooth="yes"/>
    </contour>
    <contour>
      <point x="129" y="-7"/>
      <point x="75" y="64"/>
      <point x="75" y="180" type="curve" smooth="yes"/>
      <point x="75" y="318"/>
      <point x="142" y="485"/>
      <point x="289" y="485" type="curve" smooth="yes"/>
      <point x="372" y="485"/>
      <point x="428" y="425"/>
      <point x="469" y="354" type="curve"/>
      <point x="453" y="182"/>
      <point x="381" y="-7"/>
      <point x="228" y="-7" type="curve" smooth="yes"/>
    </contour>
    <contour>
      <point x="307" y="727" type="move" name="top"/>
    </contour>
  </outline>
</glyph>
<glyph name="uni0436" format="1">
  <advance width="697"/>
  <unicode hex="0436"/>
  <outline>
    <contour>
      <point x="620" y="510"/>
      <point x="589" y="497"/>
      <point x="552" y="427" type="curve" smooth="yes"/>
      <point x="471" y="278" type="line"/>
      <point x="358" y="278" type="line"/>
      <point x="392" y="517" type="line"/>
      <point x="390" y="517" type="line"/>
      <point x="356" y="278" type="line"/>
      <point x="249" y="278" type="line"/>
      <point x="174" y="450" type="line" smooth="yes"/>
      <point x="154" y="498"/>
      <point x="142" y="513"/>
      <point x="103" y="527" type="curve"/>
      <point x="103" y="525" type="line"/>
      <point x="140" y="511"/>
      <point x="150" y="501"/>
      <point x="172" y="450" type="curve" smooth="yes"/>
      <point x="247" y="277" type="line"/>
      <point x="38" y="0" type="line"/>
      <point x="41" y="0" type="line"/>
      <point x="249" y="276" type="line"/>
      <point x="356" y="276" type="line"/>
      <point x="317" y="0" type="line"/>
      <point x="319" y="0" type="line"/>
      <point x="358" y="276" type="line"/>
      <point x="471" y="276" type="line"/>
      <point x="593" y="0" type="line"/>
      <point x="595" y="0" type="line"/>
      <point x="473" y="277" type="line"/>
      <point x="554" y="427" type="line" smooth="yes"/>
      <point x="592" y="496"/>
      <point x="620" y="508"/>
      <point x="669" y="525" type="curve"/>
      <point x="669" y="527" type="line"/>
    </contour>
    <contour>
      <point x="390" y="517" type="move" name="top"/>
    </contour>
    <contour>
      <point x="312" y="0" type="move" name="bottom"/>
    </contour>
    <contour>
      <point x="603" y="0" type="move" name="bottomright"/>
    </contour>
  </outline>
</glyph>
<glyph name="uni043B" format="1">
  <advance width="554"/>
  <unicode hex="043B"/>
  <outline>
    <contour>
      <point x="204" y="517" type="line"/>
      <point x="155" y="285" type="line" smooth="yes"/>
      <point x="109" y="66"/>
      <point x="95" y="20"/>
      <point x="29" y="1" type="curve"/>
      <point x="29" y="-1" type="line"/>
      <point x="95" y="18"/>
      <point x="110" y="61"/>
      <point x="157" y="284" type="curve" smooth="yes"/>
      <point x="206" y="515" type="line"/>
      <point x="463" y="515" type="line"/>
      <point x="391" y="0" type="line"/>
      <point x="393" y="0" type="line"/>
      <point x="465" y="517" type="line"/>
    </contour>
    <contour>
      <point x="335" y="517" type="move" name="top"/>
    </contour>
    <contour>
      <point x="240" y="0" type="move" name="bottom"/>
    </contour>
    <contour>
      <point x="403" y="0" type="move" name="bottomright"/>
    </contour>
  </outline>
</glyph>
<glyph name="uni0444" format="1">
  <advance width="770"/>
  <unicode hex="0444"/>
  <outline>
    <contour>
      <point x="323" y="-190" type="line"/>
      <point x="363" y="90" type="line"/>
      <point x="396" y="27"/>
      <point x="429" y="-9"/>
      <point x="504" y="-9" type="curve" smooth="yes"/>
      <point x="657" y="-9"/>
      <point x="698" y="239"/>
      <point x="698" y="367" type="curve" smooth="yes"/>
      <point x="698" y="468"/>
      <point x="666" y="527"/>
      <point x="579" y="527" type="curve" smooth="yes"/>
      <point x="507" y="527"/>
      <point x="453" y="483"/>
      <point x="409" y="421" type="curve"/>
      <point x="452" y="730" type="line"/>
      <point x="450" y="730" type="line"/>
      <point x="407" y="421" type="line"/>
      <point x="379" y="490"/>
      <point x="342" y="527"/>
      <point x="277" y="527" type="curve" smooth="yes"/>
      <point x="122" y="527"/>
      <point x="75" y="307"/>
      <point x="75" y="181" type="curve" smooth="yes"/>
      <point x="75" y="63"/>
      <point x="117" y="-9"/>
      <point x="198" y="-9" type="curve" smooth="yes"/>
      <point x="264" y="-9"/>
      <point x="307" y="22"/>
      <point x="361" y="90" type="curve"/>
      <point x="321" y="-190" type="line"/>
    </contour>
    <contour>
      <point x="118" y="-7"/>
      <point x="77" y="64"/>
      <point x="77" y="181" type="curve" smooth="yes"/>
      <point x="77" y="306"/>
      <point x="124" y="525"/>
      <point x="277" y="525" type="curve" smooth="yes"/>
      <point x="343" y="525"/>
      <point x="379" y="486"/>
      <point x="406" y="417" type="curve"/>
      <point x="361" y="93" type="line"/>
      <point x="308" y="25"/>
      <point x="264" y="-7"/>
      <point x="198" y="-7" type="curve" smooth="yes"/>
    </contour>
    <contour>
      <point x="429" y="-7"/>
      <point x="397" y="29"/>
      <point x="363" y="93" type="curve"/>
      <point x="409" y="417" type="line"/>
      <point x="455" y="483"/>
      <point x="508" y="525"/>
      <point x="579" y="525" type="curve" smooth="yes"/>
      <point x="665" y="525"/>
      <point x="696" y="466"/>
      <point x="696" y="367" type="curve" smooth="yes"/>
      <point x="696" y="240"/>
      <point x="656" y="-7"/>
      <point x="504" y="-7" type="curve" smooth="yes"/>
    </contour>
    <contour>
      <point x="451" y="727" type="move" name="top"/>
    </contour>
  </outline>
</glyph>
<glyph name="uni044D" format="1">
  <advance width="471"/>
  <unicode hex="044D"/>
  <outline>
    <contour>
      <point x="325" y="-11"/>
      <point x="397" y="166"/>
      <point x="397" y="344" type="curve" smooth="yes"/>
      <point x="397" y="469"/>
      <point x="342" y="527"/>
      <point x="246" y="527" type="curve" smooth="yes"/>
      <point x="183" y="527"/>
      <point x="137" y="505"/>
      <point x="96" y="474" type="curve"/>
      <point x="96" y="472" type="line"/>
      <point x="138" y="503"/>
      <point x="183" y="525"/>
      <point x="246" y="525" type="curve" smooth="yes"/>
      <point x="341" y="525"/>
      <point x="395" y="468"/>
      <point x="395" y="344" type="curve" smooth="yes"/>
      <point x="395" y="322"/>
      <point x="394" y="297"/>
      <point x="391" y="269" type="curve"/>
      <point x="391" y="268" type="line"/>
      <point x="378" y="161"/>
      <point x="323" y="-9"/>
      <point x="168" y="-9" type="curve" smooth="yes"/>
      <point x="104" y="-9"/>
      <point x="61" y="19"/>
      <point x="32" y="51" type="curve"/>
      <point x="31" y="49" type="line"/>
      <point x="60" y="17"/>
      <point x="104" y="-11"/>
      <point x="168" y="-11" type="curve" smooth="yes"/>
    </contour>
    <contour>
      <point x="392" y="268" type="line"/>
      <point x="392" y="270" type="line"/>
      <point x="128" y="270" type="line"/>
      <point x="128" y="268" type="line"/>
    </contour>
    <contour>
      <point x="252" y="517" type="move" name="top"/>
    </contour>
    <contour>
      <point x="201" y="0" type="move" name="bottom"/>
    </contour>
  </outline>
</glyph>
<glyph name="uni044E" format="1">
  <advance width="733"/>
  <unicode hex="044E"/>
  <outline>
    <contour>
      <point x="276" y="266" type="line"/>
      <point x="128" y="266" type="line"/>
      <point x="163" y="517" type="line"/>
      <point x="161" y="517" type="line"/>
      <point x="89" y="0" type="line"/>
      <point x="91" y="0" type="line"/>
      <point x="128" y="264" type="line"/>
      <point x="275" y="264" type="line"/>
    </contour>
    <contour>
      <point x="600" y="-9"/>
      <point x="658" y="198"/>
      <point x="658" y="328" type="curve" smooth="yes"/>
      <point x="658" y="455"/>
      <point x="597" y="527"/>
      <point x="501" y="527" type="curve" smooth="yes"/>
      <point x="330" y="527"/>
      <point x="269" y="325"/>
      <point x="269" y="192" type="curve" smooth="yes"/>
      <point x="269" y="65"/>
      <point x="330" y="-9"/>
      <point x="427" y="-9" type="curve" smooth="yes"/>
    </contour>
    <contour>
      <point x="331" y="-7"/>
      <point x="271" y="66"/>
      <point x="271" y="192" type="curve" smooth="yes"/>
      <point x="271" y="324"/>
      <point x="331" y="525"/>
      <point x="501" y="525" type="curve" smooth="yes"/>
      <point x="596" y="525"/>
      <point x="656" y="454"/>
      <point x="656" y="328" type="curve" smooth="yes"/>
      <point x="656" y="199"/>
      <point x="599" y="-7"/>
      <point x="427" y="-7" type="curve" smooth="yes"/>
    </contour>
    <contour>
      <point x="402" y="517" type="move" name="top"/>
    </contour>
    <contour>
      <point x="329" y="0" type="move" name="bottom"/>
    </contour>
  </outline>
</glyph>
<glyph name="uni044F" format="1">
  <advance width="525"/>
  <unicode hex="044F"/>
  <outline>
    <contour>
      <point x="156" y="527"/>
      <point x="103" y="438"/>
      <point x="103" y="352" type="curve" smooth="yes"/>
      <point x="103" y="282"/>
      <point x="149" y="242"/>
      <point x="210" y="239" type="curve"/>
      <point x="39" y="0" type="line"/>
      <point x="41" y="0" type="line"/>
      <point x="212" y="239" type="line"/>
      <point x="396" y="239" type="line"/>
      <point x="362" y="0" type="line"/>
      <point x="364" y="0" type="line"/>
      <point x="436" y="512" type="line"/>
      <point x="400" y="521"/>
      <point x="358" y="527"/>
      <point x="312" y="527" type="curve" smooth="yes"/>
    </contour>
    <contour>
      <point x="358" y="525"/>
      <point x="399" y="519"/>
      <point x="434" y="511" type="curve"/>
      <point x="396" y="241" type="line"/>
      <point x="216" y="241" type="line" smooth="yes"/>
      <point x="151" y="241"/>
      <point x="105" y="283"/>
      <point x="105" y="352" type="curve" smooth="yes"/>
      <point x="105" y="437"/>
      <point x="157" y="525"/>
      <point x="312" y="525" type="curve" smooth="yes"/>
    </contour>
    <contour>
      <point x="299" y="517" type="move" name="top"/>
    </contour>
    <contour>
      <point x="224" y="0" type="move" name="bottom"/>
    </contour>
  </outline>
</glyph>
<glyph name="uni0452" format="1">
  <advance width="580"/>
  <unicode hex="0452"/>
  <outline>
    <contour>
      <point x="105" y="640" type="line"/>
      <point x="105" y="638" type="line"/>
      <point x="179" y="638" type="line"/>
      <point x="373" y="638" type="line"/>
      <point x="373" y="640" type="line"/>
    </contour>
    <contour>
      <point x="373" y="-154"/>
      <point x="408" y="-116"/>
      <point x="424" y="-1" type="curve" smooth="yes"/>
      <point x="427" y="23" type="line"/>
      <point x="425" y="23" type="line"/>
      <point x="422" y="-1" type="line" smooth="yes"/>
      <point x="406" y="-115"/>
      <point x="370" y="-153"/>
      <point x="297" y="-189" type="curve"/>
      <point x="298" y="-191" type="line"/>
    </contour>
    <contour>
      <point x="279" y="527"/>
      <point x="207" y="473"/>
      <point x="138" y="335" type="curve"/>
      <point x="193" y="730" type="line"/>
      <point x="191" y="730" type="line"/>
      <point x="89" y="0" type="line"/>
      <point x="91" y="0" type="line"/>
      <point x="137" y="329" type="line"/>
      <point x="208" y="471"/>
      <point x="279" y="525"/>
      <point x="365" y="525" type="curve" smooth="yes"/>
      <point x="457" y="525"/>
      <point x="488" y="466"/>
      <point x="474" y="368" type="curve" smooth="yes"/>
      <point x="425" y="23" type="line"/>
      <point x="427" y="23" type="line"/>
      <point x="476" y="368" type="line" smooth="yes"/>
      <point x="490" y="467"/>
      <point x="458" y="527"/>
      <point x="365" y="527" type="curve" smooth="yes"/>
    </contour>
    <contour>
      <point x="281" y="259" type="move" name="center"/>
    </contour>
    <contour>
      <point x="254" y="0" type="move" name="bottom"/>
    </contour>
    <contour>
      <point x="356" y="727" type="move" name="top"/>
    </contour>
  </outline>
</glyph>
<glyph name="uni0454" format="1">
  <advance width="474"/>
  <unicode hex="0454"/>
  <outline>
    <contour>
      <point x="83" y="267" type="line"/>
      <point x="361" y="267" type="line"/>
      <point x="361" y="269" type="line"/>
      <point x="83" y="269" type="line"/>
    </contour>
    <contour>
      <point x="160" y="527"/>
      <point x="76" y="364"/>
      <point x="76" y="194" type="curve" smooth="yes"/>
      <point x="76" y="62"/>
      <point x="143" y="-9"/>
      <point x="243" y="-9" type="curve" smooth="yes"/>
      <point x="304" y="-9"/>
      <point x="346" y="13"/>
      <point x="384" y="44" type="curve"/>
      <point x="383" y="45" type="line"/>
      <point x="344" y="14"/>
      <point x="302" y="-7"/>
      <point x="243" y="-7" type="curve" smooth="yes"/>
      <point x="144" y="-7"/>
      <point x="78" y="63"/>
      <point x="78" y="194" type="curve" smooth="yes"/>
      <point x="78" y="363"/>
      <point x="161" y="525"/>
      <point x="319" y="525" type="curve" smooth="yes"/>
      <point x="370" y="525"/>
      <point x="408" y="509"/>
      <point x="439" y="476" type="curve"/>
      <point x="441" y="477" type="line"/>
      <point x="410" y="510"/>
      <point x="372" y="527"/>
      <point x="319" y="527" type="curve" smooth="yes"/>
    </contour>
    <contour>
      <point x="274" y="517" type="move" name="top"/>
    </contour>
    <contour>
      <point x="201" y="0" type="move" name="bottom"/>
    </contour>
  </outline>
</glyph>
<glyph name="uni0459" format="1">
  <advance width="785"/>
  <unicode hex="0459"/>
  <outline>
    <contour>
      <point x="100" y="18"/>
      <point x="115" y="61"/>
      <point x="162" y="284" type="curve" smooth="yes"/>
      <point x="211" y="515" type="line"/>
      <point x="464" y="515" type="line"/>
      <point x="466" y="517" type="line"/>
      <point x="209" y="517" type="line"/>
      <point x="160" y="285" type="line" smooth="yes"/>
      <point x="114" y="66"/>
      <point x="100" y="20"/>
      <point x="29" y="1" type="curve"/>
      <point x="29" y="-1" type="line"/>
    </contour>
    <contour>
      <point x="672" y="-6"/>
      <point x="720" y="104"/>
      <point x="720" y="194" type="curve" smooth="yes"/>
      <point x="720" y="273"/>
      <point x="673" y="328"/>
      <point x="553" y="328" type="curve" smooth="yes"/>
      <point x="439" y="328" type="line"/>
      <point x="439" y="326" type="line"/>
      <point x="553" y="326" type="line" smooth="yes"/>
      <point x="672" y="326"/>
      <point x="718" y="272"/>
      <point x="718" y="194" type="curve" smooth="yes"/>
      <point x="718" y="105"/>
      <point x="671" y="-4"/>
      <point x="524" y="-7" type="curve" smooth="yes"/>
      <point x="481" y="-8"/>
      <point x="439" y="0"/>
      <point x="396" y="16" type="curve"/>
      <point x="466" y="517" type="line"/>
      <point x="464" y="517" type="line"/>
      <point x="394" y="15" type="line"/>
      <point x="439" y="-2"/>
      <point x="480" y="-10"/>
      <point x="524" y="-9" type="curve" smooth="yes"/>
    </contour>
    <contour>
      <point x="428" y="517" type="move" name="top"/>
    </contour>
    <contour>
      <point x="356" y="0" type="move" name="bottom"/>
    </contour>
  </outline>
</glyph>
<glyph name="uni046B" format="1">
  <advance width="644"/>
  <unicode hex="046B"/>
  <outline>
    <contour>
      <point x="31" y="0" type="line"/>
      <point x="208" y="276" type="line"/>
      <point x="324" y="276" type="line"/>
      <point x="285" y="0" type="line"/>
      <point x="287" y="0" type="line"/>
      <point x="326" y="276" type="line"/>
      <point x="442" y="276" type="line"/>
      <point x="541" y="0" type="line"/>
      <point x="543" y="0" type="line"/>
      <point x="443" y="278" type="line"/>
      <point x="207" y="278" type="line"/>
      <point x="29" y="0" type="line"/>
    </contour>
    <contour>
      <point x="326" y="276" type="line"/>
      <point x="529" y="515" type="line"/>
      <point x="529" y="517" type="line"/>
      <point x="527" y="515" type="line"/>
      <point x="325" y="278" type="line"/>
      <point x="176" y="515" type="line"/>
      <point x="174" y="517" type="line"/>
      <point x="174" y="515" type="line"/>
      <point x="324" y="276" type="line"/>
    </contour>
    <contour>
      <point x="529" y="515" type="line"/>
      <point x="529" y="517" type="line"/>
      <point x="174" y="517" type="line"/>
      <point x="175" y="515" type="line"/>
    </contour>
    <contour>
      <point x="358" y="517" type="move" name="top"/>
    </contour>
    <contour>
      <point x="286" y="0" type="move" name="bottom"/>
    </contour>
  </outline>
</glyph>
<glyph name="uni048C" format="1">
  <advance width="555"/>
  <unicode hex="048C"/>
  <outline>
    <contour>
      <point x="194" y="680" type="line"/>
      <point x="99" y="0" type="line"/>
      <point x="249" y="0" type="line" smooth="yes"/>
      <point x="433" y="0"/>
      <point x="490" y="137"/>
      <point x="490" y="240" type="curve" smooth="yes"/>
      <point x="490" y="344"/>
      <point x="423" y="399"/>
      <point x="300" y="399" type="curve" smooth="yes"/>
      <point x="156" y="399" type="line"/>
      <point x="156" y="397" type="line"/>
      <point x="300" y="397" type="line" smooth="yes"/>
      <point x="422" y="397"/>
      <point x="488" y="342"/>
      <point x="488" y="240" type="curve" smooth="yes"/>
      <point x="488" y="138"/>
      <point x="432" y="2"/>
      <point x="249" y="2" type="curve" smooth="yes"/>
      <point x="101" y="2" type="line"/>
      <point x="196" y="680" type="line"/>
    </contour>
    <contour>
      <point x="355" y="560" type="line"/>
      <point x="355" y="562" type="line"/>
      <point x="177" y="562" type="line"/>
      <point x="83" y="562" type="line"/>
      <point x="83" y="560" type="line"/>
    </contour>
    <contour>
      <point x="195" y="680" type="move" name="top"/>
    </contour>
    <contour>
      <point x="246" y="0" type="move" name="bottom"/>
    </contour>
  </outline>
</glyph>
<glyph name="uni0490" format="1">
  <advance width="521"/>
  <unicode hex="0490"/>
  <outline>
    <contour>
      <point x="560" y="680" type="line"/>
      <point x="574" y="777" type="line"/>
      <point x="572" y="777" type="line"/>
      <point x="558" y="679" type="line"/>
    </contour>
    <component base="uni0413"/>
  </outline>
</glyph>
<glyph name="uni0493" format="1">
  <advance width="456"/>
  <unicode hex="0493"/>
  <outline>
    <contour>
      <point x="266" y="-9"/>
      <point x="326" y="19"/>
      <point x="372" y="57" type="curve"/>
      <point x="371" y="59" type="line"/>
      <point x="325" y="21"/>
      <point x="266" y="-7"/>
      <point x="190" y="-7" type="curve" smooth="yes"/>
      <point x="105" y="-7"/>
      <point x="51" y="37"/>
      <point x="51" y="105" type="curve" smooth="yes"/>
      <point x="51" y="187"/>
      <point x="97" y="236"/>
      <point x="224" y="273" type="curve"/>
      <point x="226" y="274" type="line"/>
      <point x="373" y="315"/>
      <point x="392" y="364"/>
      <point x="392" y="423" type="curve" smooth="yes"/>
      <point x="392" y="484"/>
      <point x="344" y="527"/>
      <point x="270" y="527" type="curve" smooth="yes"/>
      <point x="207" y="527"/>
      <point x="160" y="509"/>
      <point x="115" y="475" type="curve"/>
      <point x="115" y="473" type="line"/>
      <point x="162" y="508"/>
      <point x="208" y="525"/>
      <point x="270" y="525" type="curve" smooth="yes"/>
      <point x="343" y="525"/>
      <point x="390" y="483"/>
      <point x="390" y="423" type="curve" smooth="yes"/>
      <point x="390" y="365"/>
      <point x="372" y="317"/>
      <point x="222" y="275" type="curve"/>
      <point x="220" y="274" type="line"/>
      <point x="95" y="237"/>
      <point x="49" y="188"/>
      <point x="49" y="105" type="curve" smooth="yes"/>
      <point x="49" y="36"/>
      <point x="104" y="-9"/>
      <point x="190" y="-9" type="curve" smooth="yes"/>
    </contour>
    <contour>
      <point x="356" y="236" type="line"/>
      <point x="223" y="275" type="line"/>
      <point x="222" y="275" type="line"/>
      <point x="95" y="313" type="line"/>
      <point x="94" y="311" type="line"/>
      <point x="222" y="273" type="line"/>
      <point x="223" y="273" type="line"/>
      <point x="355" y="234" type="line"/>
    </contour>
  </outline>
</glyph>
<glyph name="uni049F" format="1">
  <advance width="494"/>
  <unicode hex="049F"/>
  <outline>
    <contour>
      <point x="92" y="0" type="line"/>
      <point x="131" y="277" type="line"/>
      <point x="237" y="277" type="line"/>
      <point x="390" y="0" type="line"/>
      <point x="393" y="0" type="line"/>
      <point x="239" y="278" type="line"/>
      <point x="348" y="434" type="line" smooth="yes"/>
      <point x="386" y="489"/>
      <point x="416" y="518"/>
      <point x="451" y="525" type="curve"/>
      <point x="450" y="527" type="line"/>
      <point x="414" y="519"/>
      <point x="385" y="491"/>
      <point x="347" y="436" type="curve" smooth="yes"/>
      <point x="237" y="279" type="line"/>
      <point x="131" y="279" type="line"/>
      <point x="194" y="730" type="line"/>
      <point x="192" y="730" type="line"/>
      <point x="90" y="0" type="line"/>
    </contour>
    <contour>
      <point x="175" y="608" type="line"/>
      <point x="368" y="608" type="line"/>
      <point x="368" y="610" type="line"/>
      <point x="100" y="610" type="line"/>
      <point x="100" y="608" type="line"/>
    </contour>
  </outline>
</glyph>
<glyph name="uni04A0" format="1">
  <advance width="641"/>
  <unicode hex="04A0"/>
  <outline>
    <contour>
      <point x="296" y="680" type="line"/>
      <point x="79" y="680" type="line"/>
      <point x="79" y="678" type="line"/>
      <point x="294" y="678" type="line"/>
    </contour>
    <component base="uni041A" xOffset="105"/>
  </outline>
</glyph>
<glyph name="uni04A5" format="1">
  <advance width="656"/>
  <unicode hex="04A5"/>
  <outline>
    <contour>
      <point x="488" y="515" type="line"/>
      <point x="677" y="515" type="line"/>
      <point x="677" y="517" type="line"/>
      <point x="487" y="517" type="line"/>
    </contour>
    <component base="uni043D"/>
  </outline>
</glyph>
<glyph name="uni04B0" format="1">
  <advance width="479"/>
  <unicode hex="04B0"/>
  <outline>
    <contour>
      <point x="240" y="272" type="line"/>
      <point x="122" y="272" type="line"/>
      <point x="122" y="270" type="line"/>
      <point x="242" y="270" type="line"/>
      <point x="360" y="270" type="line"/>
      <point x="360" y="272" type="line"/>
    </contour>
    <component base="Y"/>
  </outline>
</glyph>
<glyph name="uni04B5" format="1">
  <advance width="622"/>
  <unicode hex="04B5"/>
  <outline>
    <contour>
      <point x="36" y="517" type="line"/>
      <point x="36" y="515" type="line"/>
      <point x="203" y="515" type="line"/>
      <point x="205" y="515" type="line"/>
      <point x="393" y="515" type="line"/>
      <point x="393" y="517" type="line"/>
    </contour>
    <contour>
      <point x="357" y="-9"/>
      <point x="433" y="52"/>
      <point x="483" y="167" type="curve"/>
      <point x="459" y="0" type="line"/>
      <point x="461" y="0" type="line"/>
      <point x="533" y="517" type="line"/>
      <point x="531" y="517" type="line"/>
      <point x="483" y="171" type="line"/>
      <point x="433" y="55"/>
      <point x="358" y="-7"/>
      <point x="271" y="-7" type="curve" smooth="yes"/>
      <point x="185" y="-7"/>
      <point x="140" y="48"/>
      <point x="154" y="150" type="curve" smooth="yes"/>
      <point x="205" y="517" type="line"/>
      <point x="203" y="517" type="line"/>
      <point x="152" y="150" type="line" smooth="yes"/>
      <point x="138" y="46"/>
      <point x="184" y="-9"/>
      <point x="271" y="-9" type="curve" smooth="yes"/>
    </contour>
    <component base="descStraightcy" xOffset="487"/>
    <contour>
      <point x="471" y="0" type="move" name="ogonek"/>
    </contour>
    <contour>
      <point x="352" y="517" type="move" name="top"/>
    </contour>
    <contour>
      <point x="544" y="517" type="move" name="topright"/>
    </contour>
    <contour>
      <point x="471" y="0" type="move" name="bottomright"/>
    </contour>
    <contour>
      <point x="298" y="0" type="move" name="bottom"/>
    </contour>
  </outline>
</glyph>
<glyph name="uni04B9" format="1">
  <advance width="520"/>
  <unicode hex="04B9"/>
  <outline>
    <contour>
      <point x="239" y="368" type="line"/>
      <point x="200" y="101" type="line"/>
      <point x="202" y="101" type="line"/>
      <point x="241" y="368" type="line"/>
    </contour>
    <contour>
      <point x="429" y="517" type="line"/>
      <point x="399" y="301" type="line"/>
      <point x="354" y="246"/>
      <point x="295" y="192"/>
      <point x="204" y="192" type="curve" smooth="yes"/>
      <point x="119" y="192"/>
      <point x="75" y="239"/>
      <point x="87" y="327" type="curve" smooth="yes"/>
      <point x="113" y="517" type="line"/>
      <point x="111" y="517" type="line"/>
      <point x="85" y="327" type="line" smooth="yes"/>
      <point x="73" y="238"/>
      <point x="118" y="190"/>
      <point x="204" y="190" type="curve" smooth="yes"/>
      <point x="295" y="190"/>
      <point x="355" y="244"/>
      <point x="399" y="299" type="curve"/>
      <point x="357" y="0" type="line"/>
      <point x="359" y="0" type="line"/>
      <point x="431" y="517" type="line"/>
    </contour>
    <contour>
      <point x="271" y="517" type="move" name="top"/>
    </contour>
    <contour>
      <point x="329" y="0" type="move" name="bottomleft"/>
    </contour>
    <contour>
      <point x="369" y="0" type="move" name="bottomright"/>
    </contour>
    <contour>
      <point x="224" y="0" type="move" name="bottom"/>
    </contour>
  </outline>
</glyph>
<glyph name="uni04E9" format="1">
  <advance width="559"/>
  <unicode hex="04E9"/>
  <outline>
    <contour>
      <point x="478" y="262" type="line"/>
      <point x="81" y="262" type="line"/>
      <point x="81" y="260" type="line"/>
      <point x="478" y="260" type="line"/>
    </contour>
    <contour>
      <point x="426" y="-9"/>
      <point x="484" y="198"/>
      <point x="484" y="328" type="curve" smooth="yes"/>
      <point x="484" y="455"/>
      <point x="423" y="527"/>
      <point x="318" y="527" type="curve" smooth="yes"/>
      <point x="136" y="527"/>
      <point x="75" y="325"/>
      <point x="75" y="192" type="curve" smooth="yes"/>
      <point x="75" y="65"/>
      <point x="136" y="-9"/>
      <point x="242" y="-9" type="curve" smooth="yes"/>
    </contour>
    <contour>
      <point x="137" y="-7"/>
      <point x="77" y="66"/>
      <point x="77" y="192" type="curve" smooth="yes"/>
      <point x="77" y="324"/>
      <point x="137" y="525"/>
      <point x="318" y="525" type="curve" smooth="yes"/>
      <point x="422" y="525"/>
      <point x="482" y="454"/>
      <point x="482" y="328" type="curve" smooth="yes"/>
      <point x="482" y="199"/>
      <point x="425" y="-7"/>
      <point x="242" y="-7" type="curve" smooth="yes"/>
    </contour>
    <contour>
      <point x="316" y="517" type="move" name="top"/>
    </contour>
    <contour>
      <point x="241" y="0" type="move" name="bottom"/>
    </contour>
  </outline>
</glyph>
<glyph name="uni04FF" format="1">
  <advance width="424"/>
  <unicode hex="04FF"/>
  <outline>
    <contour>
      <point x="-9" y="0" type="line"/>
      <point x="213" y="277" type="line"/>
      <point x="214" y="278" type="line"/>
      <point x="408" y="517" type="line"/>
      <point x="406" y="517" type="line"/>
      <point x="213" y="279" type="line"/>
      <point x="212" y="278" type="line"/>
      <point x="-11" y="0" type="line"/>
    </contour>
    <contour>
      <point x="363" y="0" type="line"/>
      <point x="214" y="278" type="line"/>
      <point x="213" y="279" type="line"/>
      <point x="90" y="517" type="line"/>
      <point x="88" y="517" type="line"/>
      <point x="212" y="278" type="line"/>
      <point x="213" y="277" type="line"/>
      <point x="361" y="0" type="line"/>
    </contour>
    <contour>
      <point x="366" y="277" type="line"/>
      <point x="366" y="279" type="line"/>
      <point x="67" y="279" type="line"/>
      <point x="67" y="277" type="line"/>
    </contour>
    <contour>
      <point x="248" y="517" type="move" name="top"/>
    </contour>
    <contour>
      <point x="176" y="0" type="move" name="bottom"/>
    </contour>
    <contour>
      <point x="371" y="0" type="move" name="bottomright"/>
    </contour>
  </outline>
</glyph>
<glyph name="uni0500" format="1">
  <advance width="552"/>
  <unicode hex="0500"/>
  <outline>
    <contour>
      <point x="384" y="2" type="line"/>
      <point x="238" y="2" type="line" smooth="yes"/>
      <point x="125" y="2"/>
      <point x="53" y="53"/>
      <point x="53" y="177" type="curve" smooth="yes"/>
      <point x="53" y="302"/>
      <point x="150" y="397"/>
      <point x="303" y="397" type="curve" smooth="yes"/>
      <point x="441" y="397" type="line"/>
      <point x="441" y="399" type="line"/>
      <point x="303" y="399" type="line" smooth="yes"/>
      <point x="149" y="399"/>
      <point x="51" y="304"/>
      <point x="51" y="177" type="curve" smooth="yes"/>
      <point x="51" y="52"/>
      <point x="124" y="0"/>
      <point x="238" y="0" type="curve" smooth="yes"/>
      <point x="386" y="0" type="line"/>
      <point x="481" y="680" type="line"/>
      <point x="479" y="680" type="line"/>
    </contour>
    <contour>
      <point x="336" y="680" type="move" name="top"/>
    </contour>
    <contour>
      <point x="240" y="0" type="move" name="bottom"/>
    </contour>
  </outline>
</glyph>
<glyph name="uni0502" format="1">
  <advance width="832"/>
  <unicode hex="0502"/>
  <outline>
    <contour>
      <point x="288" y="-9"/>
      <point x="357" y="41"/>
      <point x="403" y="146" type="curve"/>
      <point x="389" y="49"/>
      <point x="439" y="-9"/>
      <point x="527" y="-9" type="curve" smooth="yes"/>
      <point x="683" y="-9"/>
      <point x="757" y="164"/>
      <point x="763" y="379" type="curve"/>
      <point x="761" y="379" type="line"/>
      <point x="755" y="165"/>
      <point x="682" y="-7"/>
      <point x="527" y="-7" type="curve" smooth="yes"/>
      <point x="440" y="-7"/>
      <point x="391" y="50"/>
      <point x="405" y="148" type="curve" smooth="yes"/>
      <point x="480" y="680" type="line"/>
      <point x="478" y="680" type="line"/>
      <point x="404" y="154" type="line"/>
      <point x="359" y="44"/>
      <point x="288" y="-7"/>
      <point x="199" y="-7" type="curve" smooth="yes"/>
      <point x="115" y="-7"/>
      <point x="51" y="47"/>
      <point x="51" y="162" type="curve" smooth="yes"/>
      <point x="51" y="300"/>
      <point x="144" y="397"/>
      <point x="302" y="397" type="curve" smooth="yes"/>
      <point x="440" y="397" type="line"/>
      <point x="440" y="399" type="line"/>
      <point x="302" y="399" type="line" smooth="yes"/>
      <point x="146" y="399"/>
      <point x="49" y="304"/>
      <point x="49" y="162" type="curve" smooth="yes"/>
      <point x="49" y="46"/>
      <point x="114" y="-9"/>
      <point x="199" y="-9" type="curve" smooth="yes"/>
    </contour>
    <contour>
      <point x="476" y="680" type="move" name="top"/>
    </contour>
    <contour>
      <point x="380" y="0" type="move" name="bottom"/>
    </contour>
  </outline>
</glyph>
<glyph name="uni0503" format="1">
  <advance width="852"/>
  <unicode hex="0503"/>
  <outline>
    <contour>
      <point x="320" y="-9"/>
      <point x="379" y="65"/>
      <point x="424" y="149" type="curve"/>
      <point x="424" y="152" type="line"/>
      <point x="377" y="67"/>
      <point x="320" y="-7"/>
      <point x="223" y="-7" type="curve" smooth="yes"/>
      <point x="134" y="-7"/>
      <point x="76" y="62"/>
      <point x="76" y="182" type="curve" smooth="yes"/>
      <point x="76" y="314"/>
      <point x="134" y="525"/>
      <point x="312" y="525" type="curve" smooth="yes"/>
      <point x="397" y="525"/>
      <point x="442" y="474"/>
      <point x="462" y="420" type="curve"/>
      <point x="423" y="148" type="line"/>
      <point x="409" y="49"/>
      <point x="459" y="-9"/>
      <point x="547" y="-9" type="curve" smooth="yes"/>
      <point x="703" y="-9"/>
      <point x="777" y="164"/>
      <point x="783" y="379" type="curve"/>
      <point x="781" y="379" type="line"/>
      <point x="775" y="165"/>
      <point x="702" y="-7"/>
      <point x="547" y="-7" type="curve" smooth="yes"/>
      <point x="460" y="-7"/>
      <point x="411" y="50"/>
      <point x="425" y="148" type="curve" smooth="yes"/>
      <point x="507" y="730" type="line"/>
      <point x="505" y="730" type="line"/>
      <point x="462" y="424" type="line"/>
      <point x="444" y="473"/>
      <point x="398" y="527"/>
      <point x="312" y="527" type="curve" smooth="yes"/>
      <point x="133" y="527"/>
      <point x="74" y="315"/>
      <point x="74" y="182" type="curve" smooth="yes"/>
      <point x="74" y="61"/>
      <point x="133" y="-9"/>
      <point x="223" y="-9" type="curve" smooth="yes"/>
    </contour>
    <contour>
      <point x="489" y="727" type="move" name="top"/>
    </contour>
    <contour>
      <point x="387" y="0" type="move" name="bottom"/>
    </contour>
  </outline>
</glyph>
<glyph name="uni0504" format="1">
  <advance width="751"/>
  <unicode hex="0504"/>
  <outline>
    <contour>
      <point x="601" y="-9"/>
      <point x="675" y="144"/>
      <point x="681" y="379" type="curve"/>
      <point x="679" y="379" type="line"/>
      <point x="673" y="145"/>
      <point x="600" y="-7"/>
      <point x="481" y="-7" type="curve"/>
      <point x="406" y="-7"/>
      <point x="372" y="37"/>
      <point x="322" y="152" type="curve" smooth="yes"/>
      <point x="243" y="335" type="line"/>
      <point x="241" y="335" type="line"/>
      <point x="319" y="153" type="line" smooth="yes"/>
      <point x="370" y="37"/>
      <point x="405" y="-9"/>
      <point x="481" y="-9" type="curve"/>
    </contour>
    <contour>
      <point x="368" y="334"/>
      <point x="438" y="430"/>
      <point x="438" y="533" type="curve" smooth="yes"/>
      <point x="438" y="622"/>
      <point x="387" y="680"/>
      <point x="245" y="680" type="curve" smooth="yes"/>
      <point x="129" y="680" type="line"/>
      <point x="130" y="678" type="line"/>
      <point x="245" y="678" type="line" smooth="yes"/>
      <point x="386" y="678"/>
      <point x="436" y="621"/>
      <point x="436" y="533" type="curve" smooth="yes"/>
      <point x="436" y="431"/>
      <point x="367" y="336"/>
      <point x="236" y="336" type="curve" smooth="yes"/>
      <point x="111" y="336" type="line"/>
      <point x="111" y="334" type="line"/>
      <point x="236" y="334" type="line"/>
    </contour>
    <contour>
      <point x="429" y="680" type="move" name="top"/>
    </contour>
    <contour>
      <point x="334" y="0" type="move" name="bottom"/>
    </contour>
  </outline>
</glyph>
<glyph name="uni0505" format="1">
  <advance width="682"/>
  <unicode hex="0505"/>
  <outline>
    <contour>
      <point x="534" y="-9"/>
      <point x="607" y="164"/>
      <point x="613" y="379" type="curve"/>
      <point x="611" y="379" type="line"/>
      <point x="605" y="165"/>
      <point x="533" y="-7"/>
      <point x="400" y="-7" type="curve" smooth="yes"/>
      <point x="333" y="-7"/>
      <point x="297" y="29"/>
      <point x="264" y="98" type="curve" smooth="yes"/>
      <point x="192" y="251" type="line"/>
      <point x="190" y="251" type="line"/>
      <point x="262" y="98" type="line" smooth="yes"/>
      <point x="295" y="28"/>
      <point x="332" y="-9"/>
      <point x="400" y="-9" type="curve" smooth="yes"/>
    </contour>
    <contour>
      <point x="192" y="250" type="line"/>
      <point x="262" y="252"/>
      <point x="349" y="295"/>
      <point x="349" y="403" type="curve" smooth="yes"/>
      <point x="349" y="476"/>
      <point x="307" y="517"/>
      <point x="189" y="517" type="curve" smooth="yes"/>
      <point x="101" y="517" type="line"/>
      <point x="101" y="515" type="line"/>
      <point x="189" y="515" type="line" smooth="yes"/>
      <point x="306" y="515"/>
      <point x="347" y="475"/>
      <point x="347" y="403" type="curve" smooth="yes"/>
      <point x="347" y="296"/>
      <point x="260" y="252"/>
      <point x="186" y="252" type="curve" smooth="yes"/>
      <point x="85" y="252" type="line"/>
      <point x="85" y="250" type="line"/>
    </contour>
    <contour>
      <point x="375" y="517" type="move" name="top"/>
    </contour>
    <contour>
      <point x="302" y="0" type="move" name="bottom"/>
    </contour>
  </outline>
</glyph>
<glyph name="uni0506" format="1">
  <advance width="468"/>
  <unicode hex="0506"/>
  <outline>
    <contour>
      <point x="129" y="680" type="line"/>
      <point x="129" y="678" type="line"/>
      <point x="247" y="678" type="line" smooth="yes"/>
      <point x="388" y="678"/>
      <point x="438" y="621"/>
      <point x="438" y="533" type="curve" smooth="yes"/>
      <point x="438" y="431"/>
      <point x="369" y="336"/>
      <point x="238" y="336" type="curve" smooth="yes"/>
      <point x="113" y="336" type="line"/>
      <point x="113" y="334" type="line"/>
      <point x="238" y="334" type="line"/>
      <point x="370" y="334"/>
      <point x="440" y="430"/>
      <point x="440" y="533" type="curve" smooth="yes"/>
      <point x="440" y="622"/>
      <point x="389" y="680"/>
      <point x="247" y="680" type="curve" smooth="yes"/>
    </contour>
    <contour>
      <point x="243" y="335" type="line"/>
      <point x="388" y="0" type="line"/>
      <point x="391" y="0" type="line"/>
      <point x="245" y="335" type="line"/>
    </contour>
    <component base="descStraightcy.case" xOffset="413"/>
    <contour>
      <point x="288" y="680" type="move" name="top"/>
    </contour>
  </outline>
</glyph>
<glyph name="uni0507" format="1">
  <advance width="417"/>
  <unicode hex="0507"/>
  <outline>
    <contour>
      <point x="190" y="251" type="line"/>
      <point x="311" y="0" type="line"/>
      <point x="314" y="0" type="line"/>
      <point x="193" y="251" type="line"/>
    </contour>
    <contour>
      <point x="192" y="250" type="line"/>
      <point x="261" y="252"/>
      <point x="349" y="297"/>
      <point x="349" y="403" type="curve" smooth="yes"/>
      <point x="349" y="476"/>
      <point x="307" y="517"/>
      <point x="189" y="517" type="curve" smooth="yes"/>
      <point x="101" y="517" type="line"/>
      <point x="101" y="515" type="line"/>
      <point x="189" y="515" type="line" smooth="yes"/>
      <point x="306" y="515"/>
      <point x="347" y="475"/>
      <point x="347" y="403" type="curve" smooth="yes"/>
      <point x="347" y="298"/>
      <point x="258" y="252"/>
      <point x="186" y="252" type="curve" smooth="yes"/>
      <point x="85" y="252" type="line"/>
      <point x="85" y="250" type="line"/>
    </contour>
    <component base="descStraightcy" xOffset="337"/>
    <contour>
      <point x="237" y="517" type="move" name="top"/>
    </contour>
  </outline>
</glyph>
<glyph name="uni0508" format="1">
  <advance width="912"/>
  <unicode hex="0508"/>
  <outline>
    <contour>
      <point x="763" y="-9"/>
      <point x="837" y="164"/>
      <point x="843" y="379" type="curve"/>
      <point x="841" y="379" type="line"/>
      <point x="835" y="165"/>
      <point x="762" y="-7"/>
      <point x="607" y="-7" type="curve" smooth="yes"/>
      <point x="520" y="-7"/>
      <point x="472" y="50"/>
      <point x="486" y="148" type="curve" smooth="yes"/>
      <point x="560" y="680" type="line"/>
      <point x="252" y="680" type="line"/>
      <point x="253" y="678" type="line"/>
      <point x="558" y="678" type="line"/>
      <point x="484" y="148" type="line" smooth="yes"/>
      <point x="470" y="50"/>
      <point x="519" y="-9"/>
      <point x="607" y="-9" type="curve" smooth="yes"/>
    </contour>
    <contour>
      <point x="74" y="18"/>
      <point x="90" y="58"/>
      <point x="168" y="353" type="curve" smooth="yes"/>
      <point x="254" y="678" type="line"/>
      <point x="252" y="680" type="line"/>
      <point x="166" y="354" type="line" smooth="yes"/>
      <point x="89" y="63"/>
      <point x="73" y="20"/>
      <point x="8" y="1" type="curve"/>
      <point x="8" y="-1" type="line"/>
    </contour>
    <contour>
      <point x="524" y="680" type="move" name="top"/>
    </contour>
    <contour>
      <point x="428" y="0" type="move" name="bottom"/>
    </contour>
  </outline>
</glyph>
<glyph name="uni0509" format="1">
  <advance width="851"/>
  <unicode hex="0509"/>
  <outline>
    <contour>
      <point x="702" y="-9"/>
      <point x="776" y="164"/>
      <point x="782" y="379" type="curve"/>
      <point x="780" y="379" type="line"/>
      <point x="774" y="165"/>
      <point x="701" y="-7"/>
      <point x="546" y="-7" type="curve" smooth="yes"/>
      <point x="459" y="-7"/>
      <point x="410" y="51"/>
      <point x="424" y="148" type="curve" smooth="yes"/>
      <point x="478" y="517" type="line"/>
      <point x="204" y="517" type="line"/>
      <point x="205" y="515" type="line"/>
      <point x="476" y="515" type="line"/>
      <point x="422" y="148" type="line" smooth="yes"/>
      <point x="408" y="49"/>
      <point x="458" y="-9"/>
      <point x="546" y="-9" type="curve" smooth="yes"/>
    </contour>
    <contour>
      <point x="96" y="22"/>
      <point x="110" y="65"/>
      <point x="157" y="285" type="curve" smooth="yes"/>
      <point x="206" y="515" type="line"/>
      <point x="204" y="517" type="line"/>
      <point x="155" y="285" type="line" smooth="yes"/>
      <point x="108" y="67"/>
      <point x="94" y="23"/>
      <point x="29" y="1" type="curve"/>
      <point x="29" y="-1" type="line"/>
    </contour>
    <contour>
      <point x="461" y="517" type="move" name="top"/>
    </contour>
    <contour>
      <point x="389" y="0" type="move" name="bottom"/>
    </contour>
  </outline>
</glyph>
<glyph name="uni0515" format="1">
  <advance width="647"/>
  <unicode hex="0515"/>
  <outline>
    <contour>
      <point x="196" y="515" type="line"/>
      <point x="313" y="515" type="line"/>
      <point x="313" y="517" type="line"/>
      <point x="195" y="517" type="line"/>
    </contour>
    <contour>
      <point x="195" y="517" type="line"/>
      <point x="155" y="285" type="line" smooth="yes"/>
      <point x="116" y="67"/>
      <point x="94" y="23"/>
      <point x="29" y="1" type="curve"/>
      <point x="29" y="-1" type="line"/>
      <point x="96" y="22"/>
      <point x="118" y="65"/>
      <point x="157" y="285" type="curve" smooth="yes"/>
      <point x="197" y="515" type="line"/>
    </contour>
    <component base="x" xOffset="223"/>
    <contour>
      <point x="359" y="517" type="move" name="top"/>
    </contour>
    <contour>
      <point x="287" y="0" type="move" name="bottom"/>
    </contour>
  </outline>
</glyph>
<glyph name="uni0517" format="1">
  <advance width="771"/>
  <unicode hex="0517"/>
  <outline>
    <contour>
      <point x="484" y="277" type="line"/>
      <point x="668" y="0" type="line"/>
      <point x="670" y="0" type="line"/>
      <point x="486" y="278" type="line"/>
      <point x="613" y="429" type="line" smooth="yes"/>
      <point x="667" y="493"/>
      <point x="685" y="510"/>
      <point x="723" y="525" type="curve"/>
      <point x="722" y="527" type="line"/>
      <point x="683" y="511"/>
      <point x="668" y="498"/>
      <point x="611" y="430" type="curve" smooth="yes"/>
      <point x="484" y="279" type="line"/>
    </contour>
    <component base="p"/>
    <contour>
      <point x="417" y="517" type="move" name="top"/>
    </contour>
  </outline>
</glyph>
<glyph name="uni0518" format="1">
  <advance width="813"/>
  <unicode hex="0518"/>
  <outline>
    <contour>
      <point x="250" y="312" type="line"/>
      <point x="248" y="312" type="line"/>
      <point x="29" y="0" type="line"/>
      <point x="32" y="0" type="line"/>
    </contour>
    <contour>
      <point x="249" y="311" type="line"/>
      <point x="457" y="311" type="line"/>
      <point x="457" y="313" type="line"/>
      <point x="253" y="313" type="line"/>
      <point x="172" y="313"/>
      <point x="102" y="364"/>
      <point x="102" y="459" type="curve" smooth="yes"/>
      <point x="102" y="562"/>
      <point x="162" y="678"/>
      <point x="370" y="678" type="curve" smooth="yes"/>
      <point x="507" y="678" type="line"/>
      <point x="412" y="0" type="line"/>
      <point x="414" y="0" type="line"/>
      <point x="509" y="680" type="line"/>
      <point x="370" y="680" type="line" smooth="yes"/>
      <point x="161" y="680"/>
      <point x="100" y="563"/>
      <point x="100" y="459" type="curve" smooth="yes"/>
      <point x="100" y="365"/>
      <point x="168" y="314"/>
      <point x="248" y="311" type="curve"/>
    </contour>
    <contour>
      <point x="812" y="678" type="line"/>
      <point x="812" y="680" type="line"/>
      <point x="507" y="680" type="line"/>
      <point x="508" y="678" type="line"/>
    </contour>
    <contour>
      <point x="725" y="360" type="line"/>
      <point x="725" y="362" type="line"/>
      <point x="464" y="362" type="line"/>
      <point x="464" y="360" type="line"/>
    </contour>
    <contour>
      <point x="412" y="0" type="line"/>
      <point x="727" y="0" type="line"/>
      <point x="727" y="2" type="line"/>
      <point x="413" y="2" type="line"/>
    </contour>
    <contour>
      <point x="466" y="680" type="move" name="top"/>
    </contour>
    <contour>
      <point x="370" y="0" type="move" name="bottom"/>
    </contour>
  </outline>
</glyph>
<glyph name="uni0519" format="1">
  <advance width="780"/>
  <unicode hex="0519"/>
  <outline>
    <contour>
      <point x="575" y="-9"/>
      <point x="620" y="12"/>
      <point x="672" y="50" type="curve"/>
      <point x="671" y="52" type="line"/>
      <point x="619" y="14"/>
      <point x="575" y="-7"/>
      <point x="510" y="-7" type="curve"/>
      <point x="409" y="-7"/>
      <point x="348" y="62"/>
      <point x="348" y="190" type="curve"/>
      <point x="348" y="310"/>
      <point x="406" y="525"/>
      <point x="596" y="525" type="curve"/>
      <point x="670" y="525"/>
      <point x="734" y="487"/>
      <point x="734" y="414" type="curve"/>
      <point x="734" y="308"/>
      <point x="619" y="232"/>
      <point x="348" y="220" type="curve"/>
      <point x="348" y="218" type="line"/>
      <point x="619" y="230"/>
      <point x="736" y="306"/>
      <point x="736" y="414" type="curve"/>
      <point x="736" y="488"/>
      <point x="671" y="527"/>
      <point x="596" y="527" type="curve"/>
      <point x="404" y="527"/>
      <point x="346" y="310"/>
      <point x="346" y="190" type="curve"/>
      <point x="346" y="61"/>
      <point x="408" y="-9"/>
      <point x="510" y="-9" type="curve"/>
    </contour>
    <contour>
      <point x="41" y="0" type="line"/>
      <point x="210" y="218" type="line"/>
      <point x="348" y="218" type="line"/>
      <point x="348" y="220" type="line"/>
      <point x="213" y="220" type="line" smooth="yes"/>
      <point x="146" y="220"/>
      <point x="104" y="274"/>
      <point x="104" y="343" type="curve" smooth="yes"/>
      <point x="104" y="440"/>
      <point x="187" y="525"/>
      <point x="325" y="525" type="curve" smooth="yes"/>
      <point x="383" y="525"/>
      <point x="441" y="512"/>
      <point x="481" y="493" type="curve"/>
      <point x="483" y="494" type="line"/>
      <point x="443" y="513"/>
      <point x="384" y="527"/>
      <point x="325" y="527" type="curve" smooth="yes"/>
      <point x="188" y="527"/>
      <point x="102" y="442"/>
      <point x="102" y="343" type="curve" smooth="yes"/>
      <point x="102" y="273"/>
      <point x="144" y="221"/>
      <point x="207" y="218" type="curve"/>
      <point x="39" y="0" type="line"/>
    </contour>
    <contour>
      <point x="430" y="517" type="move" name="top"/>
    </contour>
    <contour>
      <point x="357" y="0" type="move" name="bottom"/>
    </contour>
  </outline>
</glyph>
<glyph name="uni051E" format="1">
  <advance width="536"/>
  <unicode hex="051E"/>
  <outline>
    <contour>
      <point x="550" y="490" type="line"/>
      <point x="551" y="492" type="line"/>
      <point x="299" y="619" type="line"/>
      <point x="298" y="617" type="line"/>
    </contour>
    <component base="uni041A"/>
  </outline>
</glyph>
<glyph name="uni051F" format="1">
  <advance width="498"/>
  <unicode hex="051F"/>
  <outline>
    <contour>
      <point x="435" y="349" type="line"/>
      <point x="436" y="351" type="line"/>
      <point x="224" y="465" type="line"/>
      <point x="223" y="463" type="line"/>
    </contour>
    <contour>
      <point x="410" y="511"/>
      <point x="393" y="501"/>
      <point x="343" y="430" type="curve" smooth="yes"/>
      <point x="237" y="279" type="line"/>
      <point x="130" y="279" type="line"/>
      <point x="164" y="517" type="line"/>
      <point x="162" y="517" type="line"/>
      <point x="89" y="0" type="line"/>
      <point x="91" y="0" type="line"/>
      <point x="130" y="277" type="line"/>
      <point x="237" y="277" type="line"/>
      <point x="395" y="0" type="line"/>
      <point x="397" y="0" type="line"/>
      <point x="239" y="278" type="line"/>
      <point x="345" y="429" type="line" smooth="yes"/>
      <point x="393" y="498"/>
      <point x="412" y="510"/>
      <point x="450" y="525" type="curve"/>
      <point x="449" y="527" type="line"/>
    </contour>
    <contour>
      <point x="285" y="517" type="move" name="top"/>
    </contour>
    <contour>
      <point x="213" y="0" type="move" name="bottom"/>
    </contour>
    <contour>
      <point x="405" y="0" type="move" name="bottomright"/>
    </contour>
  </outline>
</glyph>
<glyph name="uni052B" format="1">
  <advance width="816"/>
  <unicode hex="052B"/>
  <outline>
    <contour>
      <point x="360" y="0" type="line"/>
      <point x="432" y="517" type="line"/>
      <point x="261" y="517" type="line"/>
      <point x="212" y="282" type="line" smooth="yes"/>
      <point x="169" y="78"/>
      <point x="137" y="36"/>
      <point x="80" y="2" type="curve"/>
      <point x="82" y="1" type="line"/>
      <point x="140" y="35"/>
      <point x="171" y="79"/>
      <point x="214" y="282" type="curve" smooth="yes"/>
      <point x="263" y="515" type="line"/>
      <point x="430" y="515" type="line"/>
      <point x="358" y="2" type="line"/>
      <point x="80" y="2" type="line"/>
      <point x="80" y="0" type="line"/>
    </contour>
    <contour>
      <point x="459" y="0" type="line"/>
      <point x="459" y="2" type="line"/>
      <point x="354" y="2" type="line"/>
      <point x="354" y="0" type="line"/>
    </contour>
    <contour>
      <point x="498" y="277" type="line"/>
      <point x="498" y="279" type="line"/>
      <point x="398" y="279" type="line"/>
      <point x="398" y="277" type="line"/>
    </contour>
    <contour>
      <point x="728" y="511"/>
      <point x="708" y="503"/>
      <point x="661" y="430" type="curve" smooth="yes"/>
      <point x="565" y="279" type="line"/>
      <point x="499" y="279" type="line"/>
      <point x="533" y="517" type="line"/>
      <point x="531" y="517" type="line"/>
      <point x="458" y="0" type="line"/>
      <point x="460" y="0" type="line"/>
      <point x="499" y="277" type="line"/>
      <point x="565" y="277" type="line"/>
      <point x="713" y="0" type="line"/>
      <point x="715" y="0" type="line"/>
      <point x="567" y="278" type="line"/>
      <point x="663" y="429" type="line" smooth="yes"/>
      <point x="708" y="500"/>
      <point x="730" y="510"/>
      <point x="768" y="525" type="curve"/>
      <point x="767" y="527" type="line"/>
    </contour>
    <component base="descStraightleftcy" xOffset="17"/>
    <component base="descStraightcy" xOffset="379"/>
    <contour>
      <point x="447" y="517" type="move" name="top"/>
    </contour>
  </outline>
</glyph>
<glyph name="uni052D" format="1">
  <advance width="570"/>
  <unicode hex="052D"/>
  <outline>
    <contour>
      <point x="45" y="1" type="line"/>
      <point x="103" y="35"/>
      <point x="147" y="88"/>
      <point x="187" y="278" type="curve" smooth="yes"/>
      <point x="236" y="515" type="line"/>
      <point x="484" y="515" type="line"/>
      <point x="412" y="2" type="line"/>
      <point x="43" y="2" type="line"/>
      <point x="43" y="0" type="line"/>
      <point x="414" y="0" type="line"/>
      <point x="486" y="517" type="line"/>
      <point x="234" y="517" type="line"/>
      <point x="184" y="277" type="line" smooth="yes"/>
      <point x="145" y="87"/>
      <point x="100" y="36"/>
      <point x="43" y="2" type="curve"/>
    </contour>
    <contour>
      <point x="454" y="292" type="line"/>
      <point x="219" y="292" type="line" smooth="yes"/>
      <point x="133" y="292"/>
      <point x="89" y="323"/>
      <point x="101" y="411" type="curve" smooth="yes"/>
      <point x="116" y="517" type="line"/>
      <point x="114" y="517" type="line"/>
      <point x="99" y="411" type="line" smooth="yes"/>
      <point x="87" y="321"/>
      <point x="132" y="290"/>
      <point x="219" y="290" type="curve" smooth="yes"/>
      <point x="453" y="290" type="line"/>
    </contour>
    <component base="descStraightcy" xOffset="435"/>
    <component base="descStraightleftcy" xOffset="-23"/>
    <contour>
      <point x="313" y="517" type="move" name="top"/>
    </contour>
  </outline>
</glyph>
<glyph name="uni0E3F" format="1">
  <advance width="570"/>
  <unicode hex="0E3F"/>
  <outline>
    <contour>
      <point x="239" y="1" type="line"/>
      <point x="219" y="-144" type="line"/>
      <point x="221" y="-144" type="line"/>
      <point x="241" y="1" type="line"/>
    </contour>
    <contour>
      <point x="352" y="805" type="line"/>
      <point x="332" y="659" type="line"/>
      <point x="334" y="659" type="line"/>
      <point x="354" y="805" type="line"/>
    </contour>
    <contour>
      <point x="186" y="660" type="line"/>
      <point x="94" y="0" type="line"/>
      <point x="246" y="0" type="line" smooth="yes"/>
      <point x="431" y="0"/>
      <point x="495" y="96"/>
      <point x="495" y="206" type="curve" smooth="yes"/>
      <point x="495" y="296"/>
      <point x="427" y="344"/>
      <point x="343" y="349" type="curve"/>
      <point x="428" y="360"/>
      <point x="504" y="426"/>
      <point x="504" y="525" type="curve" smooth="yes"/>
      <point x="504" y="611"/>
      <point x="439" y="659"/>
      <point x="316" y="660" type="curve" smooth="yes"/>
    </contour>
    <contour>
      <point x="439" y="657"/>
      <point x="502" y="610"/>
      <point x="502" y="525" type="curve" smooth="yes"/>
      <point x="502" y="406"/>
      <point x="397" y="350"/>
      <point x="329" y="350" type="curve" smooth="yes"/>
      <point x="145" y="350" type="line"/>
      <point x="145" y="348" type="line"/>
      <point x="325" y="348" type="line" smooth="yes"/>
      <point x="425" y="348"/>
      <point x="493" y="295"/>
      <point x="493" y="206" type="curve" smooth="yes"/>
      <point x="493" y="97"/>
      <point x="430" y="2"/>
      <point x="247" y="2" type="curve" smooth="yes"/>
      <point x="96" y="2" type="line"/>
      <point x="188" y="658" type="line"/>
      <point x="317" y="658" type="line" smooth="yes"/>
    </contour>
  </outline>
</glyph>
<glyph name="uni1D4A" format="1">
  <advance width="333"/>
  <unicode hex="1D4A"/>
  <outline>
    <contour>
      <point x="188" y="664"/>
      <point x="159" y="652"/>
      <point x="132" y="636" type="curve"/>
      <point x="132" y="634" type="line"/>
      <point x="160" y="650"/>
      <point x="188" y="662"/>
      <point x="226" y="662" type="curve" smooth="yes"/>
      <point x="282" y="662"/>
      <point x="311" y="627"/>
      <point x="311" y="564" type="curve" smooth="yes"/>
      <point x="311" y="474"/>
      <point x="269" y="397"/>
      <point x="185" y="397" type="curve" smooth="yes"/>
      <point x="127" y="397"/>
      <point x="97" y="435"/>
      <point x="97" y="495" type="curve" smooth="yes"/>
      <point x="97" y="505"/>
      <point x="99" y="524"/>
      <point x="101" y="532" type="curve"/>
      <point x="310" y="532" type="line"/>
      <point x="310" y="534" type="line"/>
      <point x="100" y="534" type="line"/>
      <point x="97" y="524"/>
      <point x="95" y="506"/>
      <point x="95" y="495" type="curve" smooth="yes"/>
      <point x="95" y="434"/>
      <point x="126" y="395"/>
      <point x="185" y="395" type="curve" smooth="yes"/>
      <point x="270" y="395"/>
      <point x="313" y="473"/>
      <point x="313" y="564" type="curve" smooth="yes"/>
      <point x="313" y="628"/>
      <point x="283" y="664"/>
      <point x="226" y="664" type="curve" smooth="yes"/>
    </contour>
  </outline>
</glyph>
<glyph name="uni1D6D" format="1">
  <advance width="636"/>
  <unicode hex="1D6D"/>
  <outline>
    <contour>
      <point x="599" y="604"/>
      <point x="624" y="625"/>
      <point x="640" y="649" type="curve"/>
      <point x="638" y="649" type="line"/>
      <point x="622" y="626"/>
      <point x="598" y="606"/>
      <point x="563" y="606" type="curve"/>
      <point x="517" y="606"/>
      <point x="477" y="661"/>
      <point x="429" y="661" type="curve"/>
      <point x="395" y="661"/>
      <point x="370" y="640"/>
      <point x="351" y="616" type="curve"/>
      <point x="353" y="616" type="line"/>
      <point x="372" y="639"/>
      <point x="396" y="659"/>
      <point x="429" y="659" type="curve"/>
      <point x="477" y="659"/>
      <point x="516" y="604"/>
      <point x="563" y="604" type="curve"/>
    </contour>
    <component base="d"/>
  </outline>
</glyph>
<glyph name="uni1D6F" format="1">
  <advance width="788"/>
  <unicode hex="1D6F"/>
  <outline>
    <contour>
      <point x="689" y="250" type="line"/>
      <point x="602" y="252"/>
      <point x="176" y="306"/>
      <point x="102" y="306" type="curve"/>
      <point x="102" y="304" type="line"/>
      <point x="176" y="304"/>
      <point x="602" y="250"/>
      <point x="689" y="248" type="curve"/>
    </contour>
    <contour>
      <point x="44" y="284"/>
      <point x="68" y="304"/>
      <point x="102" y="304" type="curve"/>
      <point x="102" y="306" type="line"/>
      <point x="66" y="306"/>
      <point x="40" y="283"/>
      <point x="25" y="261" type="curve"/>
      <point x="27" y="261" type="line"/>
    </contour>
    <contour>
      <point x="726" y="248"/>
      <point x="754" y="271"/>
      <point x="768" y="293" type="curve"/>
      <point x="766" y="293" type="line"/>
      <point x="749" y="270"/>
      <point x="724" y="250"/>
      <point x="690" y="250" type="curve"/>
      <point x="690" y="248" type="line"/>
    </contour>
    <component base="m" xOffset="-31"/>
  </outline>
</glyph>
<glyph name="uni1D70" format="1">
  <advance width="511"/>
  <unicode hex="1D70"/>
  <outline>
    <contour>
      <point x="420" y="250" type="line"/>
      <point x="353" y="252"/>
      <point x="147" y="306"/>
      <point x="95" y="306" type="curve"/>
      <point x="95" y="304" type="line"/>
      <point x="147" y="304"/>
      <point x="353" y="250"/>
      <point x="420" y="248" type="curve"/>
    </contour>
    <contour>
      <point x="40" y="284"/>
      <point x="61" y="304"/>
      <point x="95" y="304" type="curve"/>
      <point x="95" y="306" type="line"/>
      <point x="59" y="306"/>
      <point x="36" y="283"/>
      <point x="25" y="261" type="curve"/>
      <point x="27" y="261" type="line"/>
    </contour>
    <contour>
      <point x="456" y="248"/>
      <point x="480" y="271"/>
      <point x="491" y="293" type="curve"/>
      <point x="489" y="293" type="line"/>
      <point x="476" y="270"/>
      <point x="454" y="250"/>
      <point x="420" y="250" type="curve"/>
      <point x="420" y="248" type="line"/>
    </contour>
    <component base="n" xOffset="-38"/>
  </outline>
</glyph>
<glyph name="uni1D74" format="1">
  <advance width="462"/>
  <unicode hex="1D74"/>
  <outline>
    <contour>
      <point x="107" y="276"/>
      <point x="128" y="296"/>
      <point x="181" y="296" type="curve"/>
      <point x="181" y="298" type="line"/>
      <point x="127" y="298"/>
      <point x="105" y="278"/>
      <point x="92" y="253" type="curve"/>
      <point x="94" y="253" type="line"/>
    </contour>
    <contour>
      <point x="345" y="255"/>
      <point x="367" y="275"/>
      <point x="380" y="300" type="curve"/>
      <point x="378" y="300" type="line"/>
      <point x="365" y="277"/>
      <point x="344" y="257"/>
      <point x="290" y="257" type="curve"/>
      <point x="290" y="255" type="line"/>
    </contour>
    <component base="s" xOffset="3"/>
  </outline>
</glyph>
<glyph name="uni1DBF" format="1">
  <advance width="341"/>
  <unicode hex="1DBF"/>
  <outline>
    <contour>
      <point x="140" y="767"/>
      <point x="101" y="634"/>
      <point x="101" y="518" type="curve" smooth="yes"/>
      <point x="101" y="430"/>
      <point x="133" y="395"/>
      <point x="189" y="395" type="curve" smooth="yes"/>
      <point x="293" y="395"/>
      <point x="330" y="529"/>
      <point x="330" y="647" type="curve" smooth="yes"/>
      <point x="330" y="730"/>
      <point x="296" y="767"/>
      <point x="242" y="767" type="curve" smooth="yes"/>
    </contour>
    <contour>
      <point x="295" y="765"/>
      <point x="328" y="729"/>
      <point x="328" y="647" type="curve" smooth="yes"/>
      <point x="328" y="530"/>
      <point x="292" y="397"/>
      <point x="189" y="397" type="curve" smooth="yes"/>
      <point x="134" y="397"/>
      <point x="103" y="432"/>
      <point x="103" y="518" type="curve" smooth="yes"/>
      <point x="103" y="633"/>
      <point x="141" y="765"/>
      <point x="242" y="765" type="curve" smooth="yes"/>
    </contour>
    <contour>
      <point x="325" y="586" type="line"/>
      <point x="107" y="586" type="line"/>
      <point x="107" y="584" type="line"/>
      <point x="325" y="584" type="line"/>
    </contour>
  </outline>
</glyph>
<glyph name="uni1DC4" format="1">
  <advance width="343"/>
  <unicode hex="1DC4"/>
  <outline>
    <contour>
      <point x="378" y="723" type="line"/>
      <point x="376" y="725" type="line"/>
      <point x="230" y="630" type="line"/>
      <point x="231" y="628" type="line"/>
    </contour>
    <contour>
      <point x="231" y="628" type="line"/>
      <point x="231" y="630" type="line"/>
      <point x="82" y="630" type="line"/>
      <point x="82" y="628" type="line"/>
    </contour>
    <contour>
      <point x="239" y="727" type="move" name="top"/>
    </contour>
    <contour>
      <point x="209" y="517" type="move" name="_top"/>
    </contour>
  </outline>
</glyph>
<glyph name="uni1DC6" format="1">
  <advance width="358"/>
  <unicode hex="1DC6"/>
  <outline>
    <contour>
      <point x="378" y="616" type="line"/>
      <point x="245" y="711" type="line"/>
      <point x="244" y="709" type="line"/>
      <point x="377" y="614" type="line"/>
    </contour>
    <contour>
      <point x="245" y="711" type="line"/>
      <point x="94" y="711" type="line"/>
      <point x="94" y="709" type="line"/>
      <point x="244" y="709" type="line"/>
    </contour>
    <contour>
      <point x="238" y="711" type="move" name="top"/>
    </contour>
    <contour>
      <point x="216" y="517" type="move" name="_top"/>
    </contour>
  </outline>
</glyph>
<glyph name="uni1DC7" format="1">
  <advance width="343"/>
  <unicode hex="1DC7"/>
  <outline>
    <contour>
      <point x="228" y="709" type="line"/>
      <point x="227" y="711" type="line"/>
      <point x="80" y="616" type="line"/>
      <point x="81" y="614" type="line"/>
    </contour>
    <contour>
      <point x="376" y="709" type="line"/>
      <point x="376" y="711" type="line"/>
      <point x="227" y="711" type="line"/>
      <point x="227" y="709" type="line"/>
    </contour>
    <contour>
      <point x="231" y="711" type="move" name="top"/>
    </contour>
    <contour>
      <point x="209" y="517" type="move" name="_top"/>
    </contour>
  </outline>
</glyph>
<glyph name="uni1DC8" format="1">
  <advance width="383"/>
  <unicode hex="1DC8"/>
  <outline>
    <contour>
      <point x="305" y="763" type="line"/>
      <point x="414" y="699" type="line"/>
      <point x="415" y="700" type="line"/>
      <point x="305" y="765" type="line"/>
      <point x="200" y="697" type="line"/>
      <point x="101" y="765" type="line"/>
      <point x="101" y="763" type="line"/>
      <point x="200" y="695" type="line"/>
    </contour>
    <contour>
      <point x="260" y="765" type="move" name="top"/>
    </contour>
    <contour>
      <point x="228" y="517" type="move" name="_top"/>
    </contour>
  </outline>
</glyph>
<glyph name="uni1DC9" format="1">
  <advance width="385"/>
  <unicode hex="1DC9"/>
  <outline>
    <contour>
      <point x="426" y="763" type="line"/>
      <point x="425" y="765" type="line"/>
      <point x="307" y="697" type="line"/>
      <point x="221" y="765" type="line"/>
      <point x="92" y="700" type="line"/>
      <point x="93" y="699" type="line"/>
      <point x="221" y="763" type="line"/>
      <point x="307" y="695" type="line"/>
    </contour>
    <contour>
      <point x="261" y="765" type="move" name="top"/>
    </contour>
    <contour>
      <point x="229" y="517" type="move" name="_top"/>
    </contour>
  </outline>
</glyph>
<glyph name="uni1FBF" format="1">
  <advance width="87"/>
  <unicode hex="1FBF"/>
  <outline>
    <component base="uni0326" xOffset="118" yOffset="836"/>
    <contour>
      <point x="165" y="727" type="move" name="_topleft"/>
    </contour>
    <contour>
      <point x="148" y="729" type="move" name="top"/>
    </contour>
    <contour>
      <point x="69" y="517" type="move" name="_top"/>
    </contour>
  </outline>
</glyph>
<glyph name="uni1FCD" format="1">
  <advance width="172"/>
  <unicode hex="1FCD"/>
  <outline>
    <contour>
      <point x="165" y="727" type="line"/>
      <point x="188" y="599" type="line"/>
      <point x="190" y="599" type="line"/>
      <point x="168" y="727" type="line"/>
    </contour>
    <component base="uni1FBF"/>
    <contour>
      <point x="124" y="517" type="move" name="_top"/>
    </contour>
  </outline>
</glyph>
<glyph name="uni1FDD" format="1">
  <advance width="184"/>
  <unicode hex="1FDD"/>
  <outline>
    <contour>
      <point x="184" y="727" type="line"/>
      <point x="207" y="599" type="line"/>
      <point x="209" y="599" type="line"/>
      <point x="187" y="727" type="line"/>
    </contour>
    <component base="uni1FFE"/>
    <contour>
      <point x="149" y="517" type="move" name="_top"/>
    </contour>
  </outline>
</glyph>
<glyph name="uni1FDE" format="1">
  <advance width="185"/>
  <unicode hex="1FDE"/>
  <outline>
    <contour>
      <point x="162" y="599" type="line"/>
      <point x="164" y="599" type="line"/>
      <point x="221" y="726" type="line"/>
      <point x="218" y="726" type="line"/>
    </contour>
    <component base="uni1FFE"/>
    <contour>
      <point x="126" y="517" type="move" name="_top"/>
    </contour>
  </outline>
</glyph>
<glyph name="uni1FFD" format="1">
  <advance width="101"/>
  <unicode hex="1FFD"/>
  <outline>
    <contour>
      <point x="78" y="599" type="line"/>
      <point x="80" y="599" type="line"/>
      <point x="137" y="726" type="line"/>
      <point x="134" y="726" type="line"/>
    </contour>
    <contour>
      <point x="105" y="727" type="move" name="top"/>
    </contour>
    <contour>
      <point x="70" y="517" type="move" name="_top"/>
    </contour>
  </outline>
</glyph>
<glyph name="uni1FFE" format="1">
  <advance width="88"/>
  <unicode hex="1FFE"/>
  <outline>
    <contour>
      <point x="98" y="730"/>
      <point x="96" y="728"/>
      <point x="96" y="725" type="curve" smooth="yes"/>
      <point x="96" y="723"/>
      <point x="96" y="722"/>
      <point x="97" y="712" type="curve" smooth="yes"/>
      <point x="105" y="598" type="line"/>
      <point x="106" y="598" type="line"/>
      <point x="100" y="720" type="line"/>
      <point x="104" y="720"/>
      <point x="106" y="722"/>
      <point x="106" y="725" type="curve" smooth="yes"/>
      <point x="106" y="728"/>
      <point x="104" y="730"/>
      <point x="101" y="730" type="curve" smooth="yes"/>
    </contour>
    <contour>
      <point x="141" y="727" type="move" name="_topleft"/>
    </contour>
    <contour>
      <point x="118" y="729" type="move" name="top"/>
    </contour>
    <contour>
      <point x="94" y="517" type="move" name="_top"/>
    </contour>
  </outline>
</glyph>
<glyph name="dagger" format="1">
  <advance width="497"/>
  <unicode hex="2020"/>
  <outline>
    <contour>
      <point x="304" y="660" type="line"/>
      <point x="281" y="492" type="line"/>
      <point x="104" y="492" type="line"/>
      <point x="103" y="490" type="line"/>
      <point x="281" y="490" type="line"/>
      <point x="212" y="0" type="line"/>
      <point x="214" y="0" type="line"/>
      <point x="283" y="490" type="line"/>
      <point x="459" y="490" type="line"/>
      <point x="460" y="492" type="line"/>
      <point x="283" y="492" type="line"/>
      <point x="306" y="660" type="line"/>
    </contour>
  </outline>
</glyph>
<glyph name="perthousand" format="1">
  <advance width="1065"/>
  <unicode hex="2030"/>
  <outline>
    <contour>
      <point x="108" y="-9" type="line"/>
      <point x="110" y="-9" type="line"/>
      <point x="663" y="690" type="line"/>
      <point x="661" y="690" type="line"/>
    </contour>
    <contour>
      <point x="316" y="668"/>
      <point x="354" y="628"/>
      <point x="354" y="554" type="curve" smooth="yes"/>
      <point x="354" y="483"/>
      <point x="320" y="368"/>
      <point x="209" y="368" type="curve" smooth="yes"/>
      <point x="142" y="368"/>
      <point x="106" y="413"/>
      <point x="106" y="485" type="curve" smooth="yes"/>
      <point x="106" y="555"/>
      <point x="139" y="668"/>
      <point x="251" y="668" type="curve" smooth="yes"/>
    </contour>
    <contour>
      <point x="139" y="670"/>
      <point x="104" y="557"/>
      <point x="104" y="485" type="curve" smooth="yes"/>
      <point x="104" y="412"/>
      <point x="141" y="366"/>
      <point x="209" y="366" type="curve" smooth="yes"/>
      <point x="321" y="366"/>
      <point x="356" y="482"/>
      <point x="356" y="554" type="curve" smooth="yes"/>
      <point x="356" y="628"/>
      <point x="318" y="670"/>
      <point x="251" y="670" type="curve" smooth="yes"/>
    </contour>
    <contour>
      <point x="621" y="293"/>
      <point x="659" y="253"/>
      <point x="659" y="179" type="curve" smooth="yes"/>
      <point x="659" y="108"/>
      <point x="625" y="-7"/>
      <point x="514" y="-7" type="curve" smooth="yes"/>
      <point x="447" y="-7"/>
      <point x="411" y="38"/>
      <point x="411" y="110" type="curve" smooth="yes"/>
      <point x="411" y="180"/>
      <point x="444" y="293"/>
      <point x="556" y="293" type="curve" smooth="yes"/>
    </contour>
    <contour>
      <point x="444" y="295"/>
      <point x="409" y="182"/>
      <point x="409" y="110" type="curve" smooth="yes"/>
      <point x="409" y="37"/>
      <point x="446" y="-9"/>
      <point x="514" y="-9" type="curve" smooth="yes"/>
      <point x="626" y="-9"/>
      <point x="661" y="107"/>
      <point x="661" y="179" type="curve" smooth="yes"/>
      <point x="661" y="253"/>
      <point x="623" y="295"/>
      <point x="556" y="295" type="curve" smooth="yes"/>
    </contour>
    <contour>
      <point x="941" y="293"/>
      <point x="979" y="253"/>
      <point x="979" y="179" type="curve" smooth="yes"/>
      <point x="979" y="108"/>
      <point x="945" y="-7"/>
      <point x="834" y="-7" type="curve" smooth="yes"/>
      <point x="767" y="-7"/>
      <point x="731" y="38"/>
      <point x="731" y="110" type="curve" smooth="yes"/>
      <point x="731" y="180"/>
      <point x="764" y="293"/>
      <point x="876" y="293" type="curve" smooth="yes"/>
    </contour>
    <contour>
      <point x="764" y="295"/>
      <point x="729" y="182"/>
      <point x="729" y="110" type="curve" smooth="yes"/>
      <point x="729" y="37"/>
      <point x="766" y="-9"/>
      <point x="834" y="-9" type="curve" smooth="yes"/>
      <point x="946" y="-9"/>
      <point x="981" y="107"/>
      <point x="981" y="179" type="curve" smooth="yes"/>
      <point x="981" y="253"/>
      <point x="943" y="295"/>
      <point x="876" y="295" type="curve" smooth="yes"/>
    </contour>
  </outline>
</glyph>
<glyph name="uni203F" format="1">
  <advance width="641"/>
  <unicode hex="203F"/>
  <outline>
    <contour>
      <point x="594" y="-64" type="line"/>
      <point x="530" y="-114"/>
      <point x="421" y="-192"/>
      <point x="257" y="-192" type="curve"/>
      <point x="93" y="-192"/>
      <point x="6" y="-114"/>
      <point x="-45" y="-64" type="curve"/>
      <point x="-45" y="-66" type="line"/>
      <point x="6" y="-117"/>
      <point x="92" y="-194"/>
      <point x="257" y="-194" type="curve"/>
      <point x="420" y="-194"/>
      <point x="530" y="-117"/>
      <point x="595" y="-66" type="curve"/>
    </contour>
  </outline>
</glyph>
<glyph name="colonmonetary" format="1">
  <advance width="517"/>
  <unicode hex="20A1"/>
  <outline>
    <contour>
      <point x="112" y="-144" type="line"/>
      <point x="114" y="-144" type="line"/>
      <point x="444" y="805" type="line"/>
      <point x="442" y="805" type="line"/>
    </contour>
    <contour>
      <point x="192" y="-144" type="line"/>
      <point x="194" y="-144" type="line"/>
      <point x="524" y="805" type="line"/>
      <point x="522" y="805" type="line"/>
    </contour>
    <contour>
      <point x="162" y="670"/>
      <point x="89" y="416"/>
      <point x="89" y="245" type="curve" smooth="yes"/>
      <point x="89" y="81"/>
      <point x="169" y="-9"/>
      <point x="297" y="-9" type="curve" smooth="yes"/>
      <point x="376" y="-9"/>
      <point x="427" y="22"/>
      <point x="462" y="49" type="curve"/>
      <point x="461" y="50" type="line"/>
      <point x="426" y="24"/>
      <point x="375" y="-7"/>
      <point x="297" y="-7" type="curve" smooth="yes"/>
      <point x="171" y="-7"/>
      <point x="91" y="81"/>
      <point x="91" y="245" type="curve" smooth="yes"/>
      <point x="91" y="411"/>
      <point x="162" y="668"/>
      <point x="392" y="668" type="curve" smooth="yes"/>
      <point x="465" y="668"/>
      <point x="500" y="644"/>
      <point x="531" y="613" type="curve"/>
      <point x="532" y="615" type="line"/>
      <point x="502" y="645"/>
      <point x="464" y="670"/>
      <point x="392" y="670" type="curve" smooth="yes"/>
    </contour>
  </outline>
</glyph>
<glyph name="uni20A6" format="1">
  <advance width="635"/>
  <unicode hex="20A6"/>
  <outline>
    <contour>
      <point x="70" y="291" type="line"/>
      <point x="70" y="289" type="line"/>
      <point x="574" y="289" type="line"/>
      <point x="574" y="291" type="line"/>
    </contour>
    <contour>
      <point x="83" y="385" type="line"/>
      <point x="83" y="383" type="line"/>
      <point x="587" y="383" type="line"/>
      <point x="587" y="385" type="line"/>
    </contour>
    <contour>
      <point x="563" y="660" type="line"/>
      <point x="489" y="132" type="line"/>
      <point x="483" y="92"/>
      <point x="476" y="43"/>
      <point x="470" y="3" type="curve"/>
      <point x="185" y="660" type="line"/>
      <point x="182" y="660" type="line"/>
      <point x="90" y="0" type="line"/>
      <point x="92" y="0" type="line"/>
      <point x="170" y="555" type="line"/>
      <point x="177" y="603"/>
      <point x="180" y="631"/>
      <point x="184" y="657" type="curve"/>
      <point x="469" y="0" type="line"/>
      <point x="472" y="0" type="line"/>
      <point x="565" y="660" type="line"/>
    </contour>
  </outline>
</glyph>
<glyph name="uni20A9" format="1">
  <advance width="755"/>
  <unicode hex="20A9"/>
  <outline>
    <contour>
      <point x="60" y="291" type="line"/>
      <point x="60" y="289" type="line"/>
      <point x="704" y="289" type="line"/>
      <point x="704" y="291" type="line"/>
    </contour>
    <contour>
      <point x="73" y="385" type="line"/>
      <point x="73" y="383" type="line"/>
      <point x="717" y="383" type="line"/>
      <point x="717" y="385" type="line"/>
    </contour>
    <contour>
      <point x="764" y="660" type="line"/>
      <point x="518" y="3" type="line"/>
      <point x="435" y="660" type="line"/>
      <point x="433" y="660" type="line"/>
      <point x="165" y="2" type="line"/>
      <point x="103" y="660" type="line"/>
      <point x="101" y="660" type="line"/>
      <point x="164" y="0" type="line"/>
      <point x="166" y="0" type="line"/>
      <point x="434" y="658" type="line"/>
      <point x="517" y="0" type="line"/>
      <point x="519" y="0" type="line"/>
      <point x="766" y="660" type="line"/>
    </contour>
  </outline>
</glyph>
<glyph name="uni20AA" format="1">
  <advance width="886"/>
  <unicode hex="20AA"/>
  <outline>
    <contour>
      <point x="553" y="0" type="line" smooth="yes"/>
      <point x="710" y="0"/>
      <point x="799" y="42"/>
      <point x="799" y="219" type="curve" smooth="yes"/>
      <point x="799" y="557" type="line"/>
      <point x="797" y="557" type="line"/>
      <point x="797" y="219" type="line" smooth="yes"/>
      <point x="798" y="44"/>
      <point x="709" y="2"/>
      <point x="553" y="2" type="curve" smooth="yes"/>
      <point x="341" y="2" type="line"/>
      <point x="341" y="0" type="line"/>
    </contour>
    <contour>
      <point x="121" y="0" type="line"/>
      <point x="121" y="300" type="line" smooth="yes"/>
      <point x="121" y="458"/>
      <point x="155" y="510"/>
      <point x="187" y="557" type="curve"/>
      <point x="185" y="557" type="line"/>
      <point x="153" y="510"/>
      <point x="119" y="459"/>
      <point x="119" y="300" type="curve" smooth="yes"/>
      <point x="119" y="0" type="line"/>
    </contour>
    <contour>
      <point x="343" y="0" type="line"/>
      <point x="343" y="410" type="line"/>
      <point x="341" y="410" type="line"/>
      <point x="341" y="0" type="line"/>
    </contour>
    <contour>
      <point x="576" y="90" type="line"/>
      <point x="576" y="338" type="line" smooth="yes"/>
      <point x="576" y="515"/>
      <point x="487" y="557"/>
      <point x="330" y="557" type="curve" smooth="yes"/>
      <point x="87" y="557" type="line"/>
      <point x="87" y="555" type="line"/>
      <point x="330" y="555" type="line" smooth="yes"/>
      <point x="486" y="555"/>
      <point x="574" y="513"/>
      <point x="574" y="338" type="curve" smooth="yes"/>
      <point x="574" y="90" type="line"/>
    </contour>
  </outline>
</glyph>
<glyph name="uni20B4" format="1">
  <advance width="534"/>
  <unicode hex="20B4"/>
  <outline>
    <contour>
      <point x="254" y="670"/>
      <point x="203" y="643"/>
      <point x="157" y="608" type="curve"/>
      <point x="158" y="606" type="line"/>
      <point x="204" y="642"/>
      <point x="256" y="668"/>
      <point x="335" y="668" type="curve" smooth="yes"/>
      <point x="428" y="668"/>
      <point x="484" y="616"/>
      <point x="484" y="543" type="curve" smooth="yes"/>
      <point x="484" y="434"/>
      <point x="407" y="397"/>
      <point x="284" y="359" type="curve" smooth="yes"/>
      <point x="155" y="320"/>
      <point x="72" y="274"/>
      <point x="72" y="144" type="curve" smooth="yes"/>
      <point x="72" y="53"/>
      <point x="136" y="-9"/>
      <point x="243" y="-9" type="curve" smooth="yes"/>
      <point x="331" y="-9"/>
      <point x="389" y="21"/>
      <point x="442" y="67" type="curve"/>
      <point x="441" y="69" type="line"/>
      <point x="388" y="23"/>
      <point x="332" y="-7"/>
      <point x="243" y="-7" type="curve" smooth="yes"/>
      <point x="137" y="-7"/>
      <point x="74" y="54"/>
      <point x="74" y="144" type="curve" smooth="yes"/>
      <point x="74" y="271"/>
      <point x="154" y="317"/>
      <point x="285" y="357" type="curve" smooth="yes"/>
      <point x="408" y="395"/>
      <point x="486" y="432"/>
      <point x="486" y="543" type="curve" smooth="yes"/>
      <point x="486" y="617"/>
      <point x="429" y="670"/>
      <point x="335" y="670" type="curve" smooth="yes"/>
    </contour>
    <contour>
      <point x="70" y="291" type="line"/>
      <point x="70" y="289" type="line"/>
      <point x="441" y="289" type="line"/>
      <point x="441" y="291" type="line"/>
    </contour>
    <contour>
      <point x="83" y="385" type="line"/>
      <point x="83" y="383" type="line"/>
      <point x="454" y="383" type="line"/>
      <point x="454" y="385" type="line"/>
    </contour>
  </outline>
</glyph>
<glyph name="uni20B9" format="1">
  <advance width="514"/>
  <unicode hex="20B9"/>
  <outline>
    <contour>
      <point x="380" y="0" type="line"/>
      <point x="230" y="305" type="line"/>
      <point x="228" y="305" type="line"/>
      <point x="377" y="0" type="line"/>
    </contour>
    <contour>
      <point x="511" y="524" type="line"/>
      <point x="511" y="526" type="line"/>
      <point x="119" y="526" type="line"/>
      <point x="119" y="524" type="line"/>
    </contour>
    <contour>
      <point x="138" y="660" type="line"/>
      <point x="138" y="658" type="line"/>
      <point x="233" y="658" type="line" smooth="yes"/>
      <point x="372" y="658"/>
      <point x="424" y="608"/>
      <point x="424" y="513" type="curve" smooth="yes"/>
      <point x="424" y="391"/>
      <point x="347" y="306"/>
      <point x="228" y="306" type="curve" smooth="yes"/>
      <point x="88" y="306" type="line"/>
      <point x="88" y="304" type="line"/>
      <point x="229" y="304" type="line" smooth="yes"/>
      <point x="348" y="304"/>
      <point x="426" y="390"/>
      <point x="426" y="513" type="curve" smooth="yes"/>
      <point x="426" y="609"/>
      <point x="373" y="650"/>
      <point x="274" y="658" type="curve"/>
      <point x="530" y="658" type="line"/>
      <point x="530" y="660" type="line"/>
    </contour>
  </outline>
</glyph>
<glyph name="uni20BA" format="1">
  <advance width="479"/>
  <unicode hex="20BA"/>
  <outline>
    <contour>
      <point x="201" y="0" type="line"/>
      <point x="329" y="0"/>
      <point x="390" y="45"/>
      <point x="442" y="134" type="curve"/>
      <point x="440" y="134" type="line"/>
      <point x="390" y="47"/>
      <point x="328" y="2"/>
      <point x="201" y="2" type="curve"/>
      <point x="105" y="2" type="line"/>
      <point x="197" y="660" type="line"/>
      <point x="195" y="660" type="line"/>
      <point x="103" y="0" type="line"/>
    </contour>
    <contour>
      <point x="329" y="330" type="line"/>
      <point x="330" y="332" type="line"/>
      <point x="70" y="218" type="line"/>
      <point x="69" y="216" type="line"/>
    </contour>
    <contour>
      <point x="345" y="445" type="line"/>
      <point x="346" y="447" type="line" smooth="yes"/>
      <point x="86" y="333" type="line"/>
      <point x="86" y="331" type="line"/>
    </contour>
  </outline>
</glyph>
<glyph name="uni20BD" format="1">
  <advance width="545"/>
  <unicode hex="20BD"/>
  <outline>
    <contour>
      <point x="202" y="658" type="line"/>
      <point x="312" y="658" type="line" smooth="yes"/>
      <point x="444" y="658"/>
      <point x="511" y="611"/>
      <point x="511" y="508" type="curve" smooth="yes"/>
      <point x="511" y="359"/>
      <point x="418" y="283"/>
      <point x="256" y="283" type="curve" smooth="yes"/>
      <point x="149" y="283" type="line"/>
      <point x="148" y="281" type="line"/>
      <point x="256" y="281" type="line" smooth="yes"/>
      <point x="419" y="281"/>
      <point x="513" y="358"/>
      <point x="513" y="508" type="curve" smooth="yes"/>
      <point x="513" y="612"/>
      <point x="445" y="660"/>
      <point x="312" y="660" type="curve" smooth="yes"/>
      <point x="200" y="660" type="line"/>
      <point x="108" y="0" type="line"/>
      <point x="110" y="0" type="line"/>
    </contour>
    <contour>
      <point x="44" y="149" type="line"/>
      <point x="44" y="147" type="line"/>
      <point x="296" y="147" type="line"/>
      <point x="296" y="149" type="line"/>
    </contour>
    <contour>
      <point x="64" y="283" type="line"/>
      <point x="63" y="281" type="line"/>
      <point x="215" y="281" type="line"/>
      <point x="216" y="283" type="line"/>
    </contour>
  </outline>
</glyph>
<glyph name="uni2116" format="1">
  <advance width="1050"/>
  <unicode hex="2116"/>
  <outline>
    <contour>
      <point x="734" y="680"/>
      <point x="667" y="561"/>
      <point x="667" y="431" type="curve" smooth="yes"/>
      <point x="667" y="334"/>
      <point x="716" y="278"/>
      <point x="802" y="278" type="curve" smooth="yes"/>
      <point x="927" y="278"/>
      <point x="995" y="398"/>
      <point x="995" y="529" type="curve" smooth="yes"/>
      <point x="995" y="625"/>
      <point x="945" y="680"/>
      <point x="860" y="680" type="curve" smooth="yes"/>
    </contour>
    <contour>
      <point x="944" y="678"/>
      <point x="993" y="624"/>
      <point x="993" y="529" type="curve" smooth="yes"/>
      <point x="993" y="399"/>
      <point x="926" y="280"/>
      <point x="802" y="280" type="curve" smooth="yes"/>
      <point x="717" y="280"/>
      <point x="669" y="335"/>
      <point x="669" y="431" type="curve" smooth="yes"/>
      <point x="669" y="560"/>
      <point x="735" y="678"/>
      <point x="860" y="678" type="curve" smooth="yes"/>
    </contour>
    <component base="N"/>
    <component base="minus" xOffset="515" yOffset="-330"/>
  </outline>
</glyph>
<glyph name="arrowleft" format="1">
  <advance width="900"/>
  <unicode hex="2190"/>
  <outline>
    <contour>
      <point x="183" y="329" type="line"/>
      <point x="409" y="79" type="line"/>
      <point x="411" y="81" type="line"/>
      <point x="192" y="322" type="line" smooth="yes"/>
      <point x="190" y="324"/>
      <point x="188" y="326"/>
      <point x="186" y="328" type="curve"/>
      <point x="737" y="328" type="line"/>
      <point x="737" y="330" type="line"/>
      <point x="186" y="330" type="line"/>
      <point x="188" y="332"/>
      <point x="190" y="334"/>
      <point x="192" y="336" type="curve" smooth="yes"/>
      <point x="411" y="577" type="line"/>
      <point x="409" y="579" type="line"/>
    </contour>
  </outline>
</glyph>
<glyph name="arrowboth" format="1">
  <advance width="1282"/>
  <unicode hex="2194"/>
  <outline>
    <contour>
      <point x="891" y="577" type="line"/>
      <point x="1110" y="336" type="line" smooth="yes"/>
      <point x="1112" y="334"/>
      <point x="1114" y="332"/>
      <point x="1116" y="330" type="curve"/>
      <point x="186" y="330" type="line"/>
      <point x="188" y="332"/>
      <point x="190" y="334"/>
      <point x="192" y="336" type="curve" smooth="yes"/>
      <point x="411" y="577" type="line"/>
      <point x="409" y="579" type="line"/>
      <point x="183" y="329" type="line"/>
      <point x="409" y="79" type="line"/>
      <point x="411" y="81" type="line"/>
      <point x="192" y="322" type="line" smooth="yes"/>
      <point x="190" y="324"/>
      <point x="188" y="326"/>
      <point x="186" y="328" type="curve"/>
      <point x="1116" y="328" type="line"/>
      <point x="1114" y="326"/>
      <point x="1112" y="324"/>
      <point x="1110" y="322" type="curve" smooth="yes"/>
      <point x="891" y="81" type="line"/>
      <point x="893" y="79" type="line"/>
      <point x="1119" y="329" type="line"/>
      <point x="893" y="579" type="line"/>
    </contour>
  </outline>
</glyph>
<glyph name="arrowupdn" format="1">
  <advance width="966"/>
  <unicode hex="2195"/>
  <outline>
    <contour>
      <point x="225" y="578" type="line"/>
      <point x="226" y="576" type="line"/>
      <point x="466" y="795" type="line" smooth="yes"/>
      <point x="477" y="805"/>
      <point x="487" y="814"/>
      <point x="494" y="821" type="curve"/>
      <point x="494" y="-137" type="line"/>
      <point x="487" y="-130"/>
      <point x="477" y="-121"/>
      <point x="466" y="-111" type="curve" smooth="yes"/>
      <point x="226" y="108" type="line"/>
      <point x="225" y="106" type="line"/>
      <point x="495" y="-140" type="line"/>
      <point x="765" y="106" type="line"/>
      <point x="764" y="108" type="line"/>
      <point x="524" y="-111" type="line" smooth="yes"/>
      <point x="513" y="-121"/>
      <point x="503" y="-130"/>
      <point x="496" y="-137" type="curve"/>
      <point x="496" y="821" type="line"/>
      <point x="503" y="814"/>
      <point x="513" y="805"/>
      <point x="524" y="795" type="curve" smooth="yes"/>
      <point x="764" y="576" type="line"/>
      <point x="765" y="578" type="line"/>
      <point x="495" y="824" type="line"/>
    </contour>
  </outline>
</glyph>
<glyph name="uni2199" format="1">
  <advance width="900"/>
  <unicode hex="2199"/>
  <outline>
    <contour>
      <point x="283" y="98" type="line"/>
      <point x="283" y="108"/>
      <point x="282" y="121"/>
      <point x="281" y="136" type="curve" smooth="yes"/>
      <point x="266" y="461" type="line"/>
      <point x="264" y="461" type="line"/>
      <point x="281" y="95" type="line"/>
      <point x="638" y="76" type="line"/>
      <point x="639" y="78" type="line"/>
      <point x="322" y="95" type="line" smooth="yes"/>
      <point x="307" y="96"/>
      <point x="294" y="97"/>
      <point x="285" y="97" type="curve"/>
      <point x="689" y="507" type="line"/>
      <point x="688" y="509" type="line"/>
    </contour>
  </outline>
</glyph>
<glyph name="uni21E6" format="1">
  <advance width="960"/>
  <unicode hex="21E6"/>
  <outline>
    <contour>
      <point x="923" y="387" type="line"/>
      <point x="923" y="417"/>
      <point x="903" y="437"/>
      <point x="873" y="437" type="curve" smooth="yes"/>
      <point x="341" y="437" type="line"/>
      <point x="341" y="613" type="line"/>
      <point x="43" y="313" type="line"/>
      <point x="341" y="13" type="line"/>
      <point x="341" y="189" type="line"/>
      <point x="873" y="189" type="line" smooth="yes"/>
      <point x="903" y="189"/>
      <point x="923" y="209"/>
      <point x="923" y="239" type="curve" smooth="yes"/>
    </contour>
    <contour>
      <point x="879" y="233" type="line"/>
      <point x="296" y="233" type="line"/>
      <point x="296" y="122" type="line"/>
      <point x="107" y="313" type="line"/>
      <point x="296" y="504" type="line"/>
      <point x="296" y="393" type="line"/>
      <point x="879" y="393" type="line"/>
    </contour>
  </outline>
</glyph>
<glyph name="uni21E9" format="1">
  <advance width="720"/>
  <unicode hex="21E9"/>
  <outline>
    <contour>
      <point x="271" y="750" type="line"/>
      <point x="241" y="750"/>
      <point x="221" y="730"/>
      <point x="221" y="700" type="curve" smooth="yes"/>
      <point x="221" y="204" type="line"/>
      <point x="52" y="204" type="line"/>
      <point x="352" y="-94" type="line"/>
      <point x="652" y="204" type="line"/>
      <point x="483" y="204" type="line"/>
      <point x="483" y="700" type="line" smooth="yes"/>
      <point x="483" y="730"/>
      <point x="463" y="750"/>
      <point x="433" y="750" type="curve"/>
    </contour>
    <contour>
      <point x="436" y="706" type="line"/>
      <point x="436" y="159" type="line"/>
      <point x="543" y="159" type="line"/>
      <point x="352" y="-30" type="line"/>
      <point x="161" y="159" type="line"/>
      <point x="268" y="159" type="line"/>
      <point x="268" y="706" type="line"/>
    </contour>
  </outline>
</glyph>
<glyph name="partialdiff" format="1">
  <advance width="497"/>
  <unicode hex="2202"/>
  <outline>
    <contour>
      <point x="191" y="688" type="line"/>
      <point x="349" y="623"/>
      <point x="420" y="532"/>
      <point x="420" y="358" type="curve" smooth="yes"/>
      <point x="420" y="328"/>
      <point x="418" y="296"/>
      <point x="415" y="263" type="curve"/>
      <point x="376" y="353"/>
      <point x="316" y="392"/>
      <point x="238" y="392" type="curve" smooth="yes"/>
      <point x="105" y="392"/>
      <point x="48" y="260"/>
      <point x="48" y="158" type="curve" smooth="yes"/>
      <point x="48" y="47"/>
      <point x="115" y="-9"/>
      <point x="200" y="-9" type="curve" smooth="yes"/>
      <point x="356" y="-9"/>
      <point x="422" y="163"/>
      <point x="422" y="358" type="curve" smooth="yes"/>
      <point x="422" y="533"/>
      <point x="350" y="625"/>
      <point x="192" y="690" type="curve"/>
    </contour>
    <contour>
      <point x="116" y="-7"/>
      <point x="50" y="48"/>
      <point x="50" y="158" type="curve" smooth="yes"/>
      <point x="50" y="258"/>
      <point x="106" y="390"/>
      <point x="238" y="390" type="curve" smooth="yes"/>
      <point x="316" y="390"/>
      <point x="375" y="351"/>
      <point x="414" y="260" type="curve"/>
      <point x="391" y="83"/>
      <point x="310" y="-7"/>
      <point x="200" y="-7" type="curve" smooth="yes"/>
    </contour>
  </outline>
</glyph>
<glyph name="uni2B05" format="1">
  <advance width="1000"/>
  <unicode hex="2B05"/>
  <outline>
    <contour>
      <point x="943" y="387" type="line" smooth="yes"/>
      <point x="943" y="417"/>
      <point x="923" y="437"/>
      <point x="893" y="437" type="curve" smooth="yes"/>
      <point x="361" y="437" type="line"/>
      <point x="361" y="613" type="line"/>
      <point x="63" y="313" type="line"/>
      <point x="361" y="13" type="line"/>
      <point x="361" y="189" type="line"/>
      <point x="893" y="189" type="line" smooth="yes"/>
      <point x="923" y="189"/>
      <point x="943" y="209"/>
      <point x="943" y="239" type="curve" smooth="yes"/>
    </contour>
  </outline>
</glyph>
